<svg width="194" height="208" viewBox="0 0 194 208" fill="none" xmlns="http://www.w3.org/2000/svg">
<path d="M23.688 200V199.36C24.4133 199.317 24.9573 199.232 25.32 199.104C25.6827 198.976 25.9173 198.72 26.024 198.336C26.152 197.952 26.216 197.376 26.216 196.608V180.736C26.216 179.947 26.152 179.371 26.024 179.008C25.9173 178.624 25.672 178.368 25.288 178.24C24.9253 178.091 24.392 178.005 23.688 177.984V177.344C24.2213 177.365 24.8827 177.387 25.672 177.408C26.4827 177.429 27.2827 177.44 28.072 177.44C28.968 177.44 29.8 177.429 30.568 177.408C31.336 177.387 31.9547 177.365 32.424 177.344V177.984C31.72 178.005 31.1867 178.091 30.824 178.24C30.4613 178.368 30.216 178.624 30.088 179.008C29.96 179.371 29.896 179.947 29.896 180.736V196.608C29.896 197.376 29.96 197.952 30.088 198.336C30.216 198.72 30.4613 198.976 30.824 199.104C31.1867 199.232 31.72 199.317 32.424 199.36V200C31.9547 199.957 31.336 199.936 30.568 199.936C29.8 199.915 28.968 199.904 28.072 199.904C27.2827 199.904 26.4827 199.915 25.672 199.936C24.8827 199.936 24.2213 199.957 23.688 200ZM10.248 200V199.36C10.9733 199.317 11.5173 199.232 11.88 199.104C12.2427 198.976 12.4773 198.72 12.584 198.336C12.712 197.952 12.776 197.376 12.776 196.608V180.736C12.776 179.947 12.712 179.371 12.584 179.008C12.4773 178.624 12.232 178.368 11.848 178.24C11.4853 178.091 10.952 178.005 10.248 177.984V177.344C10.7387 177.365 11.368 177.387 12.136 177.408C12.9253 177.429 13.768 177.44 14.664 177.44C15.4747 177.44 16.264 177.429 17.032 177.408C17.8213 177.387 18.472 177.365 18.984 177.344V177.984C18.28 178.005 17.7467 178.091 17.384 178.24C17.0213 178.368 16.776 178.624 16.648 179.008C16.52 179.371 16.456 179.947 16.456 180.736V196.608C16.456 197.376 16.52 197.952 16.648 198.336C16.776 198.72 17.0213 198.976 17.384 199.104C17.7467 199.232 18.28 199.317 18.984 199.36V200C18.472 199.957 17.8213 199.936 17.032 199.936C16.264 199.915 15.4747 199.904 14.664 199.904C13.768 199.904 12.9253 199.915 12.136 199.936C11.368 199.936 10.7387 199.957 10.248 200ZM15.016 188.928V188.288H27.656V188.928H15.016ZM38.9073 200.224C38.0113 200.224 37.2433 200.053 36.6033 199.712C35.9633 199.371 35.4833 198.901 35.1633 198.304C34.8433 197.707 34.6833 197.024 34.6833 196.256C34.6833 195.317 34.8966 194.56 35.3233 193.984C35.7499 193.387 36.2939 192.907 36.9553 192.544C37.6379 192.181 38.3526 191.883 39.0993 191.648C39.8673 191.392 40.5819 191.157 41.2433 190.944C41.9259 190.709 42.4806 190.443 42.9073 190.144C43.3553 189.845 43.5793 189.451 43.5793 188.96V186.784C43.5793 186.016 43.4513 185.408 43.1953 184.96C42.9606 184.491 42.6299 184.16 42.2033 183.968C41.7979 183.776 41.3073 183.68 40.7313 183.68C40.2406 183.68 39.7179 183.755 39.1633 183.904C38.6086 184.032 38.1713 184.299 37.8513 184.704C38.3206 184.832 38.7046 185.088 39.0033 185.472C39.3233 185.835 39.4833 186.293 39.4833 186.848C39.4833 187.445 39.2806 187.915 38.8753 188.256C38.4913 188.597 38.0006 188.768 37.4033 188.768C36.7419 188.768 36.2513 188.565 35.9313 188.16C35.6113 187.733 35.4513 187.243 35.4513 186.688C35.4513 186.112 35.5899 185.643 35.8673 185.28C36.1659 184.917 36.5499 184.576 37.0193 184.256C37.5313 183.915 38.1819 183.627 38.9713 183.392C39.7819 183.157 40.6779 183.04 41.6593 183.04C42.5766 183.04 43.3659 183.147 44.0273 183.36C44.7099 183.552 45.2753 183.872 45.7233 184.32C46.2566 184.811 46.6086 185.429 46.7793 186.176C46.9499 186.901 47.0353 187.787 47.0353 188.832V197.664C47.0353 198.197 47.0993 198.581 47.2273 198.816C47.3766 199.029 47.6113 199.136 47.9313 199.136C48.1446 199.136 48.3473 199.083 48.5393 198.976C48.7526 198.869 48.9979 198.709 49.2753 198.496L49.5953 199.04C49.1473 199.403 48.6886 199.691 48.2193 199.904C47.7713 200.117 47.1953 200.224 46.4913 200.224C45.8086 200.224 45.2539 200.117 44.8273 199.904C44.4006 199.691 44.0806 199.381 43.8673 198.976C43.6753 198.571 43.5793 198.069 43.5793 197.472C43.0246 198.368 42.3633 199.051 41.5953 199.52C40.8273 199.989 39.9313 200.224 38.9073 200.224ZM40.4433 198.688C41.0406 198.688 41.5953 198.517 42.1073 198.176C42.6406 197.835 43.1313 197.323 43.5793 196.64V190.272C43.3446 190.613 43.0033 190.912 42.5553 191.168C42.1073 191.403 41.6273 191.648 41.1153 191.904C40.6033 192.16 40.1126 192.459 39.6433 192.8C39.1953 193.12 38.8219 193.536 38.5233 194.048C38.2246 194.56 38.0753 195.211 38.0753 196C38.0753 196.832 38.2886 197.493 38.7153 197.984C39.1419 198.453 39.7179 198.688 40.4433 198.688ZM65.2448 183.488V184.128C64.8394 184.192 64.4554 184.405 64.0928 184.768C63.7514 185.109 63.4314 185.707 63.1328 186.56L58.0768 200.128C57.9061 200.128 57.7248 200.128 57.5328 200.128C57.3621 200.128 57.1914 200.128 57.0208 200.128L51.1968 185.952C50.8554 185.12 50.5141 184.619 50.1728 184.448C49.8528 184.256 49.5754 184.16 49.3407 184.16V183.488C49.8528 183.531 50.3754 183.573 50.9088 183.616C51.4634 183.637 52.0714 183.648 52.7328 183.648C53.3941 183.648 54.0874 183.637 54.8128 183.616C55.5594 183.573 56.2528 183.531 56.8928 183.488V184.16C56.3808 184.16 55.9221 184.192 55.5168 184.256C55.1328 184.32 54.8768 184.512 54.7488 184.832C54.6421 185.131 54.7168 185.653 54.9728 186.4L58.9088 196.32L58.6528 196.576L61.9488 187.84C62.2688 186.987 62.3968 186.304 62.3328 185.792C62.2688 185.259 62.0448 184.864 61.6608 184.608C61.2768 184.331 60.7221 184.171 59.9968 184.128V183.488C60.3594 183.509 60.6901 183.531 60.9888 183.552C61.3088 183.552 61.6074 183.563 61.8848 183.584C62.1834 183.584 62.4928 183.584 62.8128 183.584C63.2821 183.584 63.7194 183.573 64.1248 183.552C64.5514 183.531 64.9248 183.509 65.2448 183.488ZM73.7688 183.04C75.6461 183.04 77.1181 183.605 78.1848 184.736C79.2514 185.867 79.7848 187.659 79.7848 190.112H68.7448L68.6808 189.504H76.3928C76.4141 188.459 76.3288 187.499 76.1368 186.624C75.9448 185.728 75.6461 185.013 75.2408 184.48C74.8354 183.947 74.3021 183.68 73.6408 183.68C72.7234 183.68 71.9234 184.171 71.2408 185.152C70.5794 186.112 70.1741 187.659 70.0248 189.792L70.1208 189.952C70.0994 190.251 70.0781 190.581 70.0568 190.944C70.0354 191.285 70.0248 191.627 70.0248 191.968C70.0248 193.44 70.2488 194.677 70.6968 195.68C71.1448 196.683 71.7314 197.44 72.4568 197.952C73.1821 198.443 73.9181 198.688 74.6648 198.688C75.2408 198.688 75.7954 198.603 76.3288 198.432C76.8834 198.24 77.4061 197.931 77.8968 197.504C78.3874 197.056 78.8248 196.448 79.2088 195.68L79.8488 195.936C79.5928 196.661 79.1981 197.376 78.6648 198.08C78.1314 198.784 77.4488 199.36 76.6168 199.808C75.7848 200.235 74.8141 200.448 73.7048 200.448C72.2114 200.448 70.9101 200.117 69.8008 199.456C68.6914 198.773 67.8381 197.803 67.2408 196.544C66.6434 195.285 66.3448 193.792 66.3448 192.064C66.3448 190.165 66.6541 188.544 67.2728 187.2C67.8914 185.856 68.7554 184.832 69.8648 184.128C70.9954 183.403 72.2968 183.04 73.7688 183.04ZM92.8385 183.04C93.6492 183.04 94.3318 183.157 94.8865 183.392C95.4412 183.605 95.8892 183.904 96.2305 184.288C96.6145 184.693 96.8812 185.237 97.0305 185.92C97.1798 186.581 97.2545 187.424 97.2545 188.448V197.024C97.2545 197.92 97.4252 198.528 97.7665 198.848C98.1078 199.168 98.6838 199.328 99.4945 199.328V200C99.1318 199.979 98.5665 199.957 97.7985 199.936C97.0518 199.893 96.3158 199.872 95.5905 199.872C94.8652 199.872 94.1505 199.893 93.4465 199.936C92.7638 199.957 92.2412 199.979 91.8785 200V199.328C92.5825 199.328 93.0732 199.168 93.3505 198.848C93.6492 198.528 93.7985 197.92 93.7985 197.024V187.552C93.7985 186.933 93.7558 186.379 93.6705 185.888C93.5852 185.376 93.3825 184.971 93.0625 184.672C92.7638 184.352 92.2838 184.192 91.6225 184.192C90.8758 184.192 90.2038 184.416 89.6065 184.864C89.0305 185.312 88.5612 185.931 88.1985 186.72C87.8572 187.488 87.6865 188.352 87.6865 189.312V197.024C87.6865 197.92 87.8358 198.528 88.1345 198.848C88.4332 199.168 88.9238 199.328 89.6065 199.328V200C89.2652 199.979 88.7532 199.957 88.0705 199.936C87.3878 199.893 86.6838 199.872 85.9585 199.872C85.2332 199.872 84.4758 199.893 83.6865 199.936C82.8972 199.957 82.3105 199.979 81.9265 200V199.328C82.7585 199.328 83.3452 199.168 83.6865 198.848C84.0492 198.528 84.2305 197.92 84.2305 197.024V186.976C84.2305 186.016 84.0705 185.312 83.7505 184.864C83.4305 184.395 82.8225 184.16 81.9265 184.16V183.488C82.6092 183.552 83.2705 183.584 83.9105 183.584C84.6358 183.584 85.3078 183.552 85.9265 183.488C86.5665 183.403 87.1532 183.285 87.6865 183.136V186.624C88.2412 185.344 88.9772 184.427 89.8945 183.872C90.8332 183.317 91.8145 183.04 92.8385 183.04ZM102.471 183.04C103.281 183.04 103.964 183.157 104.519 183.392C105.073 183.605 105.521 183.904 105.863 184.288C106.247 184.693 106.513 185.237 106.663 185.92C106.812 186.581 106.887 187.424 106.887 188.448V197.024C106.887 197.92 107.057 198.528 107.399 198.848C107.761 199.168 108.359 199.328 109.191 199.328V200C108.828 199.979 108.263 199.957 107.495 199.936C106.727 199.893 105.969 199.872 105.223 199.872C104.497 199.872 103.783 199.893 103.079 199.936C102.396 199.957 101.873 199.979 101.511 200V199.328C102.215 199.328 102.705 199.168 102.983 198.848C103.281 198.528 103.431 197.92 103.431 197.024V187.552C103.431 186.933 103.388 186.379 103.303 185.888C103.217 185.376 103.015 184.971 102.695 184.672C102.375 184.352 101.873 184.192 101.191 184.192C100.444 184.192 99.7718 184.427 99.1745 184.896C98.5985 185.344 98.1292 185.963 97.7665 186.752C97.4252 187.52 97.2545 188.384 97.2545 189.344L97.1265 186.688C97.7025 185.28 98.4705 184.32 99.4305 183.808C100.412 183.296 101.425 183.04 102.471 183.04ZM118.52 183.04C119.95 183.04 121.219 183.339 122.328 183.936C123.438 184.533 124.323 185.472 124.984 186.752C125.646 188.032 125.976 189.707 125.976 191.776C125.976 193.845 125.646 195.52 124.984 196.8C124.323 198.059 123.438 198.987 122.328 199.584C121.219 200.16 119.95 200.448 118.52 200.448C117.112 200.448 115.843 200.16 114.712 199.584C113.582 198.987 112.686 198.059 112.024 196.8C111.384 195.52 111.064 193.845 111.064 191.776C111.064 189.707 111.384 188.032 112.024 186.752C112.686 185.472 113.582 184.533 114.712 183.936C115.843 183.339 117.112 183.04 118.52 183.04ZM118.52 183.68C117.411 183.68 116.504 184.32 115.8 185.6C115.096 186.859 114.744 188.917 114.744 191.776C114.744 194.635 115.096 196.693 115.8 197.952C116.504 199.189 117.411 199.808 118.52 199.808C119.608 199.808 120.504 199.189 121.208 197.952C121.934 196.693 122.296 194.635 122.296 191.776C122.296 188.917 121.934 186.859 121.208 185.6C120.504 184.32 119.608 183.68 118.52 183.68ZM122.2 185.088L122.68 185.728L115.16 197.984L114.648 197.312L122.2 185.088ZM114.232 197.376L114.744 198.048L111.8 202.336L111.128 201.888L114.232 197.376ZM125.272 181.184L125.88 181.6L123.064 185.728L122.584 185.088L125.272 181.184ZM138.255 183.04C139.962 183.04 141.38 183.755 142.511 185.184C143.663 186.592 144.239 188.736 144.239 191.616C144.239 193.643 143.908 195.307 143.247 196.608C142.586 197.909 141.7 198.88 140.591 199.52C139.503 200.139 138.319 200.448 137.039 200.448C136.036 200.448 135.076 200.203 134.159 199.712C133.242 199.2 132.538 198.432 132.047 197.408L132.623 197.568C133.092 198.293 133.679 198.837 134.383 199.2C135.087 199.563 135.802 199.744 136.527 199.744C137.871 199.744 138.874 199.093 139.535 197.792C140.218 196.491 140.559 194.485 140.559 191.776C140.559 190.005 140.42 188.555 140.143 187.424C139.887 186.293 139.492 185.472 138.959 184.96C138.447 184.427 137.796 184.16 137.007 184.16C136.09 184.16 135.247 184.555 134.479 185.344C133.711 186.133 133.252 187.275 133.103 188.768L132.783 188.096C133.082 186.496 133.722 185.259 134.703 184.384C135.706 183.488 136.89 183.04 138.255 183.04ZM133.295 174.944V198.688C132.932 198.816 132.559 198.976 132.175 199.168C131.791 199.36 131.428 199.573 131.087 199.808C130.746 200.021 130.426 200.256 130.127 200.512L129.615 200.256C129.7 199.957 129.754 199.659 129.775 199.36C129.818 199.061 129.839 198.752 129.839 198.432V178.784C129.839 177.824 129.668 177.12 129.327 176.672C129.007 176.203 128.41 175.968 127.535 175.968V175.296C128.218 175.36 128.879 175.392 129.519 175.392C130.223 175.392 130.895 175.36 131.535 175.296C132.175 175.211 132.762 175.093 133.295 174.944ZM151.776 174.912V197.024C151.776 197.92 151.946 198.528 152.288 198.848C152.65 199.168 153.248 199.328 154.08 199.328V200C153.717 199.979 153.152 199.957 152.384 199.936C151.616 199.893 150.848 199.872 150.08 199.872C149.312 199.872 148.533 199.893 147.744 199.936C146.976 199.957 146.4 199.979 146.016 200V199.328C146.848 199.328 147.434 199.168 147.776 198.848C148.138 198.528 148.32 197.92 148.32 197.024V178.752C148.32 177.792 148.16 177.088 147.84 176.64C147.52 176.171 146.912 175.936 146.016 175.936V175.264C146.698 175.328 147.36 175.36 148 175.36C148.704 175.36 149.376 175.328 150.016 175.264C150.656 175.179 151.242 175.061 151.776 174.912ZM163.238 183.04C165.115 183.04 166.587 183.605 167.654 184.736C168.72 185.867 169.254 187.659 169.254 190.112H158.214L158.15 189.504H165.862C165.883 188.459 165.798 187.499 165.606 186.624C165.414 185.728 165.115 185.013 164.71 184.48C164.304 183.947 163.771 183.68 163.11 183.68C162.192 183.68 161.392 184.171 160.71 185.152C160.048 186.112 159.643 187.659 159.494 189.792L159.59 189.952C159.568 190.251 159.547 190.581 159.526 190.944C159.504 191.285 159.494 191.627 159.494 191.968C159.494 193.44 159.718 194.677 160.166 195.68C160.614 196.683 161.2 197.44 161.926 197.952C162.651 198.443 163.387 198.688 164.134 198.688C164.71 198.688 165.264 198.603 165.798 198.432C166.352 198.24 166.875 197.931 167.366 197.504C167.856 197.056 168.294 196.448 168.678 195.68L169.318 195.936C169.062 196.661 168.667 197.376 168.134 198.08C167.6 198.784 166.918 199.36 166.086 199.808C165.254 200.235 164.283 200.448 163.174 200.448C161.68 200.448 160.379 200.117 159.27 199.456C158.16 198.773 157.307 197.803 156.71 196.544C156.112 195.285 155.814 193.792 155.814 192.064C155.814 190.165 156.123 188.544 156.742 187.2C157.36 185.856 158.224 184.832 159.334 184.128C160.464 183.403 161.766 183.04 163.238 183.04ZM181.699 183.04C182.318 183.04 182.841 183.168 183.267 183.424C183.715 183.68 184.046 184.011 184.259 184.416C184.494 184.8 184.611 185.237 184.611 185.728C184.611 186.347 184.419 186.88 184.035 187.328C183.673 187.755 183.182 187.968 182.563 187.968C182.03 187.968 181.571 187.808 181.187 187.488C180.825 187.168 180.643 186.731 180.643 186.176C180.643 185.707 180.761 185.312 180.995 184.992C181.251 184.651 181.539 184.384 181.859 184.192C181.646 184.021 181.39 183.947 181.091 183.968C180.515 183.989 179.982 184.181 179.491 184.544C179.001 184.885 178.585 185.333 178.243 185.888C177.902 186.421 177.635 186.997 177.443 187.616C177.251 188.235 177.155 188.811 177.155 189.344V196.704C177.155 197.749 177.443 198.453 178.019 198.816C178.595 199.157 179.395 199.328 180.419 199.328V200C179.929 199.979 179.225 199.957 178.307 199.936C177.411 199.893 176.462 199.872 175.459 199.872C174.691 199.872 173.923 199.893 173.155 199.936C172.387 199.957 171.801 199.979 171.395 200V199.328C172.227 199.328 172.814 199.168 173.155 198.848C173.518 198.528 173.699 197.92 173.699 197.024V186.976C173.699 186.016 173.539 185.312 173.219 184.864C172.899 184.395 172.291 184.16 171.395 184.16V183.488C172.078 183.552 172.739 183.584 173.379 183.584C174.105 183.584 174.777 183.552 175.395 183.488C176.035 183.403 176.622 183.285 177.155 183.136V186.816C177.411 186.197 177.753 185.6 178.179 185.024C178.606 184.448 179.118 183.979 179.715 183.616C180.313 183.232 180.974 183.04 181.699 183.04Z" fill="#251B11"/>
<g clip-path="url(#clip0_329_1141)">
<path d="M62.6772 88.0002C62.6473 79.5502 62.9259 71.1802 59.792 62.9602C55.2654 51.0702 40.989 50.4302 33.3682 54.5902C28.4934 57.2502 27.0906 61.9402 28.9013 67.9902C30.7915 74.3002 32.632 80.7002 36.8304 85.9902C37.8452 87.2702 39.0888 88.3802 40.2926 89.6302C40.2926 89.6702 40.3622 89.9002 40.2727 89.9902C40.1931 90.0702 39.8349 89.9602 39.815 90.0202C39.4569 91.0102 38.5416 92.3602 38.8898 92.9602C41.7351 97.8902 40.7104 102.54 38.8898 107.55C36.5021 114.13 34.7909 120.95 32.6818 128.02H0.995117" stroke="#251B11" stroke-width="2" stroke-linecap="round" stroke-linejoin="round"/>
<path d="M155.2 80.9999C156.195 75.9999 157.737 71.0399 158.065 65.9899C158.632 57.2499 154.703 54.1699 148.713 52.5699C141.491 50.6399 134.537 53.8199 131.95 60.5499C130.259 64.9499 129.831 69.8299 128.836 74.4999" stroke="#251B11" stroke-width="2" stroke-linecap="round" stroke-linejoin="round"/>
<path d="M61.6816 118.5C61.9105 116.01 62.1293 113.51 62.3581 110.98C60.3087 109.5 58.3588 108.1 56.4188 106.7C56.0009 106.81 55.5731 106.92 55.1553 107.02C55.6925 116.68 56.2297 126.34 56.7968 136.5C59.8312 136.5 62.9949 136.5 66.1586 136.5C71.7199 136.5 77.3011 130.54 77.132 125C77.0027 120.84 76.1968 116.39 77.3509 112.57C78.6342 108.33 81.788 104.65 84.4642 100.17C85.658 101.81 86.4241 102.85 87.4986 104.33C80.8827 107.31 82.1561 114.96 78.107 119.5" stroke="#251B11" stroke-width="2" stroke-linecap="round" stroke-linejoin="round"/>
<path d="M139.282 101.5C147.48 102.88 150.624 109.25 153.151 116.02C154.414 119.41 155.051 123.04 155.956 126.5H193.005" stroke="#251B11" stroke-width="2" stroke-linecap="round" stroke-linejoin="round"/>
<path d="M91.0306 26C89.2597 32.06 85.3598 34.17 79.0822 33.65C74.3366 33.25 69.4717 34.08 64.6665 34.53C58.3192 35.12 57.2945 35.45 54.5586 28.07C54.0412 29.95 53.6234 31.48 53.2056 33C47.8465 31.9867 44.318 29.3567 42.6201 25.11C52.1311 16.2 62.8658 9.18 75.6101 5.5" stroke="#251B11" stroke-width="2" stroke-linecap="round" stroke-linejoin="round"/>
<path d="M56.21 27.5001C67.1734 28.0201 77.7987 25.5101 88.5632 24.1301C96.4326 23.1201 104.471 23.3901 112.42 22.9801C116.241 22.7801 120.091 22.6001 123.851 21.9501C130.835 20.7301 137.75 19.1701 145.43 17.6101C135.521 12.5401 125.881 8.04014 115.405 5.49014C111.853 4.63014 108.351 3.62014 104.919 5.94014C104.73 6.07014 103.964 5.33014 103.466 5.00014" stroke="#251B11" stroke-width="2" stroke-linecap="round" stroke-linejoin="round"/>
<path d="M131.82 20.5C133.78 24.82 130.865 26.97 127.791 28.38C125.403 29.47 122.558 29.7 119.882 29.95C116.081 30.31 112.142 29.8 108.481 30.64C104.053 31.65 99.9744 32.38 95.975 29.56C95.5969 29.29 94.6816 29.79 93.8857 29.96C94.0947 33.51 94.3135 37.01 94.5225 40.5" stroke="#251B11" stroke-width="2" stroke-linecap="round" stroke-linejoin="round"/>
<path d="M96.5029 57C105.119 57.58 113.844 57.59 122.091 61.56C122.817 63.81 123.046 65.54 119.912 66.57C113.595 68.65 110.56 73.27 109.844 79.99C109.108 86.87 107.655 93.67 106.422 100.49C106.203 101.71 105.467 102.83 104.969 104" stroke="#251B11" stroke-width="2" stroke-linecap="round" stroke-linejoin="round"/>
<path d="M77.1029 69.5C80.9133 75.64 80.0179 82.85 81.5102 89.51C82.2762 92.9 82.3459 96.45 82.8632 101.09C80.0875 100.16 78.3465 99.58 76.6055 98.99" stroke="#251B11" stroke-width="2" stroke-linecap="round" stroke-linejoin="round"/>
<path d="M108.938 70.5C107.774 77.67 106.65 84.84 105.446 92C104.979 94.79 104.68 97.74 101.477 99" stroke="#251B11" stroke-width="2" stroke-linecap="round" stroke-linejoin="round"/>
<path d="M82.5742 70.5C83.2408 78.17 83.7283 85.85 84.6734 93.49C84.9321 95.58 86.5537 97.5 87.5486 99.5" stroke="#251B11" stroke-width="2" stroke-linecap="round" stroke-linejoin="round"/>
<path d="M87.5485 104.5C92.5129 104.59 97.8753 106.95 102.422 102.02C101.487 100.86 100.631 99.0598 99.9944 99.1398C95.1593 99.7198 90.364 100.67 85.5488 101.5" stroke="#251B11" stroke-width="2" stroke-linecap="round" stroke-linejoin="round"/>
<path d="M92.5226 57C83.7478 57.36 74.8736 57.26 67.0439 62.11C67.6011 67.13 71.8492 66.55 74.6149 68" stroke="#251B11" stroke-width="2" stroke-linecap="round" stroke-linejoin="round"/>
<path d="M112.918 71C110.928 70.5 108.859 69.36 106.959 69.61C96.4231 70.98 85.9968 70.49 75.6104 68.5" stroke="#251B11" stroke-width="2" stroke-linecap="round" stroke-linejoin="round"/>
<path d="M106.948 6C115.236 10.5 123.533 15 131.82 19.5" stroke="#251B11" stroke-width="2" stroke-linecap="round" stroke-linejoin="round"/>
<path d="M69.6415 90.5C74.576 87.19 75.0436 82.67 72.4271 76.19C69.9499 75.74 66.5574 75.12 63.1748 74.5" stroke="#251B11" stroke-width="2" stroke-linecap="round" stroke-linejoin="round"/>
<path d="M129.333 102C124.837 100.57 120.34 99.1402 115.733 97.6802C114.808 105.32 113.863 113.16 112.918 121" stroke="#251B11" stroke-width="2" stroke-linecap="round" stroke-linejoin="round"/>
<path d="M127.344 75C124.359 76 121.016 76.45 118.47 78.13C114.669 80.63 115.067 85.04 118.887 91C118.35 92.06 117.813 93.12 117.276 94.18C117.485 94.29 117.694 94.39 117.892 94.5C117.892 94.67 117.823 94.9 117.912 94.98C117.992 95.06 118.3 95.07 118.38 94.98C122.33 90.68 126.647 88.65 132.865 90.31C137.989 91.68 143.56 91.35 148.236 94.49" stroke="#251B11" stroke-width="2" stroke-linecap="round" stroke-linejoin="round"/>
<path d="M152.713 89C153.419 86.73 154.135 84.46 154.981 81.75H158.582C161.975 89.9 160.264 92.9 149.43 99.11C149.171 101.88 148.952 104.19 148.743 106.5" stroke="#251B11" stroke-width="2" stroke-linecap="round" stroke-linejoin="round"/>
<path d="M145.749 19C146.346 21.27 146.933 23.55 147.56 25.95C143.938 26.55 141.113 27.02 137.382 27.64C136.377 26.34 135.094 24.67 133.811 23" stroke="#251B11" stroke-width="2" stroke-linecap="round" stroke-linejoin="round"/>
<path d="M41.2871 97.5C48.0423 99.98 55.0163 100.91 62.1794 100.5" stroke="#251B11" stroke-width="2" stroke-linecap="round" stroke-linejoin="round"/>
<path d="M66.6561 89.5001C59.7517 87.5601 52.9766 86.9201 46.2015 90.3801C44.6396 91.1801 42.2817 93.8601 40.292 90.5001" stroke="#251B11" stroke-width="2" stroke-linecap="round" stroke-linejoin="round"/>
<path d="M93.0201 3.5C89.1998 9.67 90.2643 16.35 91.0304 23" stroke="#251B11" stroke-width="2" stroke-linecap="round" stroke-linejoin="round"/>
<path d="M67.6517 90C70.3777 91.17 73.0937 92.34 76.138 93.66C73.0439 99.32 67.5522 98.5 63.1748 100" stroke="#251B11" stroke-width="2" stroke-linecap="round" stroke-linejoin="round"/>
<path d="M120.877 135C118.23 133.65 115.584 132.3 112.808 130.89C115.793 121.64 108.59 115.01 106.312 107.05C106.033 106.08 103.805 105.68 102.472 105.01" stroke="#251B11" stroke-width="2" stroke-linecap="round" stroke-linejoin="round"/>
<path d="M135.302 122.5C135.133 127.83 134.974 133.17 134.805 138.5" stroke="#251B11" stroke-width="2" stroke-linecap="round" stroke-linejoin="round"/>
<path d="M76.6051 7C71.4616 10.33 66.3281 13.67 61.1846 17" stroke="#251B11" stroke-width="2" stroke-linecap="round" stroke-linejoin="round"/>
<path d="M54.7182 102.5C53.7234 103.33 52.7981 104.76 51.7237 104.89C48.1123 105.34 44.4412 105.33 40.79 105.5" stroke="#251B11" stroke-width="2" stroke-linecap="round" stroke-linejoin="round"/>
<path d="M128.339 75.5C129.005 80.17 129.662 84.83 130.329 89.5" stroke="#251B11" stroke-width="2" stroke-linecap="round" stroke-linejoin="round"/>
<path d="M32.3334 80C31.249 80.91 30.1547 81.82 29.1797 82.63C30.6919 88.75 34.4326 92.57 39.2975 95.5" stroke="#251B11" stroke-width="2" stroke-linecap="round" stroke-linejoin="round"/>
<path d="M102.472 4.50018C97.0398 3.51018 91.6973 1.19018 86.0564 3.49018C83.4299 4.56018 80.7836 5.58018 78.0875 6.44018C77.5204 6.62018 76.7046 6.04018 75.9982 5.81018C75.9982 5.44018 75.9982 5.07018 75.9883 4.71018C78.5153 4.48018 81.0522 4.24018 83.5792 4.01018" stroke="#251B11" stroke-width="2" stroke-linecap="round" stroke-linejoin="round"/>
<path d="M136.297 108.5C136.128 112.83 135.969 117.17 135.8 121.5" stroke="#251B11" stroke-width="2" stroke-linecap="round" stroke-linejoin="round"/>
<path d="M116.4 110.5H130.209C132.448 113.42 135.014 116.85 134.806 121.5" stroke="#251B11" stroke-width="2" stroke-linecap="round" stroke-linejoin="round"/>
<path d="M75.1133 97C75.7798 101.5 76.4365 106 77.103 110.5" stroke="#251B11" stroke-width="2" stroke-linecap="round" stroke-linejoin="round"/>
<path d="M63.1739 89L61.6816 110" stroke="#251B11" stroke-width="2" stroke-linecap="round" stroke-linejoin="round"/>
<path d="M136.795 107.5C136.984 106 137.163 104.51 137.411 102.5H131.82" stroke="#251B11" stroke-width="2" stroke-linecap="round" stroke-linejoin="round"/>
<path d="M153.707 86C152.046 88.83 149.927 91.5 148.852 94.54C147.479 98.42 144.435 99.89 141.271 101.5" stroke="#251B11" stroke-width="2" stroke-linecap="round" stroke-linejoin="round"/>
<path d="M44.7695 24.5L53.7234 27.5" stroke="#251B11" stroke-width="2" stroke-linecap="round" stroke-linejoin="round"/>
<path d="M93.5176 48V62.5" stroke="#251B11" stroke-width="2" stroke-linecap="round" stroke-linejoin="round"/>
<path d="M95.5078 48V62.5" stroke="#251B11" stroke-width="2" stroke-linecap="round" stroke-linejoin="round"/>
<path d="M145.251 106C140.277 107.33 135.302 108.67 130.328 110" stroke="#251B11" stroke-width="2" stroke-linecap="round" stroke-linejoin="round"/>
<path d="M121.872 112L126.349 119.5" stroke="#251B11" stroke-width="2" stroke-linecap="round" stroke-linejoin="round"/>
<path d="M129.334 103C129.005 105.33 128.667 107.67 128.339 110" stroke="#251B11" stroke-width="2" stroke-linecap="round" stroke-linejoin="round"/>
<path d="M71.6309 116L76.1078 122" stroke="#251B11" stroke-width="2" stroke-linecap="round" stroke-linejoin="round"/>
<path d="M60.1902 18C58.4989 19.97 56.8076 21.94 55.9321 22.97C55.5939 25.39 55.4048 26.69 55.2158 28" stroke="#251B11" stroke-width="2" stroke-linecap="round" stroke-linejoin="round"/>
<path d="M94.0156 41.5C94.1848 43.5 94.3439 45.5 94.5131 47.5" stroke="#251B11" stroke-width="2" stroke-linecap="round" stroke-linejoin="round"/>
<path d="M95.0101 41.5C94.841 43.5 94.6818 45.5 94.5127 47.5" stroke="#251B11" stroke-width="2" stroke-linecap="round" stroke-linejoin="round"/>
<path d="M127.841 111C127.512 112.83 127.174 114.67 126.846 116.5" stroke="#251B11" stroke-width="2" stroke-linecap="round" stroke-linejoin="round"/>
<path d="M130.328 102.5C132.815 103.58 134.099 105.2 132.815 108" stroke="#251B11" stroke-width="2" stroke-linecap="round" stroke-linejoin="round"/>
<path d="M114.41 127C115.077 128.67 115.733 130.33 116.4 132" stroke="#251B11" stroke-width="2" stroke-linecap="round" stroke-linejoin="round"/>
<path d="M106.949 5C105.785 4.67 104.631 4.33 103.467 4" stroke="#251B11" stroke-width="2" stroke-linecap="round" stroke-linejoin="round"/>
<path d="M93.0207 1C92.0259 1.33 91.031 1.67 90.0361 2" stroke="#251B11" stroke-width="2" stroke-linecap="round" stroke-linejoin="round"/>
<path d="M91.0312 24C92.1952 25.83 93.3493 27.67 94.5133 29.5" stroke="#251B11" stroke-width="2" stroke-linecap="round" stroke-linejoin="round"/>
<path d="M90.0364 101C89.0415 101.67 88.0466 102.33 87.0518 103" stroke="#251B11" stroke-width="2" stroke-linecap="round" stroke-linejoin="round"/>
<path d="M54.2207 25C54.549 26 54.8873 27 55.2156 28" stroke="#251B11" stroke-width="2" stroke-linecap="round" stroke-linejoin="round"/>
</g>
<defs>
<clipPath id="clip0_329_1141">
<rect width="194" height="139.5" fill="white"/>
</clipPath>
</defs>
</svg>
