<svg width="194" height="208" viewBox="0 0 194 208" fill="none" xmlns="http://www.w3.org/2000/svg">
<path d="M10.984 177.344V177.984C10.28 178.005 9.74667 178.091 9.384 178.24C9.02133 178.368 8.776 178.624 8.648 179.008C8.52 179.371 8.456 179.947 8.456 180.736V196.608C8.456 197.376 8.52 197.952 8.648 198.336C8.776 198.72 9.02133 198.976 9.384 199.104C9.74667 199.232 10.28 199.317 10.984 199.36V200C10.472 199.957 9.82133 199.936 9.032 199.936C8.264 199.915 7.47467 199.904 6.664 199.904C5.768 199.904 4.92533 199.915 4.136 199.936C3.368 199.936 2.73867 199.957 2.248 200V199.36C2.97333 199.317 3.51733 199.232 3.88 199.104C4.24267 198.976 4.47733 198.72 4.584 198.336C4.712 197.952 4.776 197.376 4.776 196.608V180.736C4.776 179.947 4.712 179.371 4.584 179.008C4.47733 178.624 4.232 178.368 3.848 178.24C3.48533 178.091 2.952 178.005 2.248 177.984V177.344C2.73867 177.365 3.368 177.387 4.136 177.408C4.92533 177.429 5.768 177.44 6.664 177.44C7.47467 177.44 8.264 177.429 9.032 177.408C9.82133 177.387 10.472 177.365 10.984 177.344ZM24.2188 183.04C25.0721 183.04 25.7654 183.157 26.2988 183.392C26.8534 183.605 27.3121 183.904 27.6748 184.288C28.0588 184.693 28.3254 185.216 28.4748 185.856C28.6454 186.496 28.7308 187.36 28.7308 188.448V197.024C28.7308 197.92 28.9014 198.528 29.2428 198.848C29.6054 199.168 30.2028 199.328 31.0347 199.328V200C30.6721 199.979 30.1068 199.957 29.3388 199.936C28.5708 199.893 27.8134 199.872 27.0668 199.872C26.3414 199.872 25.6161 199.893 24.8908 199.936C24.1868 199.957 23.6534 199.979 23.2908 200V199.328C24.0161 199.328 24.5281 199.168 24.8268 198.848C25.1254 198.528 25.2748 197.92 25.2748 197.024V187.552C25.2748 186.933 25.2214 186.379 25.1148 185.888C25.0081 185.376 24.7841 184.971 24.4428 184.672C24.1014 184.352 23.5894 184.192 22.9068 184.192C22.1174 184.192 21.4134 184.416 20.7948 184.864C20.1974 185.312 19.7174 185.931 19.3548 186.72C19.0134 187.488 18.8428 188.352 18.8428 189.312V197.024C18.8428 197.92 18.9921 198.528 19.2908 198.848C19.6108 199.168 20.1228 199.328 20.8268 199.328V200C20.4854 199.979 19.9628 199.957 19.2588 199.936C18.5761 199.893 17.8614 199.872 17.1148 199.872C16.3894 199.872 15.6321 199.893 14.8428 199.936C14.0534 199.957 13.4668 199.979 13.0828 200V199.328C13.9147 199.328 14.5014 199.168 14.8428 198.848C15.2054 198.528 15.3868 197.92 15.3868 197.024V186.976C15.3868 186.016 15.2268 185.312 14.9068 184.864C14.5868 184.395 13.9788 184.16 13.0828 184.16V183.488C13.7654 183.552 14.4268 183.584 15.0668 183.584C15.7921 183.584 16.4641 183.552 17.0828 183.488C17.7228 183.403 18.3094 183.285 18.8428 183.136V186.624C19.3974 185.301 20.1548 184.373 21.1148 183.84C22.0961 183.307 23.1308 183.04 24.2188 183.04ZM40.46 174.976C41.1 174.976 41.6653 175.061 42.156 175.232C42.6467 175.403 43.084 175.627 43.468 175.904C43.7667 176.16 44.012 176.469 44.204 176.832C44.396 177.195 44.492 177.589 44.492 178.016C44.492 178.549 44.3107 178.997 43.948 179.36C43.6067 179.723 43.1587 179.904 42.604 179.904C42.0493 179.904 41.58 179.733 41.196 179.392C40.812 179.051 40.62 178.581 40.62 177.984C40.62 177.493 40.748 177.088 41.004 176.768C41.2813 176.448 41.6547 176.224 42.124 176.096C42.06 175.925 41.9107 175.787 41.676 175.68C41.4413 175.552 41.1213 175.488 40.716 175.488C40.2467 175.488 39.8413 175.584 39.5 175.776C39.18 175.968 38.924 176.224 38.732 176.544C38.4973 176.949 38.3373 177.557 38.252 178.368C38.188 179.157 38.156 180.373 38.156 182.016V183.52H41.58V184.16H38.156V196.704C38.156 197.749 38.444 198.453 39.02 198.816C39.6173 199.157 40.4173 199.328 41.42 199.328V200C40.908 199.979 40.1827 199.957 39.244 199.936C38.3267 199.893 37.3453 199.872 36.3 199.872C35.5533 199.872 34.8067 199.893 34.06 199.936C33.3347 199.957 32.78 199.979 32.396 200V199.328C33.228 199.328 33.8147 199.168 34.156 198.848C34.5187 198.528 34.7 197.92 34.7 197.024V184.16H32.268V183.52H34.7C34.7 182.261 34.7533 181.216 34.86 180.384C34.988 179.531 35.18 178.805 35.436 178.208C35.692 177.589 36.0333 177.045 36.46 176.576C36.908 176.107 37.4733 175.723 38.156 175.424C38.86 175.125 39.628 174.976 40.46 174.976ZM50.6765 183.04C52.1058 183.04 53.3752 183.339 54.4845 183.936C55.5938 184.533 56.4792 185.472 57.1405 186.752C57.8018 188.032 58.1325 189.707 58.1325 191.776C58.1325 193.845 57.8018 195.52 57.1405 196.8C56.4792 198.059 55.5938 198.987 54.4845 199.584C53.3752 200.16 52.1058 200.448 50.6765 200.448C49.2685 200.448 47.9992 200.16 46.8685 199.584C45.7378 198.987 44.8418 198.059 44.1805 196.8C43.5405 195.52 43.2205 193.845 43.2205 191.776C43.2205 189.707 43.5405 188.032 44.1805 186.752C44.8418 185.472 45.7378 184.533 46.8685 183.936C47.9992 183.339 49.2685 183.04 50.6765 183.04ZM50.6765 183.68C49.5672 183.68 48.6605 184.32 47.9565 185.6C47.2525 186.859 46.9005 188.917 46.9005 191.776C46.9005 194.635 47.2525 196.693 47.9565 197.952C48.6605 199.189 49.5672 199.808 50.6765 199.808C51.7645 199.808 52.6605 199.189 53.3645 197.952C54.0898 196.693 54.4525 194.635 54.4525 191.776C54.4525 188.917 54.0898 186.859 53.3645 185.6C52.6605 184.32 51.7645 183.68 50.6765 183.68ZM76.2078 183.04C77.6371 183.04 78.9064 183.339 80.0158 183.936C81.1251 184.533 82.0104 185.472 82.6718 186.752C83.3331 188.032 83.6638 189.707 83.6638 191.776C83.6638 193.845 83.3331 195.52 82.6718 196.8C82.0104 198.059 81.1251 198.987 80.0158 199.584C78.9064 200.16 77.6371 200.448 76.2078 200.448C74.7998 200.448 73.5304 200.16 72.3998 199.584C71.2691 198.987 70.3731 198.059 69.7118 196.8C69.0718 195.52 68.7518 193.845 68.7518 191.776C68.7518 189.707 69.0718 188.032 69.7118 186.752C70.3731 185.472 71.2691 184.533 72.3998 183.936C73.5304 183.339 74.7998 183.04 76.2078 183.04ZM76.2078 183.68C75.0984 183.68 74.1918 184.32 73.4878 185.6C72.7838 186.859 72.4318 188.917 72.4318 191.776C72.4318 194.635 72.7838 196.693 73.4878 197.952C74.1918 199.189 75.0984 199.808 76.2078 199.808C77.2958 199.808 78.1918 199.189 78.8958 197.952C79.6211 196.693 79.9838 194.635 79.9838 191.776C79.9838 188.917 79.6211 186.859 78.8958 185.6C78.1918 184.32 77.2958 183.68 76.2078 183.68ZM91.9425 206.016C90.7478 206.016 89.6385 205.899 88.6145 205.664C87.6118 205.429 86.8012 205.067 86.1825 204.576C85.5852 204.107 85.2865 203.499 85.2865 202.752C85.2865 202.048 85.5852 201.429 86.1825 200.896C86.7798 200.363 87.6225 199.957 88.7105 199.68L88.9345 200.192C88.4865 200.384 88.1345 200.693 87.8785 201.12C87.6438 201.547 87.5265 202.016 87.5265 202.528C87.5265 203.467 87.9638 204.192 88.8385 204.704C89.7132 205.216 90.8652 205.472 92.2945 205.472C93.2545 205.472 94.1612 205.344 95.0145 205.088C95.8892 204.853 96.5932 204.459 97.1265 203.904C97.6812 203.349 97.9585 202.635 97.9585 201.76C97.9585 201.077 97.7132 200.501 97.2225 200.032C96.7318 199.584 95.7612 199.36 94.3105 199.36H92.0705C91.3238 199.36 90.6305 199.296 89.9905 199.168C89.3505 199.04 88.8278 198.795 88.4225 198.432C88.0385 198.048 87.8465 197.515 87.8465 196.832C87.8465 196.064 88.1665 195.339 88.8065 194.656C89.4465 193.973 90.5238 193.301 92.0385 192.64L92.4225 192.928C91.8038 193.269 91.2492 193.621 90.7585 193.984C90.2892 194.325 90.0545 194.752 90.0545 195.264C90.0545 195.947 90.5452 196.288 91.5265 196.288H95.3345C96.3372 196.288 97.2438 196.427 98.0545 196.704C98.8652 196.96 99.5158 197.376 100.007 197.952C100.497 198.528 100.743 199.285 100.743 200.224C100.743 201.227 100.412 202.165 99.7505 203.04C99.1105 203.936 98.1398 204.651 96.8385 205.184C95.5372 205.739 93.9052 206.016 91.9425 206.016ZM92.1345 193.184C91.0465 193.184 90.0545 193.013 89.1585 192.672C88.2625 192.309 87.5585 191.755 87.0465 191.008C86.5345 190.261 86.2785 189.301 86.2785 188.128C86.2785 186.955 86.5345 185.995 87.0465 185.248C87.5585 184.48 88.2625 183.925 89.1585 183.584C90.0545 183.221 91.0465 183.04 92.1345 183.04C93.2652 183.04 94.2678 183.221 95.1425 183.584C96.0172 183.925 96.7105 184.48 97.2225 185.248C97.7345 185.995 97.9905 186.955 97.9905 188.128C97.9905 189.301 97.7345 190.261 97.2225 191.008C96.7105 191.755 96.0172 192.309 95.1425 192.672C94.2678 193.013 93.2652 193.184 92.1345 193.184ZM92.1345 192.608C92.8812 192.608 93.4572 192.288 93.8625 191.648C94.2678 191.008 94.4705 189.835 94.4705 188.128C94.4705 186.421 94.2678 185.248 93.8625 184.608C93.4572 183.947 92.8812 183.616 92.1345 183.616C91.4305 183.616 90.8652 183.947 90.4385 184.608C90.0118 185.248 89.7985 186.421 89.7985 188.128C89.7985 189.835 90.0118 191.008 90.4385 191.648C90.8652 192.288 91.4305 192.608 92.1345 192.608ZM96.8705 185.728L96.2945 185.504C96.5932 184.757 97.1052 184.107 97.8305 183.552C98.5558 182.997 99.3132 182.72 100.103 182.72C100.7 182.72 101.169 182.891 101.51 183.232C101.873 183.552 102.055 184.011 102.055 184.608C102.055 185.269 101.873 185.739 101.51 186.016C101.169 186.293 100.807 186.432 100.423 186.432C100.081 186.432 99.7612 186.315 99.4625 186.08C99.1852 185.845 99.0252 185.483 98.9825 184.992C98.9398 184.48 99.0998 183.829 99.4625 183.04L99.8145 183.168C98.9612 183.509 98.3318 183.872 97.9265 184.256C97.5425 184.619 97.1905 185.109 96.8705 185.728ZM129.738 177.344V177.984C129.312 178.091 128.853 178.379 128.362 178.848C127.893 179.317 127.456 180.075 127.05 181.12L119.786 200.128C119.701 200.128 119.616 200.128 119.53 200.128C119.445 200.128 119.349 200.128 119.242 200.128C119.157 200.128 119.072 200.128 118.986 200.128C118.901 200.128 118.816 200.128 118.73 200.128L110.794 180.032C110.474 179.243 110.122 178.709 109.738 178.432C109.354 178.155 108.992 178.005 108.65 177.984V177.344C109.141 177.365 109.738 177.387 110.442 177.408C111.168 177.429 111.872 177.44 112.554 177.44C113.429 177.44 114.25 177.429 115.018 177.408C115.808 177.387 116.437 177.365 116.906 177.344V177.984C116.202 178.005 115.658 178.091 115.274 178.24C114.89 178.389 114.677 178.656 114.634 179.04C114.613 179.403 114.741 179.947 115.018 180.672L120.938 196.128L120.362 196.768L125.546 183.136C126.037 181.835 126.282 180.821 126.282 180.096C126.282 179.349 126.048 178.816 125.578 178.496C125.109 178.176 124.426 178.005 123.53 177.984V177.344C124.192 177.365 124.842 177.387 125.482 177.408C126.122 177.429 126.73 177.44 127.306 177.44C127.84 177.44 128.298 177.429 128.682 177.408C129.066 177.387 129.418 177.365 129.738 177.344ZM133.266 175.424C133.928 175.424 134.483 175.637 134.931 176.064C135.379 176.469 135.603 176.981 135.603 177.6C135.603 178.219 135.379 178.741 134.931 179.168C134.483 179.573 133.928 179.776 133.266 179.776C132.605 179.776 132.051 179.573 131.603 179.168C131.155 178.741 130.931 178.219 130.931 177.6C130.931 176.981 131.155 176.469 131.603 176.064C132.051 175.637 132.605 175.424 133.266 175.424ZM135.187 183.136V197.024C135.187 197.92 135.357 198.528 135.699 198.848C136.061 199.168 136.659 199.328 137.491 199.328V200C137.128 199.979 136.563 199.957 135.795 199.936C135.048 199.893 134.28 199.872 133.491 199.872C132.744 199.872 131.976 199.893 131.187 199.936C130.397 199.957 129.811 199.979 129.427 200V199.328C130.258 199.328 130.845 199.168 131.187 198.848C131.549 198.528 131.731 197.92 131.731 197.024V186.976C131.731 186.016 131.571 185.312 131.251 184.864C130.931 184.395 130.323 184.16 129.427 184.16V183.488C130.109 183.552 130.771 183.584 131.411 183.584C132.136 183.584 132.808 183.552 133.427 183.488C134.067 183.403 134.653 183.285 135.187 183.136ZM153.996 174.912V196.512C153.996 197.472 154.156 198.187 154.476 198.656C154.818 199.104 155.426 199.328 156.3 199.328V200C155.639 199.936 154.978 199.904 154.316 199.904C153.591 199.904 152.908 199.936 152.268 200C151.65 200.064 151.074 200.181 150.54 200.352V178.752C150.54 177.792 150.37 177.088 150.028 176.64C149.708 176.171 149.111 175.936 148.236 175.936V175.264C148.919 175.328 149.58 175.36 150.22 175.36C150.924 175.36 151.596 175.328 152.236 175.264C152.876 175.179 153.463 175.061 153.996 174.912ZM146.796 183.04C147.735 183.04 148.588 183.243 149.356 183.648C150.146 184.053 150.7 184.736 151.02 185.696L150.636 186.048C150.338 185.28 149.9 184.725 149.324 184.384C148.748 184.021 148.098 183.84 147.372 183.84C146.156 183.84 145.164 184.491 144.396 185.792C143.628 187.072 143.255 189.056 143.276 191.744C143.276 193.515 143.426 194.965 143.724 196.096C144.023 197.205 144.46 198.027 145.036 198.56C145.634 199.093 146.348 199.36 147.18 199.36C148.012 199.36 148.759 199.008 149.42 198.304C150.103 197.6 150.508 196.587 150.636 195.264L150.924 195.936C150.711 197.387 150.199 198.507 149.388 199.296C148.578 200.064 147.49 200.448 146.124 200.448C144.823 200.448 143.671 200.139 142.668 199.52C141.687 198.88 140.93 197.92 140.396 196.64C139.863 195.339 139.596 193.707 139.596 191.744C139.596 189.803 139.916 188.192 140.556 186.912C141.218 185.611 142.092 184.64 143.18 184C144.268 183.36 145.474 183.04 146.796 183.04ZM165.738 183.04C167.615 183.04 169.087 183.605 170.154 184.736C171.22 185.867 171.754 187.659 171.754 190.112H160.714L160.65 189.504H168.362C168.383 188.459 168.298 187.499 168.106 186.624C167.914 185.728 167.615 185.013 167.21 184.48C166.804 183.947 166.271 183.68 165.61 183.68C164.692 183.68 163.892 184.171 163.21 185.152C162.548 186.112 162.143 187.659 161.994 189.792L162.09 189.952C162.068 190.251 162.047 190.581 162.026 190.944C162.004 191.285 161.994 191.627 161.994 191.968C161.994 193.44 162.218 194.677 162.666 195.68C163.114 196.683 163.7 197.44 164.426 197.952C165.151 198.443 165.887 198.688 166.634 198.688C167.21 198.688 167.764 198.603 168.298 198.432C168.852 198.24 169.375 197.931 169.866 197.504C170.356 197.056 170.794 196.448 171.178 195.68L171.818 195.936C171.562 196.661 171.167 197.376 170.634 198.08C170.1 198.784 169.418 199.36 168.586 199.808C167.754 200.235 166.783 200.448 165.674 200.448C164.18 200.448 162.879 200.117 161.77 199.456C160.66 198.773 159.807 197.803 159.21 196.544C158.612 195.285 158.314 193.792 158.314 192.064C158.314 190.165 158.623 188.544 159.242 187.2C159.86 185.856 160.724 184.832 161.834 184.128C162.964 183.403 164.266 183.04 165.738 183.04ZM185.031 183.04C185.885 183.04 186.578 183.157 187.111 183.392C187.666 183.605 188.125 183.904 188.487 184.288C188.871 184.693 189.138 185.216 189.287 185.856C189.458 186.496 189.543 187.36 189.543 188.448V197.024C189.543 197.92 189.714 198.528 190.055 198.848C190.418 199.168 191.015 199.328 191.847 199.328V200C191.485 199.979 190.919 199.957 190.151 199.936C189.383 199.893 188.626 199.872 187.879 199.872C187.154 199.872 186.429 199.893 185.703 199.936C184.999 199.957 184.466 199.979 184.103 200V199.328C184.829 199.328 185.341 199.168 185.639 198.848C185.938 198.528 186.087 197.92 186.087 197.024V187.552C186.087 186.933 186.034 186.379 185.927 185.888C185.821 185.376 185.597 184.971 185.255 184.672C184.914 184.352 184.402 184.192 183.719 184.192C182.93 184.192 182.226 184.416 181.607 184.864C181.01 185.312 180.53 185.931 180.167 186.72C179.826 187.488 179.655 188.352 179.655 189.312V197.024C179.655 197.92 179.805 198.528 180.103 198.848C180.423 199.168 180.935 199.328 181.639 199.328V200C181.298 199.979 180.775 199.957 180.071 199.936C179.389 199.893 178.674 199.872 177.927 199.872C177.202 199.872 176.445 199.893 175.655 199.936C174.866 199.957 174.279 199.979 173.895 200V199.328C174.727 199.328 175.314 199.168 175.655 198.848C176.018 198.528 176.199 197.92 176.199 197.024V186.976C176.199 186.016 176.039 185.312 175.719 184.864C175.399 184.395 174.791 184.16 173.895 184.16V183.488C174.578 183.552 175.239 183.584 175.879 183.584C176.605 183.584 177.277 183.552 177.895 183.488C178.535 183.403 179.122 183.285 179.655 183.136V186.624C180.21 185.301 180.967 184.373 181.927 183.84C182.909 183.307 183.943 183.04 185.031 183.04Z" fill="#251B11"/>
<g clip-path="url(#clip0_329_1142)">
<path d="M94.0156 126.079C92.3542 126.248 90.7027 126.557 89.0413 126.557C59.6926 126.587 30.3438 126.577 0.995117 126.577" stroke="#251B11" stroke-width="2" stroke-linecap="round" stroke-linejoin="round"/>
<path d="M193.005 126.577C189.523 126.577 186.011 126.836 182.569 126.497C179.385 126.189 176.291 124.994 173.108 124.636C166.989 123.949 160.851 123.292 154.703 123.163C147.251 123.014 139.78 123.362 132.318 123.601C124.021 123.87 115.734 124.278 107.446 124.566C104.8 124.656 102.144 124.576 99.4873 124.576" stroke="#251B11" stroke-width="2" stroke-linecap="round" stroke-linejoin="round"/>
<path d="M93.5183 120.605C89.8671 120.277 86.2259 119.789 82.5747 119.64C72.2977 119.221 61.9411 118.057 51.7536 118.893C43.3071 119.58 34.4527 118.137 26.3246 122.028C25.2502 122.546 23.7081 122.098 22.375 122.098" stroke="#251B11" stroke-width="2" stroke-linecap="round" stroke-linejoin="round"/>
<path d="M111.426 117.619C116.897 116.793 122.349 115.807 127.841 115.16C140.615 113.658 153.429 111.906 166.124 115.678C168.163 116.285 170.004 117.559 171.794 119.142C149.012 119.59 126.319 118.614 103.954 123.093" stroke="#251B11" stroke-width="2" stroke-linecap="round" stroke-linejoin="round"/>
<path d="M95.5079 125.581C91.5284 124.586 87.5788 122.894 83.5595 122.715C68.9846 122.068 54.3799 121.869 39.7851 121.63C35.8057 121.56 31.8262 121.928 27.8467 122.088" stroke="#251B11" stroke-width="2" stroke-linecap="round" stroke-linejoin="round"/>
<path d="M86.0562 118.117C73.3915 115.688 60.5775 115.081 47.7636 115.738C39.1082 116.176 30.5025 117.569 21.8969 118.694C20.8324 118.833 19.8972 119.948 18.9023 120.615" stroke="#251B11" stroke-width="2" stroke-linecap="round" stroke-linejoin="round"/>
<path d="M174.6 126.079C166.313 126.408 158.016 127.035 149.729 127.005C138.616 126.965 127.513 126.418 116.4 126.079" stroke="#251B11" stroke-width="2" stroke-linecap="round" stroke-linejoin="round"/>
<path d="M26.8613 111.149C36.6409 111.149 46.4504 110.771 56.2001 111.269C64.1889 111.677 72.128 113.09 80.077 114.175C81.9374 114.424 83.7282 115.131 85.5488 115.628" stroke="#251B11" stroke-width="2" stroke-linecap="round" stroke-linejoin="round"/>
<path d="M82.0771 110.154H84.5643C84.6041 109.806 84.6538 109.457 84.6936 109.099C76.0283 107.297 67.2535 105.894 58.7274 103.575C48.7588 100.868 40.2925 104.321 31.846 108.681C31.2491 108.989 30.8412 109.656 30.3438 110.154" stroke="#251B11" stroke-width="2" stroke-linecap="round" stroke-linejoin="round"/>
<path d="M45.2671 112.145C37.7956 113.01 30.3042 113.817 23.3799 117.121" stroke="#251B11" stroke-width="2" stroke-linecap="round" stroke-linejoin="round"/>
<path d="M69.144 87.7593C69.2634 88.5953 69.3927 89.4314 69.5121 90.2476C67.2637 90.785 64.8859 91.3623 61.8516 92.0889C63.6722 94.627 64.9158 96.3489 66.7463 98.9068C67.6218 97.1949 68.1292 96.2095 68.1193 96.2195H75.6007" stroke="#251B11" stroke-width="2" stroke-linecap="round" stroke-linejoin="round"/>
<path d="M100.482 65.8622C99.5965 64.4489 98.721 63.0355 97.4476 60.9951C94.6023 62.5677 92.0952 64.0109 89.5284 65.3347C88.8022 65.703 87.867 65.912 87.0612 65.8224C84.7332 65.5835 83.6786 66.6187 83.5791 68.8482" stroke="#251B11" stroke-width="2" stroke-linecap="round" stroke-linejoin="round"/>
<path d="M75.1125 75.3179C74.8141 76.781 74.5256 78.2541 74.3763 78.9408C76.2368 80.4039 77.54 81.4291 78.9925 82.5638C76.774 84.4051 75.5403 84.1264 74.5256 81.8272C74.2669 81.24 72.9537 81.1305 72.1279 80.7921" stroke="#251B11" stroke-width="2" stroke-linecap="round" stroke-linejoin="round"/>
<path d="M121.374 95.2241C120.21 94.398 119.056 93.562 117.892 92.7358C117.693 92.8652 117.504 92.9847 117.305 93.1141C117.902 94.0497 118.509 94.9952 119.116 95.9408C113.714 100.31 109.247 95.7915 104.332 93.2634C105.038 93.0842 105.824 92.6463 106.411 92.8354C106.76 92.9449 106.779 94.0596 106.939 94.7265" stroke="#251B11" stroke-width="2" stroke-linecap="round" stroke-linejoin="round"/>
<path d="M92.0254 107.168C92.3736 108.492 92.7119 109.816 93.2391 111.836C95.4776 111.279 97.726 110.711 99.9844 110.154" stroke="#251B11" stroke-width="2" stroke-linecap="round" stroke-linejoin="round"/>
<path d="M122.369 89.75C124.478 91.0539 126.587 92.3577 129.323 94.0498C127.542 94.647 126.697 94.9356 125.851 95.2242" stroke="#251B11" stroke-width="2" stroke-linecap="round" stroke-linejoin="round"/>
<path d="M92.5228 96.2197C92.3537 99.0365 92.1945 101.863 92.0254 104.68" stroke="#251B11" stroke-width="2" stroke-linecap="round" stroke-linejoin="round"/>
<path d="M106.949 95.7218C106.312 96.4185 105.685 97.1053 105.078 97.7721C103.129 96.8863 101.308 96.0602 99.4873 95.2241" stroke="#251B11" stroke-width="2" stroke-linecap="round" stroke-linejoin="round"/>
<path d="M86.5537 81.7876C89.1006 83.5294 91.6475 85.2712 94.4232 87.1723C93.1696 88.8643 92.0951 90.2976 91.0306 91.7408" stroke="#251B11" stroke-width="2" stroke-linecap="round" stroke-linejoin="round"/>
<path d="M98.4918 94.7266C97.3278 96.7172 96.1738 98.7078 95.0098 100.698" stroke="#251B11" stroke-width="2" stroke-linecap="round" stroke-linejoin="round"/>
<path d="M87.0515 110.652C89.0313 111.916 91.0211 113.17 93.0008 114.434C92.7322 114.872 92.4736 115.31 92.2049 115.758C90.1555 114.553 88.1061 113.349 86.0566 112.145" stroke="#251B11" stroke-width="2" stroke-linecap="round" stroke-linejoin="round"/>
<path d="M112.918 77.3086C112.619 76.791 112.311 76.2735 111.336 74.6113C110.848 76.9901 110.58 78.3238 110.311 79.6675C110.629 79.8168 110.938 79.9761 111.256 80.1254C112.51 78.8115 113.753 77.5077 115.614 75.5569C113.922 73.5563 111.943 71.2173 109.814 68.7091C108.918 69.1271 107.983 69.565 107.157 69.9532C104.67 68.6195 103.844 64.469 99.9941 66.3601" stroke="#251B11" stroke-width="2" stroke-linecap="round" stroke-linejoin="round"/>
<path d="M95.01 96.2196C91.0206 96.5779 87.0311 96.9462 82.8427 97.3244C82.7233 96.7172 82.5243 95.702 82.1463 93.791C80.9922 95.1347 80.3058 95.9309 79.3606 97.0158C78.2862 96.2594 77.2018 95.493 76.1074 94.7167" stroke="#251B11" stroke-width="2" stroke-linecap="round" stroke-linejoin="round"/>
<path d="M89.5381 105.177C86.8818 105.844 84.2354 106.501 81.5791 107.168" stroke="#251B11" stroke-width="2" stroke-linecap="round" stroke-linejoin="round"/>
<path d="M24.3739 123.093C22.215 123.262 20.0661 123.422 17.9072 123.591" stroke="#251B11" stroke-width="2" stroke-linecap="round" stroke-linejoin="round"/>
<path d="M97 98.708V107.666" stroke="#251B11" stroke-width="2" stroke-linecap="round" stroke-linejoin="round"/>
<path d="M86.5542 71.3368C84.644 69.9732 82.7239 68.5996 80.6944 67.1465C78.9534 67.9129 76.7845 68.8783 74.2178 70.013C74.8644 71.3069 75.4912 72.561 76.118 73.8251" stroke="#251B11" stroke-width="2" stroke-linecap="round" stroke-linejoin="round"/>
<path d="M73.1232 83.2803C71.601 83.6585 70.0789 84.0367 68.7656 84.3652C69.283 86.2165 69.7108 87.7393 70.1385 89.2522" stroke="#251B11" stroke-width="2" stroke-linecap="round" stroke-linejoin="round"/>
<path d="M117.395 81.7874C117.564 81.2897 117.733 80.792 118.141 79.5977C119.195 82.5239 120.071 84.9624 120.618 86.4852C122.458 86.8635 123.513 86.8834 124.319 87.3412C124.727 87.5701 124.697 88.5953 124.856 89.2522" stroke="#251B11" stroke-width="2" stroke-linecap="round" stroke-linejoin="round"/>
<path d="M76.6055 87.7593C82.6244 89.3816 88.6434 91.004 94.8216 92.6662C94.4236 93.9203 94.2246 94.5772 94.0157 95.2241" stroke="#251B11" stroke-width="2" stroke-linecap="round" stroke-linejoin="round"/>
<path d="M98.9902 86.2666C100.313 87.4311 101.637 88.5956 103.378 90.1185C101.716 90.5465 100.353 90.8948 98.9902 91.2432" stroke="#251B11" stroke-width="2" stroke-linecap="round" stroke-linejoin="round"/>
<path d="M123.364 93.7314C124.448 94.6372 125.543 95.5429 126.627 96.4387C126.508 96.9065 126.378 97.3743 126.259 97.8421C124.13 97.6331 122.011 97.4241 119.882 97.2151" stroke="#251B11" stroke-width="2" stroke-linecap="round" stroke-linejoin="round"/>
<path d="M91.5283 82.2852C92.9609 85.9181 96.6221 83.9871 98.9899 85.2711" stroke="#251B11" stroke-width="2" stroke-linecap="round" stroke-linejoin="round"/>
<path d="M90.533 86.764C88.8715 86.2663 87.22 85.7687 85.5586 85.271" stroke="#251B11" stroke-width="2" stroke-linecap="round" stroke-linejoin="round"/>
<path d="M102.969 112.642C100.979 113.807 98.9897 114.961 97 116.126" stroke="#251B11" stroke-width="2" stroke-linecap="round" stroke-linejoin="round"/>
<path d="M81.5791 83.7783C84.126 84.5447 86.3644 85.6197 86.5535 88.7549" stroke="#251B11" stroke-width="2" stroke-linecap="round" stroke-linejoin="round"/>
<path d="M103.964 108.661C103.019 109.109 102.083 109.547 100.73 110.194V107.297C99.8848 106.879 98.6909 106.282 97.4971 105.685" stroke="#251B11" stroke-width="2" stroke-linecap="round" stroke-linejoin="round"/>
<path d="M99.9842 108.661H93.5176" stroke="#251B11" stroke-width="2" stroke-linecap="round" stroke-linejoin="round"/>
<path d="M101.477 107.168C102.969 107.676 104.451 108.173 106.083 108.731C108.65 103.167 114.519 103.923 118.937 102.948C127.532 101.067 136.436 100.31 145.251 99.8623C149.569 99.6433 153.966 101.156 158.333 101.883C158.294 102.311 158.254 102.729 158.214 103.157C149.081 103.664 139.948 104.172 130.815 104.68C121.085 105.227 112.171 108.591 103.357 112.314C103.446 112.732 103.536 113.15 103.625 113.568C106.55 112.931 109.644 112.692 112.38 111.577C124.07 106.82 136.416 106.232 148.723 105.804C154.603 105.595 160.582 106.571 166.223 111.647C156.851 111.647 148.514 111.139 140.267 111.776C130.606 112.533 121.026 114.294 111.405 115.638C111.216 115.668 110.978 115.927 110.928 116.126C110.848 116.434 110.908 116.783 110.908 117.111" stroke="#251B11" stroke-width="2" stroke-linecap="round" stroke-linejoin="round"/>
<path d="M79.5896 74.3228C78.4057 74.8304 77.2218 75.338 76.0479 75.8356L75.5703 74.3228H77.5999" stroke="#251B11" stroke-width="2" stroke-linecap="round" stroke-linejoin="round"/>
<path d="M97 89.75C97.1691 90.4169 97.3283 91.0738 97.4974 91.7406C97.8257 91.5714 98.4525 91.3923 98.4426 91.243C98.4127 90.7354 98.164 90.2477 97.9949 89.75" stroke="#251B11" stroke-width="2" stroke-linecap="round" stroke-linejoin="round"/>
<path d="M113.415 78.3037C114.579 78.6322 115.733 78.9706 116.897 79.299" stroke="#251B11" stroke-width="2" stroke-linecap="round" stroke-linejoin="round"/>
<path d="M70.6357 79.7969C70.964 80.9614 71.3023 82.116 71.6306 83.2805" stroke="#251B11" stroke-width="2" stroke-linecap="round" stroke-linejoin="round"/>
<path d="M96.9998 92.2383C96.8306 92.5667 96.6118 92.8852 96.5322 93.2436C96.5023 93.363 96.8306 93.572 96.9998 93.7313" stroke="#251B11" stroke-width="2" stroke-linecap="round" stroke-linejoin="round"/>
<path d="M85.0615 109.656C85.3898 110.154 85.7281 110.652 86.0564 111.149" stroke="#251B11" stroke-width="2" stroke-linecap="round" stroke-linejoin="round"/>
<path d="M84.0664 111.149H86.0561" stroke="#251B11" stroke-width="2" stroke-linecap="round" stroke-linejoin="round"/>
<path d="M100.979 86.2666C101.149 86.5951 101.367 86.9136 101.447 87.2719C101.477 87.3913 101.149 87.6003 100.979 87.7596" stroke="#251B11" stroke-width="2" stroke-linecap="round" stroke-linejoin="round"/>
</g>
<defs>
<clipPath id="clip0_329_1142">
<rect width="194" height="68" fill="white" transform="translate(0 60)"/>
</clipPath>
</defs>
</svg>
