<svg width="105" height="71" viewBox="0 0 105 71" fill="none" xmlns="http://www.w3.org/2000/svg">
<path d="M3.232 65.024C2.832 65.024 2.46133 64.952 2.12 64.808C1.77867 64.664 1.48 64.464 1.224 64.208C0.968 63.9467 0.768 63.6453 0.624 63.304C0.485333 62.9627 0.416 62.5947 0.416 62.2C0.416 61.8053 0.488 61.4373 0.632 61.096C0.776 60.7547 0.976 60.456 1.232 60.2C1.488 59.9387 1.78667 59.736 2.128 59.592C2.47467 59.448 2.848 59.376 3.248 59.376C3.648 59.376 4.01867 59.448 4.36 59.592C4.70667 59.7307 5.00533 59.928 5.256 60.184C5.512 60.44 5.70933 60.7387 5.848 61.08C5.992 61.416 6.064 61.784 6.064 62.184C6.064 62.584 5.992 62.9573 5.848 63.304C5.704 63.6453 5.50133 63.9467 5.24 64.208C4.984 64.464 4.68533 64.664 4.344 64.808C4.00267 64.952 3.632 65.024 3.232 65.024ZM3.224 64.728C3.58667 64.728 3.92 64.664 4.224 64.536C4.528 64.4027 4.79467 64.2213 5.024 63.992C5.25867 63.7627 5.44 63.4933 5.568 63.184C5.696 62.8693 5.76 62.536 5.76 62.184C5.76 61.8267 5.696 61.496 5.568 61.192C5.44533 60.888 5.26933 60.6213 5.04 60.392C4.816 60.1627 4.54933 59.9867 4.24 59.864C3.936 59.736 3.60533 59.672 3.248 59.672C2.88533 59.672 2.54933 59.736 2.24 59.864C1.93067 59.992 1.66133 60.1733 1.432 60.408C1.208 60.6373 1.032 60.904 0.904 61.208C0.776 61.512 0.712 61.8427 0.712 62.2C0.712 62.552 0.776 62.8827 0.904 63.192C1.032 63.496 1.208 63.7653 1.432 64C1.66133 64.2293 1.928 64.408 2.232 64.536C2.54133 64.664 2.872 64.728 3.224 64.728ZM3.304 63.864C2.984 63.864 2.69867 63.7947 2.448 63.656C2.19733 63.512 2 63.3147 1.856 63.064C1.712 62.8133 1.64 62.5253 1.64 62.2C1.64 61.8747 1.712 61.5867 1.856 61.336C2 61.0853 2.19733 60.8907 2.448 60.752C2.69867 60.608 2.984 60.536 3.304 60.536C3.576 60.536 3.82133 60.592 4.04 60.704C4.264 60.8107 4.44267 60.96 4.576 61.152L4.232 61.408C4.12 61.2533 3.984 61.1387 3.824 61.064C3.664 60.9893 3.488 60.952 3.296 60.952C3.06667 60.952 2.86133 61.0053 2.68 61.112C2.504 61.2133 2.36267 61.3573 2.256 61.544C2.14933 61.7307 2.096 61.9493 2.096 62.2C2.096 62.4507 2.14933 62.6693 2.256 62.856C2.36267 63.0427 2.504 63.1893 2.68 63.296C2.86133 63.3973 3.06667 63.448 3.296 63.448C3.488 63.448 3.664 63.4107 3.824 63.336C3.984 63.2613 4.12 63.1467 4.232 62.992L4.576 63.24C4.44267 63.4373 4.264 63.592 4.04 63.704C3.82133 63.8107 3.576 63.864 3.304 63.864ZM8.8745 65V64.592L11.2025 62.312C11.4158 62.104 11.5758 61.9227 11.6825 61.768C11.7892 61.608 11.8612 61.4587 11.8985 61.32C11.9358 61.1813 11.9545 61.0507 11.9545 60.928C11.9545 60.6027 11.8425 60.3467 11.6185 60.16C11.3998 59.9733 11.0745 59.88 10.6425 59.88C10.3118 59.88 10.0185 59.9307 9.7625 60.032C9.51183 60.1333 9.29583 60.2907 9.1145 60.504L8.7065 60.152C8.92517 59.896 9.20517 59.6987 9.5465 59.56C9.88783 59.4213 10.2692 59.352 10.6905 59.352C11.0692 59.352 11.3972 59.4133 11.6745 59.536C11.9518 59.6533 12.1652 59.8267 12.3145 60.056C12.4692 60.2853 12.5465 60.5547 12.5465 60.864C12.5465 61.0453 12.5198 61.224 12.4665 61.4C12.4185 61.576 12.3278 61.7627 12.1945 61.96C12.0665 62.152 11.8772 62.3707 11.6265 62.616L9.4905 64.712L9.3305 64.488H12.8025V65H8.8745ZM15.7418 65.048C15.3098 65.048 14.9258 64.936 14.5898 64.712C14.2538 64.4827 13.9898 64.1573 13.7978 63.736C13.6058 63.3093 13.5098 62.7973 13.5098 62.2C13.5098 61.6027 13.6058 61.0933 13.7978 60.672C13.9898 60.2453 14.2538 59.92 14.5898 59.696C14.9258 59.4667 15.3098 59.352 15.7418 59.352C16.1738 59.352 16.5578 59.4667 16.8938 59.696C17.2298 59.92 17.4938 60.2453 17.6858 60.672C17.8831 61.0933 17.9818 61.6027 17.9818 62.2C17.9818 62.7973 17.8831 63.3093 17.6858 63.736C17.4938 64.1573 17.2298 64.4827 16.8938 64.712C16.5578 64.936 16.1738 65.048 15.7418 65.048ZM15.7418 64.52C16.0724 64.52 16.3604 64.432 16.6058 64.256C16.8511 64.0747 17.0431 63.8133 17.1818 63.472C17.3204 63.1253 17.3898 62.7013 17.3898 62.2C17.3898 61.6987 17.3204 61.2773 17.1818 60.936C17.0431 60.5893 16.8511 60.328 16.6058 60.152C16.3604 59.9707 16.0724 59.88 15.7418 59.88C15.4218 59.88 15.1364 59.9707 14.8858 60.152C14.6351 60.328 14.4404 60.5893 14.3018 60.936C14.1631 61.2773 14.0938 61.6987 14.0938 62.2C14.0938 62.7013 14.1631 63.1253 14.3018 63.472C14.4404 63.8133 14.6351 64.0747 14.8858 64.256C15.1364 64.432 15.4218 64.52 15.7418 64.52ZM18.7026 65V64.592L21.0306 62.312C21.244 62.104 21.404 61.9227 21.5106 61.768C21.6173 61.608 21.6893 61.4587 21.7266 61.32C21.764 61.1813 21.7826 61.0507 21.7826 60.928C21.7826 60.6027 21.6706 60.3467 21.4466 60.16C21.228 59.9733 20.9026 59.88 20.4706 59.88C20.14 59.88 19.8466 59.9307 19.5906 60.032C19.34 60.1333 19.124 60.2907 18.9426 60.504L18.5346 60.152C18.7533 59.896 19.0333 59.6987 19.3746 59.56C19.716 59.4213 20.0973 59.352 20.5186 59.352C20.8973 59.352 21.2253 59.4133 21.5026 59.536C21.78 59.6533 21.9933 59.8267 22.1426 60.056C22.2973 60.2853 22.3746 60.5547 22.3746 60.864C22.3746 61.0453 22.348 61.224 22.2946 61.4C22.2466 61.576 22.156 61.7627 22.0226 61.96C21.8946 62.152 21.7053 62.3707 21.4546 62.616L19.3186 64.712L19.1586 64.488H22.6306V65H18.7026ZM23.0778 63.528V63.112L26.0458 59.4H26.6858L23.7418 63.112L23.4298 63.016H27.9338V63.528H23.0778ZM26.2378 65V63.528L26.2538 63.016V61.72H26.8138V65H26.2378ZM32.5966 65.048C32.1806 65.048 31.7806 64.9813 31.3966 64.848C31.018 64.7093 30.7246 64.5333 30.5166 64.32L30.7486 63.864C30.946 64.056 31.21 64.2187 31.5406 64.352C31.8766 64.48 32.2286 64.544 32.5966 64.544C32.9486 64.544 33.234 64.5013 33.4526 64.416C33.6766 64.3253 33.8393 64.2053 33.9406 64.056C34.0473 63.9067 34.1006 63.7413 34.1006 63.56C34.1006 63.3413 34.0366 63.1653 33.9086 63.032C33.786 62.8987 33.6233 62.7947 33.4206 62.72C33.218 62.64 32.994 62.5707 32.7486 62.512C32.5033 62.4533 32.258 62.392 32.0126 62.328C31.7673 62.2587 31.5406 62.168 31.3326 62.056C31.13 61.944 30.9646 61.7973 30.8366 61.616C30.714 61.4293 30.6526 61.1867 30.6526 60.888C30.6526 60.6107 30.7246 60.3573 30.8686 60.128C31.018 59.8933 31.2446 59.7067 31.5486 59.568C31.8526 59.424 32.242 59.352 32.7166 59.352C33.0313 59.352 33.3433 59.3973 33.6526 59.488C33.962 59.5733 34.2286 59.6933 34.4526 59.848L34.2526 60.32C34.0126 60.16 33.7566 60.0427 33.4846 59.968C33.218 59.8933 32.9593 59.856 32.7086 59.856C32.3726 59.856 32.0953 59.9013 31.8766 59.992C31.658 60.0827 31.4953 60.2053 31.3886 60.36C31.2873 60.5093 31.2366 60.68 31.2366 60.872C31.2366 61.0907 31.298 61.2667 31.4206 61.4C31.5486 61.5333 31.714 61.6373 31.9166 61.712C32.1246 61.7867 32.3513 61.8533 32.5966 61.912C32.842 61.9707 33.0846 62.0347 33.3246 62.104C33.57 62.1733 33.794 62.264 33.9966 62.376C34.2046 62.4827 34.37 62.6267 34.4926 62.808C34.6206 62.9893 34.6846 63.2267 34.6846 63.52C34.6846 63.792 34.61 64.0453 34.4606 64.28C34.3113 64.5093 34.082 64.696 33.7726 64.84C33.4686 64.9787 33.0766 65.048 32.5966 65.048ZM37.5905 65.04C37.2332 65.04 36.9212 64.9733 36.6545 64.84C36.3878 64.7067 36.1798 64.5067 36.0305 64.24C35.8865 63.9733 35.8145 63.64 35.8145 63.24V60.8H36.3825V63.176C36.3825 63.624 36.4918 63.9627 36.7105 64.192C36.9345 64.416 37.2465 64.528 37.6465 64.528C37.9398 64.528 38.1932 64.4693 38.4065 64.352C38.6252 64.2293 38.7905 64.0533 38.9025 63.824C39.0198 63.5947 39.0785 63.32 39.0785 63V60.8H39.6465V65H39.1025V63.848L39.1905 64.056C39.0572 64.3653 38.8492 64.608 38.5665 64.784C38.2892 64.9547 37.9638 65.04 37.5905 65.04ZM42.3575 65.04C42.0108 65.04 41.6828 64.992 41.3735 64.896C41.0642 64.7947 40.8215 64.6693 40.6455 64.52L40.9015 64.072C41.0722 64.2 41.2908 64.312 41.5575 64.408C41.8242 64.4987 42.1042 64.544 42.3975 64.544C42.7975 64.544 43.0855 64.4827 43.2615 64.36C43.4375 64.232 43.5255 64.064 43.5255 63.856C43.5255 63.7013 43.4748 63.5813 43.3735 63.496C43.2775 63.4053 43.1495 63.3387 42.9895 63.296C42.8295 63.248 42.6508 63.208 42.4535 63.176C42.2562 63.144 42.0588 63.1067 41.8615 63.064C41.6695 63.0213 41.4935 62.96 41.3335 62.88C41.1735 62.7947 41.0428 62.68 40.9415 62.536C40.8455 62.392 40.7975 62.2 40.7975 61.96C40.7975 61.7307 40.8615 61.5253 40.9895 61.344C41.1175 61.1627 41.3042 61.0213 41.5495 60.92C41.8002 60.8133 42.1042 60.76 42.4615 60.76C42.7335 60.76 43.0055 60.7973 43.2775 60.872C43.5495 60.9413 43.7735 61.0347 43.9495 61.152L43.7015 61.608C43.5148 61.48 43.3148 61.3893 43.1015 61.336C42.8882 61.2773 42.6748 61.248 42.4615 61.248C42.0828 61.248 41.8028 61.3147 41.6215 61.448C41.4455 61.576 41.3575 61.7413 41.3575 61.944C41.3575 62.104 41.4055 62.2293 41.5015 62.32C41.6028 62.4107 41.7335 62.4827 41.8935 62.536C42.0588 62.584 42.2375 62.624 42.4295 62.656C42.6268 62.688 42.8215 62.728 43.0135 62.776C43.2108 62.8187 43.3895 62.88 43.5495 62.96C43.7148 63.0347 43.8455 63.144 43.9415 63.288C44.0428 63.4267 44.0935 63.6107 44.0935 63.84C44.0935 64.0853 44.0242 64.2987 43.8855 64.48C43.7522 64.656 43.5548 64.7947 43.2935 64.896C43.0375 64.992 42.7255 65.04 42.3575 65.04ZM46.4638 65.04C46.0691 65.04 45.7651 64.9333 45.5518 64.72C45.3384 64.5067 45.2318 64.2053 45.2318 63.816V59.872H45.7998V63.784C45.7998 64.0293 45.8611 64.2187 45.9838 64.352C46.1118 64.4853 46.2931 64.552 46.5278 64.552C46.7784 64.552 46.9864 64.48 47.1518 64.336L47.3518 64.744C47.2398 64.8453 47.1038 64.92 46.9438 64.968C46.7891 65.016 46.6291 65.04 46.4638 65.04ZM44.4798 61.272V60.8H47.0798V61.272H44.4798ZM51.0178 65V64.072L50.9938 63.92V62.368C50.9938 62.0107 50.8924 61.736 50.6898 61.544C50.4924 61.352 50.1964 61.256 49.8018 61.256C49.5298 61.256 49.2711 61.3013 49.0258 61.392C48.7804 61.4827 48.5724 61.6027 48.4018 61.752L48.1458 61.328C48.3591 61.1467 48.6151 61.008 48.9138 60.912C49.2124 60.8107 49.5271 60.76 49.8578 60.76C50.4018 60.76 50.8204 60.896 51.1138 61.168C51.4124 61.4347 51.5618 61.8427 51.5618 62.392V65H51.0178ZM49.5698 65.04C49.2551 65.04 48.9804 64.9893 48.7458 64.888C48.5164 64.7813 48.3404 64.6373 48.2178 64.456C48.0951 64.2693 48.0338 64.056 48.0338 63.816C48.0338 63.5973 48.0844 63.4 48.1858 63.224C48.2924 63.0427 48.4631 62.8987 48.6978 62.792C48.9378 62.68 49.2578 62.624 49.6578 62.624H51.1058V63.048H49.6738C49.2684 63.048 48.9858 63.12 48.8258 63.264C48.6711 63.408 48.5938 63.5867 48.5938 63.8C48.5938 64.04 48.6871 64.232 48.8738 64.376C49.0604 64.52 49.3218 64.592 49.6578 64.592C49.9778 64.592 50.2524 64.52 50.4818 64.376C50.7164 64.2267 50.8871 64.0133 50.9938 63.736L51.1218 64.128C51.0151 64.4053 50.8284 64.6267 50.5618 64.792C50.3004 64.9573 49.9698 65.04 49.5698 65.04ZM53.1045 65V60.8H53.6725V65H53.1045ZM53.3925 59.872C53.2752 59.872 53.1765 59.832 53.0965 59.752C53.0165 59.672 52.9765 59.576 52.9765 59.464C52.9765 59.352 53.0165 59.2587 53.0965 59.184C53.1765 59.104 53.2752 59.064 53.3925 59.064C53.5098 59.064 53.6085 59.1013 53.6885 59.176C53.7685 59.2507 53.8085 59.344 53.8085 59.456C53.8085 59.5733 53.7685 59.672 53.6885 59.752C53.6138 59.832 53.5152 59.872 53.3925 59.872ZM57.3969 60.76C57.7383 60.76 58.0369 60.8267 58.2929 60.96C58.5543 61.088 58.7569 61.2853 58.9009 61.552C59.0503 61.8187 59.1249 62.1547 59.1249 62.56V65H58.5569V62.616C58.5569 62.1733 58.4449 61.84 58.2209 61.616C58.0023 61.3867 57.6929 61.272 57.2929 61.272C56.9943 61.272 56.7329 61.3333 56.5089 61.456C56.2903 61.5733 56.1196 61.7467 55.9969 61.976C55.8796 62.2 55.8209 62.472 55.8209 62.792V65H55.2529V60.8H55.7969V61.952L55.7089 61.736C55.8423 61.432 56.0556 61.1947 56.3489 61.024C56.6423 60.848 56.9916 60.76 57.3969 60.76ZM63.2912 65V64.072L63.2672 63.92V62.368C63.2672 62.0107 63.1659 61.736 62.9632 61.544C62.7659 61.352 62.4699 61.256 62.0752 61.256C61.8032 61.256 61.5445 61.3013 61.2992 61.392C61.0539 61.4827 60.8459 61.6027 60.6752 61.752L60.4192 61.328C60.6325 61.1467 60.8885 61.008 61.1872 60.912C61.4859 60.8107 61.8005 60.76 62.1312 60.76C62.6752 60.76 63.0939 60.896 63.3872 61.168C63.6859 61.4347 63.8352 61.8427 63.8352 62.392V65H63.2912ZM61.8432 65.04C61.5285 65.04 61.2539 64.9893 61.0192 64.888C60.7899 64.7813 60.6139 64.6373 60.4912 64.456C60.3685 64.2693 60.3072 64.056 60.3072 63.816C60.3072 63.5973 60.3579 63.4 60.4592 63.224C60.5659 63.0427 60.7365 62.8987 60.9712 62.792C61.2112 62.68 61.5312 62.624 61.9312 62.624H63.3792V63.048H61.9472C61.5419 63.048 61.2592 63.12 61.0992 63.264C60.9445 63.408 60.8672 63.5867 60.8672 63.8C60.8672 64.04 60.9605 64.232 61.1472 64.376C61.3339 64.52 61.5952 64.592 61.9312 64.592C62.2512 64.592 62.5259 64.52 62.7552 64.376C62.9899 64.2267 63.1605 64.0133 63.2672 63.736L63.3952 64.128C63.2885 64.4053 63.1019 64.6267 62.8352 64.792C62.5739 64.9573 62.2432 65.04 61.8432 65.04ZM67.5459 65.04C67.1779 65.04 66.8473 64.9573 66.5539 64.792C66.2606 64.6213 66.0286 64.376 65.8579 64.056C65.6873 63.736 65.6019 63.3493 65.6019 62.896C65.6019 62.4373 65.6873 62.0507 65.8579 61.736C66.0339 61.416 66.2686 61.1733 66.5619 61.008C66.8553 60.8427 67.1833 60.76 67.5459 60.76C67.9459 60.76 68.3033 60.8507 68.6179 61.032C68.9379 61.208 69.1886 61.456 69.3699 61.776C69.5513 62.096 69.6419 62.4693 69.6419 62.896C69.6419 63.3173 69.5513 63.6907 69.3699 64.016C69.1886 64.336 68.9379 64.5867 68.6179 64.768C68.3033 64.9493 67.9459 65.04 67.5459 65.04ZM65.3779 65V59.064H65.9459V62.04L65.8659 62.888L65.9219 63.736V65H65.3779ZM67.5059 64.536C67.8046 64.536 68.0713 64.4693 68.3059 64.336C68.5406 64.1973 68.7273 64.0053 68.8659 63.76C69.0046 63.5093 69.0739 63.2213 69.0739 62.896C69.0739 62.5653 69.0046 62.2773 68.8659 62.032C68.7273 61.7867 68.5406 61.5973 68.3059 61.464C68.0713 61.3253 67.8046 61.256 67.5059 61.256C67.2073 61.256 66.9379 61.3253 66.6979 61.464C66.4633 61.5973 66.2766 61.7867 66.1379 62.032C66.0046 62.2773 65.9379 62.5653 65.9379 62.896C65.9379 63.2213 66.0046 63.5093 66.1379 63.76C66.2766 64.0053 66.4633 64.1973 66.6979 64.336C66.9379 64.4693 67.2073 64.536 67.5059 64.536ZM70.7998 65V59.064H71.3678V65H70.7998ZM74.7323 65.04C74.2949 65.04 73.9109 64.9493 73.5803 64.768C73.2496 64.5813 72.9909 64.328 72.8043 64.008C72.6176 63.6827 72.5243 63.312 72.5243 62.896C72.5243 62.48 72.6123 62.112 72.7883 61.792C72.9696 61.472 73.2149 61.2213 73.5243 61.04C73.8389 60.8533 74.1909 60.76 74.5803 60.76C74.9749 60.76 75.3243 60.8507 75.6283 61.032C75.9376 61.208 76.1803 61.4587 76.3563 61.784C76.5323 62.104 76.6203 62.4747 76.6203 62.896C76.6203 62.9227 76.6176 62.952 76.6123 62.984C76.6123 63.0107 76.6123 63.04 76.6123 63.072H72.9563V62.648H76.3083L76.0843 62.816C76.0843 62.512 76.0176 62.2427 75.8843 62.008C75.7563 61.768 75.5803 61.5813 75.3563 61.448C75.1323 61.3147 74.8736 61.248 74.5803 61.248C74.2923 61.248 74.0336 61.3147 73.8043 61.448C73.5749 61.5813 73.3963 61.768 73.2683 62.008C73.1403 62.248 73.0763 62.5227 73.0763 62.832V62.92C73.0763 63.24 73.1456 63.5227 73.2843 63.768C73.4283 64.008 73.6256 64.1973 73.8763 64.336C74.1323 64.4693 74.4229 64.536 74.7483 64.536C75.0043 64.536 75.2416 64.4907 75.4603 64.4C75.6843 64.3093 75.8763 64.1707 76.0363 63.984L76.3563 64.352C76.1696 64.576 75.9349 64.7467 75.6523 64.864C75.3749 64.9813 75.0683 65.04 74.7323 65.04ZM79.9901 65V59.4H80.5821V64.488H83.7181V65H79.9901ZM84.5811 65V60.8H85.1491V65H84.5811ZM84.8691 59.872C84.7517 59.872 84.6531 59.832 84.5731 59.752C84.4931 59.672 84.4531 59.576 84.4531 59.464C84.4531 59.352 84.4931 59.2587 84.5731 59.184C84.6531 59.104 84.7517 59.064 84.8691 59.064C84.9864 59.064 85.0851 59.1013 85.1651 59.176C85.2451 59.2507 85.2851 59.344 85.2851 59.456C85.2851 59.5733 85.2451 59.672 85.1651 59.752C85.0904 59.832 84.9917 59.872 84.8691 59.872ZM87.8095 65L85.9455 60.8H86.5375L88.2495 64.696H87.9695L89.7055 60.8H90.2655L88.3935 65H87.8095ZM91.0654 65V60.8H91.6334V65H91.0654ZM91.3534 59.872C91.2361 59.872 91.1374 59.832 91.0574 59.752C90.9774 59.672 90.9374 59.576 90.9374 59.464C90.9374 59.352 90.9774 59.2587 91.0574 59.184C91.1374 59.104 91.2361 59.064 91.3534 59.064C91.4708 59.064 91.5694 59.1013 91.6494 59.176C91.7294 59.2507 91.7694 59.344 91.7694 59.456C91.7694 59.5733 91.7294 59.672 91.6494 59.752C91.5748 59.832 91.4761 59.872 91.3534 59.872ZM95.3579 60.76C95.6992 60.76 95.9979 60.8267 96.2539 60.96C96.5152 61.088 96.7179 61.2853 96.8619 61.552C97.0112 61.8187 97.0859 62.1547 97.0859 62.56V65H96.5179V62.616C96.5179 62.1733 96.4059 61.84 96.1819 61.616C95.9632 61.3867 95.6539 61.272 95.2539 61.272C94.9552 61.272 94.6939 61.3333 94.4699 61.456C94.2512 61.5733 94.0805 61.7467 93.9579 61.976C93.8405 62.2 93.7819 62.472 93.7819 62.792V65H93.2139V60.8H93.7579V61.952L93.6699 61.736C93.8032 61.432 94.0165 61.1947 94.3099 61.024C94.6032 60.848 94.9525 60.76 95.3579 60.76ZM100.412 66.592C100.028 66.592 99.6601 66.536 99.3081 66.424C98.9561 66.312 98.6708 66.152 98.4521 65.944L98.7401 65.512C98.9375 65.688 99.1801 65.8267 99.4681 65.928C99.7615 66.0347 100.071 66.088 100.396 66.088C100.929 66.088 101.321 65.9627 101.572 65.712C101.823 65.4667 101.948 65.0827 101.948 64.56V63.512L102.028 62.792L101.972 62.072V60.8H102.516V64.488C102.516 65.2133 102.337 65.744 101.98 66.08C101.628 66.4213 101.105 66.592 100.412 66.592ZM100.308 64.84C99.9081 64.84 99.5481 64.7547 99.2281 64.584C98.9081 64.408 98.6548 64.1653 98.4681 63.856C98.2868 63.5467 98.1961 63.192 98.1961 62.792C98.1961 62.392 98.2868 62.04 98.4681 61.736C98.6548 61.4267 98.9081 61.1867 99.2281 61.016C99.5481 60.8453 99.9081 60.76 100.308 60.76C100.681 60.76 101.017 60.8373 101.316 60.992C101.615 61.1467 101.852 61.376 102.028 61.68C102.204 61.984 102.292 62.3547 102.292 62.792C102.292 63.2293 102.204 63.6 102.028 63.904C101.852 64.208 101.615 64.44 101.316 64.6C101.017 64.76 100.681 64.84 100.308 64.84ZM100.364 64.336C100.673 64.336 100.948 64.272 101.188 64.144C101.428 64.0107 101.617 63.8293 101.756 63.6C101.895 63.3653 101.964 63.096 101.964 62.792C101.964 62.488 101.895 62.2213 101.756 61.992C101.617 61.7627 101.428 61.584 101.188 61.456C100.948 61.3227 100.673 61.256 100.364 61.256C100.06 61.256 99.7855 61.3227 99.5401 61.456C99.3001 61.584 99.1108 61.7627 98.9721 61.992C98.8388 62.2213 98.7721 62.488 98.7721 62.792C98.7721 63.096 98.8388 63.3653 98.9721 63.6C99.1108 63.8293 99.3001 64.0107 99.5401 64.144C99.7855 64.272 100.06 64.336 100.364 64.336Z" fill="#251B11"/>
<g clip-path="url(#clip0_338_1283)">
<path d="M25 28C22.2862 28 21.945 28.0125 20.8788 28.06C19.8125 28.11 19.0862 28.2775 18.45 28.525C17.7823 28.7754 17.1777 29.1692 16.6788 29.6788C16.1692 30.1777 15.7754 30.7823 15.525 31.45C15.2775 32.085 15.1088 32.8125 15.06 33.875C15.0125 34.9437 15 35.2838 15 38.0013C15 40.7163 15.0125 41.0563 15.06 42.1225C15.11 43.1875 15.2775 43.9137 15.525 44.55C15.7812 45.2075 16.1225 45.765 16.6788 46.3212C17.2338 46.8775 17.7913 47.22 18.4488 47.475C19.0863 47.7225 19.8113 47.8912 20.8763 47.94C21.9438 47.9875 22.2837 48 25 48C27.7163 48 28.055 47.9875 29.1225 47.94C30.1863 47.89 30.915 47.7225 31.5513 47.475C32.2185 47.2244 32.8227 46.8306 33.3212 46.3212C33.8775 45.765 34.2187 45.2075 34.475 44.55C34.7212 43.9137 34.89 43.1875 34.94 42.1225C34.9875 41.0563 35 40.7163 35 38C35 35.2837 34.9875 34.9438 34.94 33.8763C34.89 32.8125 34.7212 32.085 34.475 31.45C34.2246 30.7823 33.8308 30.1777 33.3212 29.6788C32.8223 29.1692 32.2177 28.7754 31.55 28.525C30.9125 28.2775 30.185 28.1088 29.1212 28.06C28.0537 28.0125 27.715 28 24.9975 28H25ZM24.1037 29.8025H25.0013C27.6713 29.8025 27.9875 29.8113 29.0412 29.86C30.0162 29.9038 30.5462 30.0675 30.8987 30.2038C31.365 30.385 31.6987 30.6025 32.0487 30.9525C32.3987 31.3025 32.615 31.635 32.7963 32.1025C32.9338 32.4538 33.0963 32.9838 33.14 33.9588C33.1888 35.0125 33.1988 35.3288 33.1988 37.9975C33.1988 40.6663 33.1888 40.9837 33.14 42.0375C33.0963 43.0125 32.9325 43.5413 32.7963 43.8938C32.6348 44.3274 32.3791 44.7197 32.0475 45.0425C31.6975 45.3925 31.365 45.6088 30.8975 45.79C30.5475 45.9275 30.0175 46.09 29.0412 46.135C27.9875 46.1825 27.6713 46.1938 25.0013 46.1938C22.3313 46.1938 22.0138 46.1825 20.96 46.135C19.985 46.09 19.4562 45.9275 19.1037 45.79C18.6698 45.6291 18.277 45.3738 17.9537 45.0425C17.6216 44.7195 17.3654 44.3267 17.2038 43.8925C17.0675 43.5412 16.9038 43.0113 16.86 42.0363C16.8125 40.9825 16.8025 40.6662 16.8025 37.995C16.8025 35.3237 16.8125 35.01 16.86 33.9562C16.905 32.9812 17.0675 32.4513 17.205 32.0988C17.3863 31.6325 17.6037 31.2987 17.9537 30.9487C18.3037 30.5987 18.6362 30.3825 19.1037 30.2013C19.4562 30.0638 19.985 29.9013 20.96 29.8563C21.8825 29.8138 22.24 29.8013 24.1037 29.8V29.8025ZM30.3387 31.4625C30.1812 31.4625 30.0251 31.4935 29.8795 31.5538C29.7339 31.6142 29.6017 31.7025 29.4902 31.814C29.3788 31.9254 29.2904 32.0577 29.2301 32.2033C29.1698 32.3489 29.1387 32.5049 29.1387 32.6625C29.1387 32.8201 29.1698 32.9761 29.2301 33.1217C29.2904 33.2673 29.3788 33.3996 29.4902 33.511C29.6017 33.6225 29.7339 33.7108 29.8795 33.7712C30.0251 33.8315 30.1812 33.8625 30.3387 33.8625C30.657 33.8625 30.9622 33.7361 31.1873 33.511C31.4123 33.286 31.5387 32.9808 31.5387 32.6625C31.5387 32.3442 31.4123 32.039 31.1873 31.814C30.9622 31.5889 30.657 31.4625 30.3387 31.4625ZM25.0013 32.865C24.3201 32.8544 23.6436 32.9794 23.0112 33.2327C22.3788 33.486 21.8031 33.8626 21.3177 34.3405C20.8322 34.8185 20.4467 35.3882 20.1836 36.0166C19.9204 36.6449 19.7849 37.3194 19.7849 38.0006C19.7849 38.6819 19.9204 39.3563 20.1836 39.9847C20.4467 40.613 20.8322 41.1828 21.3177 41.6607C21.8031 42.1387 22.3788 42.5153 23.0112 42.7686C23.6436 43.0219 24.3201 43.1469 25.0013 43.1363C26.3494 43.1152 27.6353 42.5649 28.5812 41.6041C29.5272 40.6432 30.0574 39.349 30.0574 38.0006C30.0574 36.6523 29.5272 35.358 28.5812 34.3972C27.6353 33.4364 26.3494 32.886 25.0013 32.865ZM25.0013 34.6663C25.439 34.6663 25.8726 34.7525 26.277 34.92C26.6815 35.0876 27.049 35.3331 27.3586 35.6427C27.6681 35.9523 27.9137 36.3198 28.0812 36.7242C28.2488 37.1287 28.335 37.5622 28.335 38C28.335 38.4378 28.2488 38.8713 28.0812 39.2758C27.9137 39.6802 27.6681 40.0477 27.3586 40.3573C27.049 40.6669 26.6815 40.9124 26.277 41.08C25.8726 41.2475 25.439 41.3337 25.0013 41.3337C24.1171 41.3337 23.2691 40.9825 22.6439 40.3573C22.0187 39.7321 21.6675 38.8842 21.6675 38C21.6675 37.1158 22.0187 36.2679 22.6439 35.6427C23.2691 35.0175 24.1171 34.6663 25.0013 34.6663Z" fill="black"/>
</g>
<path d="M81.0637 30.4985H81.175C82.2025 30.5023 87.4087 30.5398 88.8125 30.9173C89.2369 31.0325 89.6236 31.2571 89.9339 31.5685C90.2443 31.88 90.4675 32.2675 90.5812 32.6923C90.7075 33.1673 90.7963 33.796 90.8563 34.4448L90.8688 34.5748L90.8962 34.8998L90.9063 35.0298C90.9875 36.1723 90.9975 37.2423 90.9987 37.476V37.5698C90.9975 37.8123 90.9862 38.9548 90.8962 40.1448L90.8863 40.276L90.875 40.406C90.8125 41.121 90.72 41.831 90.5812 42.3535C90.4675 42.7783 90.2443 43.1658 89.9339 43.4773C89.6236 43.7888 89.2369 44.0133 88.8125 44.1285C87.3625 44.5185 81.8512 44.546 81.0875 44.5473H80.91C80.5237 44.5473 78.9262 44.5398 77.2512 44.4823L77.0387 44.4748L76.93 44.4698L76.7162 44.461L76.5025 44.4523C75.115 44.391 73.7938 44.2923 73.185 44.1273C72.7608 44.0122 72.3742 43.7878 72.0638 43.4766C71.7534 43.1653 71.5302 42.7781 71.4163 42.3535C71.2775 41.8323 71.185 41.121 71.1225 40.406L71.1125 40.2748L71.1025 40.1448C71.0405 39.2978 71.0063 38.449 71 37.5998V37.446C71.0025 37.1773 71.0125 36.2485 71.08 35.2235L71.0888 35.0948L71.0925 35.0298L71.1025 34.8998L71.13 34.5748L71.1425 34.4448C71.2025 33.796 71.2912 33.166 71.4175 32.6923C71.5312 32.2675 71.7544 31.88 72.0648 31.5685C72.3752 31.2571 72.7619 31.0325 73.1862 30.9173C73.795 30.7548 75.1162 30.6548 76.5037 30.5923L76.7162 30.5835L76.9312 30.576L77.0387 30.5723L77.2525 30.5635C78.4421 30.5253 79.6323 30.504 80.8225 30.4998L81.0637 30.4985ZM79 34.511V40.5335L84.1963 37.5235L79 34.511Z" fill="black"/>
<g clip-path="url(#clip1_338_1283)">
<path d="M63 38.0612C63 32.5044 58.5231 28 53.0012 28C47.4769 28.0012 43 32.5044 43 38.0625C43 43.0831 46.657 47.2451 51.4364 48V40.9696H48.8993V38.0625H51.4389V35.844C51.4389 33.3231 52.9325 31.9308 55.216 31.9308C56.3108 31.9308 57.4544 32.127 57.4544 32.127V34.6017H56.1933C54.9523 34.6017 54.5648 35.3778 54.5648 36.174V38.0612H57.337L56.8945 40.9684H54.5636V47.9988C59.343 47.2438 63 43.0819 63 38.0612Z" fill="black"/>
</g>
<path d="M6.24 5.48C6.80533 5.48 7.23733 5.544 7.536 5.672C7.83467 5.8 8.096 5.93867 8.32 6.088C8.448 6.16267 8.54933 6.22133 8.624 6.264C8.70933 6.296 8.78933 6.312 8.864 6.312C8.97067 6.312 9.04533 6.25333 9.088 6.136C9.14133 6.01867 9.184 5.84267 9.216 5.608H9.584C9.57333 5.8 9.55733 6.02933 9.536 6.296C9.52533 6.552 9.51467 6.89333 9.504 7.32C9.504 7.74667 9.504 8.30667 9.504 9H9.136C9.104 8.47733 8.98667 7.97067 8.784 7.48C8.592 6.98933 8.304 6.58933 7.92 6.28C7.54667 5.97067 7.06667 5.816 6.48 5.816C5.936 5.816 5.48267 5.98133 5.12 6.312C4.768 6.632 4.592 7.05867 4.592 7.592C4.592 8.06133 4.70933 8.456 4.944 8.776C5.17867 9.08533 5.49867 9.37867 5.904 9.656C6.32 9.92267 6.78933 10.2213 7.312 10.552C7.84533 10.8933 8.32533 11.2347 8.752 11.576C9.17867 11.9067 9.51467 12.2747 9.76 12.68C10.0053 13.0853 10.128 13.576 10.128 14.152C10.128 14.8453 9.96267 15.4213 9.632 15.88C9.312 16.328 8.88 16.664 8.336 16.888C7.792 17.112 7.19467 17.224 6.544 17.224C5.94667 17.224 5.472 17.16 5.12 17.032C4.768 16.904 4.46933 16.7707 4.224 16.632C3.98933 16.4827 3.808 16.408 3.68 16.408C3.57333 16.408 3.49333 16.4667 3.44 16.584C3.39733 16.7013 3.36 16.8773 3.328 17.112H2.96C2.98133 16.8773 2.992 16.6053 2.992 16.296C3.00267 15.976 3.008 15.56 3.008 15.048C3.01867 14.536 3.024 13.8907 3.024 13.112H3.392C3.43467 13.7733 3.552 14.392 3.744 14.968C3.94667 15.544 4.25067 16.008 4.656 16.36C5.072 16.7013 5.62133 16.872 6.304 16.872C6.66667 16.872 7.00267 16.8027 7.312 16.664C7.62133 16.5253 7.872 16.3067 8.064 16.008C8.256 15.7093 8.352 15.3253 8.352 14.856C8.352 14.4187 8.24533 14.0347 8.032 13.704C7.82933 13.3733 7.54133 13.0693 7.168 12.792C6.80533 12.504 6.37867 12.2107 5.888 11.912C5.38667 11.592 4.91733 11.272 4.48 10.952C4.04267 10.632 3.69067 10.2587 3.424 9.832C3.168 9.40533 3.04 8.89867 3.04 8.312C3.04 7.66133 3.18933 7.128 3.488 6.712C3.79733 6.296 4.192 5.98667 4.672 5.784C5.16267 5.58133 5.68533 5.48 6.24 5.48ZM15.307 8.52C16.0217 8.52 16.6563 8.66933 17.211 8.968C17.7657 9.26667 18.2083 9.736 18.539 10.376C18.8697 11.016 19.035 11.8533 19.035 12.888C19.035 13.9227 18.8697 14.76 18.539 15.4C18.2083 16.0293 17.7657 16.4933 17.211 16.792C16.6563 17.08 16.0217 17.224 15.307 17.224C14.603 17.224 13.9683 17.08 13.403 16.792C12.8377 16.4933 12.3897 16.0293 12.059 15.4C11.739 14.76 11.579 13.9227 11.579 12.888C11.579 11.8533 11.739 11.016 12.059 10.376C12.3897 9.736 12.8377 9.26667 13.403 8.968C13.9683 8.66933 14.603 8.52 15.307 8.52ZM15.307 8.84C14.7523 8.84 14.299 9.16 13.947 9.8C13.595 10.4293 13.419 11.4587 13.419 12.888C13.419 14.3173 13.595 15.3467 13.947 15.976C14.299 16.5947 14.7523 16.904 15.307 16.904C15.851 16.904 16.299 16.5947 16.651 15.976C17.0137 15.3467 17.195 14.3173 17.195 12.888C17.195 11.4587 17.0137 10.4293 16.651 9.8C16.299 9.16 15.851 8.84 15.307 8.84ZM24.2304 8.52C24.593 8.52 24.9397 8.568 25.2704 8.664C25.601 8.74933 25.889 8.872 26.1344 9.032C26.3904 9.192 26.5824 9.384 26.7104 9.608C26.849 9.832 26.9184 10.0773 26.9184 10.344C26.9184 10.664 26.8277 10.9147 26.6464 11.096C26.465 11.2773 26.2304 11.368 25.9424 11.368C25.6544 11.368 25.4144 11.288 25.2224 11.128C25.0304 10.968 24.9344 10.7387 24.9344 10.44C24.9344 10.1627 25.0144 9.93867 25.1744 9.768C25.3344 9.58667 25.521 9.46933 25.7344 9.416C25.6384 9.256 25.4677 9.12267 25.2224 9.016C24.9877 8.89867 24.7317 8.84 24.4544 8.84C24.1664 8.84 23.889 8.91467 23.6224 9.064C23.3664 9.21333 23.137 9.44267 22.9344 9.752C22.7317 10.0613 22.5664 10.4613 22.4384 10.952C22.321 11.4427 22.2624 12.0347 22.2624 12.728C22.2624 13.624 22.3637 14.3387 22.5664 14.872C22.7797 15.3947 23.057 15.768 23.3984 15.992C23.7397 16.216 24.1077 16.328 24.5024 16.328C24.7584 16.328 25.0197 16.28 25.2864 16.184C25.5637 16.088 25.825 15.928 26.0704 15.704C26.3264 15.48 26.5504 15.176 26.7424 14.792L27.0464 14.904C26.929 15.256 26.7424 15.6133 26.4864 15.976C26.241 16.3387 25.9157 16.6373 25.5104 16.872C25.105 17.1067 24.609 17.224 24.0224 17.224C23.3504 17.224 22.7424 17.0587 22.1984 16.728C21.6544 16.3973 21.2224 15.9173 20.9024 15.288C20.5824 14.648 20.4224 13.8693 20.4224 12.952C20.4224 12.056 20.5824 11.2773 20.9024 10.616C21.233 9.944 21.6864 9.42667 22.2624 9.064C22.8384 8.70133 23.4944 8.52 24.2304 8.52ZM29.9145 4.712C30.2452 4.712 30.5225 4.81867 30.7465 5.032C30.9705 5.23467 31.0825 5.49067 31.0825 5.8C31.0825 6.10933 30.9705 6.37067 30.7465 6.584C30.5225 6.78667 30.2452 6.888 29.9145 6.888C29.5838 6.888 29.3065 6.78667 29.0825 6.584C28.8585 6.37067 28.7465 6.10933 28.7465 5.8C28.7465 5.49067 28.8585 5.23467 29.0825 5.032C29.3065 4.81867 29.5838 4.712 29.9145 4.712ZM30.8745 8.568V15.512C30.8745 15.96 30.9598 16.264 31.1305 16.424C31.3118 16.584 31.6105 16.664 32.0265 16.664V17C31.8452 16.9893 31.5625 16.9787 31.1785 16.968C30.8052 16.9467 30.4212 16.936 30.0265 16.936C29.6532 16.936 29.2692 16.9467 28.8745 16.968C28.4798 16.9787 28.1865 16.9893 27.9945 17V16.664C28.4105 16.664 28.7038 16.584 28.8745 16.424C29.0558 16.264 29.1465 15.96 29.1465 15.512V10.488C29.1465 10.008 29.0665 9.656 28.9065 9.432C28.7465 9.19733 28.4425 9.08 27.9945 9.08V8.744C28.3358 8.776 28.6665 8.792 28.9865 8.792C29.3492 8.792 29.6852 8.776 29.9945 8.744C30.3145 8.70133 30.6078 8.64267 30.8745 8.568ZM35.0474 17.112C34.5994 17.112 34.2154 17.0267 33.8954 16.856C33.5754 16.6853 33.3354 16.4507 33.1754 16.152C33.0154 15.8533 32.9354 15.512 32.9354 15.128C32.9354 14.6587 33.042 14.28 33.2554 13.992C33.4687 13.6933 33.7407 13.4533 34.0714 13.272C34.4127 13.0907 34.77 12.9413 35.1434 12.824C35.5274 12.696 35.8847 12.5787 36.2154 12.472C36.5567 12.3547 36.834 12.2213 37.0474 12.072C37.2714 11.9227 37.3834 11.7253 37.3834 11.48V10.392C37.3834 10.008 37.3194 9.704 37.1914 9.48C37.074 9.24533 36.9087 9.08 36.6954 8.984C36.4927 8.888 36.2474 8.84 35.9594 8.84C35.714 8.84 35.4527 8.87733 35.1754 8.952C34.898 9.016 34.6794 9.14933 34.5194 9.352C34.754 9.416 34.946 9.544 35.0954 9.736C35.2554 9.91733 35.3354 10.1467 35.3354 10.424C35.3354 10.7227 35.234 10.9573 35.0314 11.128C34.8394 11.2987 34.594 11.384 34.2954 11.384C33.9647 11.384 33.7194 11.2827 33.5594 11.08C33.3994 10.8667 33.3194 10.6213 33.3194 10.344C33.3194 10.056 33.3887 9.82133 33.5274 9.64C33.6767 9.45867 33.8687 9.288 34.1034 9.128C34.3594 8.95733 34.6847 8.81333 35.0794 8.696C35.4847 8.57867 35.9327 8.52 36.4234 8.52C36.882 8.52 37.2767 8.57333 37.6074 8.68C37.9487 8.776 38.2314 8.936 38.4554 9.16C38.722 9.40533 38.898 9.71467 38.9834 10.088C39.0687 10.4507 39.1114 10.8933 39.1114 11.416V15.832C39.1114 16.0987 39.1434 16.2907 39.2074 16.408C39.282 16.5147 39.3994 16.568 39.5594 16.568C39.666 16.568 39.7674 16.5413 39.8634 16.488C39.97 16.4347 40.0927 16.3547 40.2314 16.248L40.3914 16.52C40.1674 16.7013 39.938 16.8453 39.7034 16.952C39.4794 17.0587 39.1914 17.112 38.8394 17.112C38.498 17.112 38.2207 17.0587 38.0074 16.952C37.794 16.8453 37.634 16.6907 37.5274 16.488C37.4314 16.2853 37.3834 16.0347 37.3834 15.736C37.106 16.184 36.7754 16.5253 36.3914 16.76C36.0074 16.9947 35.5594 17.112 35.0474 17.112ZM35.8154 16.344C36.114 16.344 36.3914 16.2587 36.6474 16.088C36.914 15.9173 37.1594 15.6613 37.3834 15.32V12.136C37.266 12.3067 37.0954 12.456 36.8714 12.584C36.6474 12.7013 36.4074 12.824 36.1514 12.952C35.8954 13.08 35.65 13.2293 35.4154 13.4C35.1914 13.56 35.0047 13.768 34.8554 14.024C34.706 14.28 34.6314 14.6053 34.6314 15C34.6314 15.416 34.738 15.7467 34.9514 15.992C35.1647 16.2267 35.4527 16.344 35.8154 16.344ZM43.6535 4.456V15.512C43.6535 15.96 43.7388 16.264 43.9095 16.424C44.0908 16.584 44.3895 16.664 44.8055 16.664V17C44.6242 16.9893 44.3415 16.9787 43.9575 16.968C43.5735 16.9467 43.1895 16.936 42.8055 16.936C42.4215 16.936 42.0322 16.9467 41.6375 16.968C41.2535 16.9787 40.9655 16.9893 40.7735 17V16.664C41.1895 16.664 41.4828 16.584 41.6535 16.424C41.8348 16.264 41.9255 15.96 41.9255 15.512V6.376C41.9255 5.896 41.8455 5.544 41.6855 5.32C41.5255 5.08533 41.2215 4.968 40.7735 4.968V4.632C41.1148 4.664 41.4455 4.68 41.7655 4.68C42.1175 4.68 42.4535 4.664 42.7735 4.632C43.0935 4.58933 43.3868 4.53067 43.6535 4.456ZM54.9349 8.52C55.3402 8.52 55.6815 8.57867 55.9589 8.696C56.2362 8.80267 56.4602 8.952 56.6309 9.144C56.8229 9.34667 56.9562 9.61867 57.0309 9.96C57.1055 10.2907 57.1429 10.712 57.1429 11.224V15.512C57.1429 15.96 57.2282 16.264 57.3989 16.424C57.5695 16.584 57.8575 16.664 58.2629 16.664V17C58.0815 16.9893 57.7989 16.9787 57.4149 16.968C57.0415 16.9467 56.6735 16.936 56.3109 16.936C55.9482 16.936 55.5909 16.9467 55.2389 16.968C54.8975 16.9787 54.6362 16.9893 54.4549 17V16.664C54.8069 16.664 55.0522 16.584 55.1909 16.424C55.3402 16.264 55.4149 15.96 55.4149 15.512V10.776C55.4149 10.4667 55.3935 10.1893 55.3509 9.944C55.3082 9.688 55.2069 9.48533 55.0469 9.336C54.8975 9.176 54.6575 9.096 54.3269 9.096C53.9535 9.096 53.6175 9.208 53.3189 9.432C53.0309 9.656 52.7962 9.96533 52.6149 10.36C52.4442 10.744 52.3589 11.176 52.3589 11.656V15.512C52.3589 15.96 52.4335 16.264 52.5829 16.424C52.7322 16.584 52.9775 16.664 53.3189 16.664V17C53.1482 16.9893 52.8922 16.9787 52.5509 16.968C52.2095 16.9467 51.8575 16.936 51.4949 16.936C51.1322 16.936 50.7535 16.9467 50.3589 16.968C49.9642 16.9787 49.6709 16.9893 49.4789 17V16.664C49.8949 16.664 50.1882 16.584 50.3589 16.424C50.5402 16.264 50.6309 15.96 50.6309 15.512V10.488C50.6309 10.008 50.5509 9.656 50.3909 9.432C50.2309 9.19733 49.9269 9.08 49.4789 9.08V8.744C49.8202 8.776 50.1509 8.792 50.4709 8.792C50.8335 8.792 51.1695 8.776 51.4789 8.744C51.7989 8.70133 52.0922 8.64267 52.3589 8.568V10.312C52.6362 9.672 53.0042 9.21333 53.4629 8.936C53.9322 8.65867 54.4229 8.52 54.9349 8.52ZM59.7509 8.52C60.1562 8.52 60.4975 8.57867 60.7749 8.696C61.0522 8.80267 61.2762 8.952 61.4469 9.144C61.6389 9.34667 61.7722 9.61867 61.8469 9.96C61.9215 10.2907 61.9589 10.712 61.9589 11.224V15.512C61.9589 15.96 62.0442 16.264 62.2149 16.424C62.3962 16.584 62.6949 16.664 63.1109 16.664V17C62.9295 16.9893 62.6469 16.9787 62.2629 16.968C61.8789 16.9467 61.5002 16.936 61.1269 16.936C60.7642 16.936 60.4069 16.9467 60.0549 16.968C59.7135 16.9787 59.4522 16.9893 59.2709 17V16.664C59.6229 16.664 59.8682 16.584 60.0069 16.424C60.1562 16.264 60.2309 15.96 60.2309 15.512V10.776C60.2309 10.4667 60.2095 10.1893 60.1669 9.944C60.1242 9.688 60.0229 9.48533 59.8629 9.336C59.7029 9.176 59.4522 9.096 59.1109 9.096C58.7375 9.096 58.4015 9.21333 58.1029 9.448C57.8149 9.672 57.5802 9.98133 57.3989 10.376C57.2282 10.76 57.1429 11.192 57.1429 11.672L57.0789 10.344C57.3669 9.64 57.7509 9.16 58.2309 8.904C58.7215 8.648 59.2282 8.52 59.7509 8.52ZM67.7438 8.52C68.6824 8.52 69.4184 8.80267 69.9518 9.368C70.4851 9.93333 70.7518 10.8293 70.7518 12.056H65.2318L65.1998 11.752H69.0558C69.0664 11.2293 69.0238 10.7493 68.9278 10.312C68.8318 9.864 68.6824 9.50667 68.4798 9.24C68.2771 8.97333 68.0104 8.84 67.6798 8.84C67.2211 8.84 66.8211 9.08533 66.4798 9.576C66.1491 10.056 65.9464 10.8293 65.8718 11.896L65.9198 11.976C65.9091 12.1253 65.8984 12.2907 65.8878 12.472C65.8771 12.6427 65.8718 12.8133 65.8718 12.984C65.8718 13.72 65.9838 14.3387 66.2078 14.84C66.4318 15.3413 66.7251 15.72 67.0878 15.976C67.4504 16.2213 67.8184 16.344 68.1918 16.344C68.4798 16.344 68.7571 16.3013 69.0238 16.216C69.3011 16.12 69.5624 15.9653 69.8078 15.752C70.0531 15.528 70.2718 15.224 70.4638 14.84L70.7838 14.968C70.6558 15.3307 70.4584 15.688 70.1918 16.04C69.9251 16.392 69.5838 16.68 69.1678 16.904C68.7518 17.1173 68.2664 17.224 67.7118 17.224C66.9651 17.224 66.3144 17.0587 65.7598 16.728C65.2051 16.3867 64.7784 15.9013 64.4798 15.272C64.1811 14.6427 64.0318 13.896 64.0318 13.032C64.0318 12.0827 64.1864 11.272 64.4958 10.6C64.8051 9.928 65.2371 9.416 65.7918 9.064C66.3571 8.70133 67.0078 8.52 67.7438 8.52ZM79.3419 4.456V15.256C79.3419 15.736 79.4219 16.0933 79.5819 16.328C79.7525 16.552 80.0565 16.664 80.4939 16.664V17C80.1632 16.968 79.8325 16.952 79.5019 16.952C79.1392 16.952 78.7979 16.968 78.4779 17C78.1685 17.032 77.8805 17.0907 77.6139 17.176V6.376C77.6139 5.896 77.5285 5.544 77.3579 5.32C77.1979 5.08533 76.8992 4.968 76.4619 4.968V4.632C76.8032 4.664 77.1339 4.68 77.4539 4.68C77.8059 4.68 78.1419 4.664 78.4619 4.632C78.7819 4.58933 79.0752 4.53067 79.3419 4.456ZM75.7419 8.52C76.2112 8.52 76.6379 8.62133 77.0219 8.824C77.4165 9.02667 77.6939 9.368 77.8539 9.848L77.6619 10.024C77.5125 9.64 77.2939 9.36267 77.0059 9.192C76.7179 9.01067 76.3925 8.92 76.0299 8.92C75.4219 8.92 74.9259 9.24533 74.5419 9.896C74.1579 10.536 73.9712 11.528 73.9819 12.872C73.9819 13.7573 74.0565 14.4827 74.2059 15.048C74.3552 15.6027 74.5739 16.0133 74.8619 16.28C75.1605 16.5467 75.5179 16.68 75.9339 16.68C76.3499 16.68 76.7232 16.504 77.0539 16.152C77.3952 15.8 77.5979 15.2933 77.6619 14.632L77.8059 14.968C77.6992 15.6933 77.4432 16.2533 77.0379 16.648C76.6325 17.032 76.0885 17.224 75.4059 17.224C74.7552 17.224 74.1792 17.0693 73.6779 16.76C73.1872 16.44 72.8085 15.96 72.5419 15.32C72.2752 14.6693 72.1419 13.8533 72.1419 12.872C72.1419 11.9013 72.3019 11.096 72.6219 10.456C72.9525 9.80533 73.3899 9.32 73.9339 9C74.4779 8.68 75.0805 8.52 75.7419 8.52ZM83.1645 4.712C83.4952 4.712 83.7725 4.81867 83.9965 5.032C84.2205 5.23467 84.3325 5.49067 84.3325 5.8C84.3325 6.10933 84.2205 6.37067 83.9965 6.584C83.7725 6.78667 83.4952 6.888 83.1645 6.888C82.8338 6.888 82.5565 6.78667 82.3325 6.584C82.1085 6.37067 81.9965 6.10933 81.9965 5.8C81.9965 5.49067 82.1085 5.23467 82.3325 5.032C82.5565 4.81867 82.8338 4.712 83.1645 4.712ZM84.1245 8.568V15.512C84.1245 15.96 84.2098 16.264 84.3805 16.424C84.5618 16.584 84.8605 16.664 85.2765 16.664V17C85.0952 16.9893 84.8125 16.9787 84.4285 16.968C84.0552 16.9467 83.6712 16.936 83.2765 16.936C82.9032 16.936 82.5192 16.9467 82.1245 16.968C81.7298 16.9787 81.4365 16.9893 81.2445 17V16.664C81.6605 16.664 81.9538 16.584 82.1245 16.424C82.3058 16.264 82.3965 15.96 82.3965 15.512V10.488C82.3965 10.008 82.3165 9.656 82.1565 9.432C81.9965 9.19733 81.6925 9.08 81.2445 9.08V8.744C81.5858 8.776 81.9165 8.792 82.2365 8.792C82.5992 8.792 82.9352 8.776 83.2445 8.744C83.5645 8.70133 83.8578 8.64267 84.1245 8.568ZM90.0094 8.52C90.948 8.52 91.684 8.80267 92.2174 9.368C92.7507 9.93333 93.0174 10.8293 93.0174 12.056H87.4974L87.4654 11.752H91.3214C91.332 11.2293 91.2894 10.7493 91.1934 10.312C91.0974 9.864 90.948 9.50667 90.7454 9.24C90.5427 8.97333 90.276 8.84 89.9454 8.84C89.4867 8.84 89.0867 9.08533 88.7454 9.576C88.4147 10.056 88.212 10.8293 88.1374 11.896L88.1854 11.976C88.1747 12.1253 88.164 12.2907 88.1534 12.472C88.1427 12.6427 88.1374 12.8133 88.1374 12.984C88.1374 13.72 88.2494 14.3387 88.4734 14.84C88.6974 15.3413 88.9907 15.72 89.3534 15.976C89.716 16.2213 90.084 16.344 90.4574 16.344C90.7454 16.344 91.0227 16.3013 91.2894 16.216C91.5667 16.12 91.828 15.9653 92.0734 15.752C92.3187 15.528 92.5374 15.224 92.7294 14.84L93.0494 14.968C92.9214 15.3307 92.724 15.688 92.4574 16.04C92.1907 16.392 91.8494 16.68 91.4334 16.904C91.0174 17.1173 90.532 17.224 89.9774 17.224C89.2307 17.224 88.58 17.0587 88.0254 16.728C87.4707 16.3867 87.044 15.9013 86.7454 15.272C86.4467 14.6427 86.2974 13.896 86.2974 13.032C86.2974 12.0827 86.452 11.272 86.7614 10.6C87.0707 9.928 87.5027 9.416 88.0574 9.064C88.6227 8.70133 89.2734 8.52 90.0094 8.52ZM99.2403 8.52C99.5496 8.52 99.8109 8.584 100.024 8.712C100.248 8.84 100.414 9.00533 100.52 9.208C100.638 9.4 100.696 9.61867 100.696 9.864C100.696 10.1733 100.6 10.44 100.408 10.664C100.227 10.8773 99.9816 10.984 99.6723 10.984C99.4056 10.984 99.1763 10.904 98.9843 10.744C98.8029 10.584 98.7123 10.3653 98.7123 10.088C98.7123 9.85333 98.7709 9.656 98.8883 9.496C99.0163 9.32533 99.1603 9.192 99.3203 9.096C99.2136 9.01067 99.0856 8.97333 98.9363 8.984C98.6483 8.99467 98.3816 9.09067 98.1363 9.272C97.8909 9.44267 97.6829 9.66667 97.5123 9.944C97.3416 10.2107 97.2083 10.4987 97.1123 10.808C97.0163 11.1173 96.9683 11.4053 96.9683 11.672V15.352C96.9683 15.8747 97.1123 16.2267 97.4003 16.408C97.6883 16.5787 98.0883 16.664 98.6003 16.664V17C98.3549 16.9893 98.0029 16.9787 97.5443 16.968C97.0963 16.9467 96.6216 16.936 96.1203 16.936C95.7363 16.936 95.3523 16.9467 94.9683 16.968C94.5843 16.9787 94.2909 16.9893 94.0883 17V16.664C94.5042 16.664 94.7976 16.584 94.9683 16.424C95.1496 16.264 95.2403 15.96 95.2403 15.512V10.488C95.2403 10.008 95.1603 9.656 95.0003 9.432C94.8403 9.19733 94.5363 9.08 94.0883 9.08V8.744C94.4296 8.776 94.7603 8.792 95.0803 8.792C95.4429 8.792 95.7789 8.776 96.0883 8.744C96.4083 8.70133 96.7016 8.64267 96.9683 8.568V10.408C97.0963 10.0987 97.2669 9.8 97.4803 9.512C97.6936 9.224 97.9496 8.98933 98.2483 8.808C98.5469 8.616 98.8776 8.52 99.2403 8.52Z" fill="#251B11"/>
<defs>
<clipPath id="clip0_338_1283">
<rect width="20" height="20" fill="white" transform="translate(15 28)"/>
</clipPath>
<clipPath id="clip1_338_1283">
<rect width="20" height="20" fill="white" transform="translate(43 28)"/>
</clipPath>
</defs>
</svg>
