<svg width="196" height="210" viewBox="0 0 196 210" fill="none" xmlns="http://www.w3.org/2000/svg">
<path d="M18.48 178.96C19.6107 178.96 20.4747 179.088 21.072 179.344C21.6693 179.6 22.192 179.877 22.64 180.176C22.896 180.325 23.0987 180.443 23.248 180.528C23.4187 180.592 23.5787 180.624 23.728 180.624C23.9413 180.624 24.0907 180.507 24.176 180.272C24.2827 180.037 24.368 179.685 24.432 179.216H25.168C25.1467 179.6 25.1147 180.059 25.072 180.592C25.0507 181.104 25.0293 181.787 25.008 182.64C25.008 183.493 25.008 184.613 25.008 186H24.272C24.208 184.955 23.9733 183.941 23.568 182.96C23.184 181.979 22.608 181.179 21.84 180.56C21.0933 179.941 20.1333 179.632 18.96 179.632C17.872 179.632 16.9653 179.963 16.24 180.624C15.536 181.264 15.184 182.117 15.184 183.184C15.184 184.123 15.4187 184.912 15.888 185.552C16.3573 186.171 16.9973 186.757 17.808 187.312C18.64 187.845 19.5787 188.443 20.624 189.104C21.6907 189.787 22.6507 190.469 23.504 191.152C24.3573 191.813 25.0293 192.549 25.52 193.36C26.0107 194.171 26.256 195.152 26.256 196.304C26.256 197.691 25.9253 198.843 25.264 199.76C24.624 200.656 23.76 201.328 22.672 201.776C21.584 202.224 20.3893 202.448 19.088 202.448C17.8933 202.448 16.944 202.32 16.24 202.064C15.536 201.808 14.9387 201.541 14.448 201.264C13.9787 200.965 13.616 200.816 13.36 200.816C13.1467 200.816 12.9867 200.933 12.88 201.168C12.7947 201.403 12.72 201.755 12.656 202.224H11.92C11.9627 201.755 11.984 201.211 11.984 200.592C12.0053 199.952 12.016 199.12 12.016 198.096C12.0373 197.072 12.048 195.781 12.048 194.224H12.784C12.8693 195.547 13.104 196.784 13.488 197.936C13.8933 199.088 14.5013 200.016 15.312 200.72C16.144 201.403 17.2427 201.744 18.608 201.744C19.3333 201.744 20.0053 201.605 20.624 201.328C21.2427 201.051 21.744 200.613 22.128 200.016C22.512 199.419 22.704 198.651 22.704 197.712C22.704 196.837 22.4907 196.069 22.064 195.408C21.6587 194.747 21.0827 194.139 20.336 193.584C19.6107 193.008 18.7573 192.421 17.776 191.824C16.7733 191.184 15.8347 190.544 14.96 189.904C14.0853 189.264 13.3813 188.517 12.848 187.664C12.336 186.811 12.08 185.797 12.08 184.624C12.08 183.323 12.3787 182.256 12.976 181.424C13.5947 180.592 14.384 179.973 15.344 179.568C16.3253 179.163 17.3707 178.96 18.48 178.96ZM36.614 185.04C38.0433 185.04 39.3127 185.339 40.422 185.936C41.5313 186.533 42.4167 187.472 43.078 188.752C43.7393 190.032 44.07 191.707 44.07 193.776C44.07 195.845 43.7393 197.52 43.078 198.8C42.4167 200.059 41.5313 200.987 40.422 201.584C39.3127 202.16 38.0433 202.448 36.614 202.448C35.206 202.448 33.9367 202.16 32.806 201.584C31.6753 200.987 30.7793 200.059 30.118 198.8C29.478 197.52 29.158 195.845 29.158 193.776C29.158 191.707 29.478 190.032 30.118 188.752C30.7793 187.472 31.6753 186.533 32.806 185.936C33.9367 185.339 35.206 185.04 36.614 185.04ZM36.614 185.68C35.5047 185.68 34.598 186.32 33.894 187.6C33.19 188.859 32.838 190.917 32.838 193.776C32.838 196.635 33.19 198.693 33.894 199.952C34.598 201.189 35.5047 201.808 36.614 201.808C37.702 201.808 38.598 201.189 39.302 199.952C40.0273 198.693 40.39 196.635 40.39 193.776C40.39 190.917 40.0273 188.859 39.302 187.6C38.598 186.32 37.702 185.68 36.614 185.68ZM60.9635 185.488V186.128C60.5582 186.192 60.1742 186.405 59.8115 186.768C59.4702 187.109 59.1502 187.707 58.8515 188.56L53.7955 202.128C53.6248 202.128 53.4435 202.128 53.2515 202.128C53.0808 202.128 52.9102 202.128 52.7395 202.128L46.9155 187.952C46.5742 187.12 46.2328 186.619 45.8915 186.448C45.5715 186.256 45.2942 186.16 45.0595 186.16V185.488C45.5715 185.531 46.0942 185.573 46.6275 185.616C47.1822 185.637 47.7902 185.648 48.4515 185.648C49.1128 185.648 49.8062 185.637 50.5315 185.616C51.2782 185.573 51.9715 185.531 52.6115 185.488V186.16C52.0995 186.16 51.6408 186.192 51.2355 186.256C50.8515 186.32 50.5955 186.512 50.4675 186.832C50.3608 187.131 50.4355 187.653 50.6915 188.4L54.6275 198.32L54.3715 198.576L57.6675 189.84C57.9875 188.987 58.1155 188.304 58.0515 187.792C57.9875 187.259 57.7635 186.864 57.3795 186.608C56.9955 186.331 56.4408 186.171 55.7155 186.128V185.488C56.0782 185.509 56.4088 185.531 56.7075 185.552C57.0275 185.552 57.3262 185.563 57.6035 185.584C57.9022 185.584 58.2115 185.584 58.5315 185.584C59.0008 185.584 59.4382 185.573 59.8435 185.552C60.2702 185.531 60.6435 185.509 60.9635 185.488ZM69.4875 185.04C71.3648 185.04 72.8368 185.605 73.9035 186.736C74.9702 187.867 75.5035 189.659 75.5035 192.112H64.4635L64.3995 191.504H72.1115C72.1328 190.459 72.0475 189.499 71.8555 188.624C71.6635 187.728 71.3648 187.013 70.9595 186.48C70.5542 185.947 70.0208 185.68 69.3595 185.68C68.4422 185.68 67.6422 186.171 66.9595 187.152C66.2982 188.112 65.8928 189.659 65.7435 191.792L65.8395 191.952C65.8182 192.251 65.7968 192.581 65.7755 192.944C65.7542 193.285 65.7435 193.627 65.7435 193.968C65.7435 195.44 65.9675 196.677 66.4155 197.68C66.8635 198.683 67.4502 199.44 68.1755 199.952C68.9008 200.443 69.6368 200.688 70.3835 200.688C70.9595 200.688 71.5142 200.603 72.0475 200.432C72.6022 200.24 73.1248 199.931 73.6155 199.504C74.1062 199.056 74.5435 198.448 74.9275 197.68L75.5675 197.936C75.3115 198.661 74.9168 199.376 74.3835 200.08C73.8502 200.784 73.1675 201.36 72.3355 201.808C71.5035 202.235 70.5328 202.448 69.4235 202.448C67.9302 202.448 66.6288 202.117 65.5195 201.456C64.4102 200.773 63.5568 199.803 62.9595 198.544C62.3622 197.285 62.0635 195.792 62.0635 194.064C62.0635 192.165 62.3728 190.544 62.9915 189.2C63.6102 187.856 64.4742 186.832 65.5835 186.128C66.7142 185.403 68.0155 185.04 69.4875 185.04ZM92.4323 185.488V186.128C92.0269 186.192 91.6429 186.405 91.2803 186.768C90.9389 187.109 90.6189 187.707 90.3203 188.56L85.2643 202.128C85.0936 202.128 84.9123 202.128 84.7203 202.128C84.5496 202.128 84.3789 202.128 84.2083 202.128L78.3843 187.952C78.0429 187.12 77.7016 186.619 77.3603 186.448C77.0403 186.256 76.7629 186.16 76.5282 186.16V185.488C77.0403 185.531 77.5629 185.573 78.0963 185.616C78.6509 185.637 79.2589 185.648 79.9203 185.648C80.5816 185.648 81.2749 185.637 82.0003 185.616C82.7469 185.573 83.4403 185.531 84.0803 185.488V186.16C83.5683 186.16 83.1096 186.192 82.7043 186.256C82.3203 186.32 82.0643 186.512 81.9363 186.832C81.8296 187.131 81.9043 187.653 82.1603 188.4L86.0963 198.32L85.8403 198.576L89.1363 189.84C89.4563 188.987 89.5843 188.304 89.5203 187.792C89.4563 187.259 89.2323 186.864 88.8483 186.608C88.4643 186.331 87.9096 186.171 87.1843 186.128V185.488C87.5469 185.509 87.8776 185.531 88.1763 185.552C88.4963 185.552 88.7949 185.563 89.0723 185.584C89.3709 185.584 89.6803 185.584 90.0003 185.584C90.4696 185.584 90.9069 185.573 91.3123 185.552C91.7389 185.531 92.1123 185.509 92.4323 185.488ZM97.402 202.224C95.994 202.224 94.97 201.872 94.33 201.168C93.7113 200.443 93.402 199.525 93.402 198.416C93.402 197.499 93.6153 196.752 94.042 196.176C94.4687 195.6 95.0127 195.131 95.674 194.768C96.3567 194.384 97.0713 194.064 97.818 193.808C98.586 193.531 99.3007 193.275 99.962 193.04C100.645 192.784 101.199 192.496 101.626 192.176C102.074 191.856 102.298 191.451 102.298 190.96V188.784C102.298 188.016 102.17 187.408 101.914 186.96C101.679 186.491 101.349 186.16 100.922 185.968C100.517 185.776 100.026 185.68 99.45 185.68C98.9593 185.68 98.4367 185.755 97.882 185.904C97.3273 186.032 96.89 186.299 96.57 186.704C97.0393 186.832 97.4233 187.088 97.722 187.472C98.042 187.835 98.202 188.293 98.202 188.848C98.202 189.445 97.9993 189.915 97.594 190.256C97.21 190.597 96.7193 190.768 96.122 190.768C95.4607 190.768 94.97 190.565 94.65 190.16C94.33 189.733 94.17 189.243 94.17 188.688C94.17 188.112 94.3087 187.643 94.586 187.28C94.8847 186.917 95.2687 186.576 95.738 186.256C96.25 185.915 96.9007 185.627 97.69 185.392C98.5007 185.157 99.3967 185.04 100.378 185.04C101.295 185.04 102.085 185.147 102.746 185.36C103.429 185.552 103.994 185.872 104.442 186.32C104.975 186.811 105.317 187.429 105.466 188.176C105.615 188.923 105.69 189.808 105.69 190.832L103.194 198.128C102.597 199.28 101.967 200.155 101.306 200.752C100.666 201.349 100.015 201.744 99.354 201.936C98.6927 202.128 98.042 202.224 97.402 202.224ZM99.13 200.688C99.7273 200.688 100.303 200.507 100.858 200.144C101.434 199.781 101.967 199.173 102.458 198.32L102.33 192.208C102.074 192.571 101.722 192.88 101.274 193.136C100.847 193.392 100.367 193.637 99.834 193.872C99.322 194.107 98.8313 194.395 98.362 194.736C97.914 195.056 97.5407 195.472 97.242 195.984C96.9433 196.475 96.794 197.115 96.794 197.904C96.794 198.864 97.018 199.568 97.466 200.016C97.914 200.464 98.4687 200.688 99.13 200.688ZM109.05 202.448C107.663 202.448 106.469 202.128 105.466 201.488C104.463 200.848 103.695 199.909 103.162 198.672C102.629 197.413 102.362 195.877 102.362 194.064C102.362 192.144 102.629 190.512 103.162 189.168C103.695 187.824 104.463 186.8 105.466 186.096C106.49 185.392 107.706 185.04 109.114 185.04C110.885 185.04 112.271 185.605 113.274 186.736C114.277 187.867 114.778 189.659 114.778 192.112H104.634L104.602 191.504H111.386C111.429 190.459 111.365 189.499 111.194 188.624C111.023 187.728 110.746 187.013 110.362 186.48C109.999 185.947 109.53 185.68 108.954 185.68C108.143 185.68 107.429 186.171 106.81 187.152C106.213 188.112 105.85 189.659 105.722 191.792L105.818 191.952C105.797 192.251 105.775 192.581 105.754 192.944C105.733 193.285 105.722 193.627 105.722 193.968C105.722 195.44 105.925 196.677 106.33 197.68C106.757 198.683 107.29 199.44 107.93 199.952C108.591 200.443 109.285 200.688 110.01 200.688C110.501 200.688 110.981 200.603 111.45 200.432C111.919 200.24 112.367 199.931 112.794 199.504C113.242 199.056 113.637 198.448 113.978 197.68L114.586 197.936C114.373 198.661 114.021 199.376 113.53 200.08C113.039 200.784 112.421 201.36 111.674 201.808C110.927 202.235 110.053 202.448 109.05 202.448ZM127.168 185.04C127.787 185.04 128.309 185.168 128.736 185.424C129.184 185.68 129.515 186.011 129.728 186.416C129.963 186.8 130.08 187.237 130.08 187.728C130.08 188.347 129.888 188.88 129.504 189.328C129.141 189.755 128.651 189.968 128.032 189.968C127.499 189.968 127.04 189.808 126.656 189.488C126.293 189.168 126.112 188.731 126.112 188.176C126.112 187.707 126.229 187.312 126.464 186.992C126.72 186.651 127.008 186.384 127.328 186.192C127.115 186.021 126.859 185.947 126.56 185.968C125.984 185.989 125.451 186.181 124.96 186.544C124.469 186.885 124.053 187.333 123.712 187.888C123.371 188.421 123.104 188.997 122.912 189.616C122.72 190.235 122.624 190.811 122.624 191.344V198.704C122.624 199.749 122.912 200.453 123.488 200.816C124.064 201.157 124.864 201.328 125.888 201.328V202C125.397 201.979 124.693 201.957 123.776 201.936C122.88 201.893 121.931 201.872 120.928 201.872C120.16 201.872 119.392 201.893 118.624 201.936C117.856 201.957 117.269 201.979 116.864 202V201.328C117.696 201.328 118.283 201.168 118.624 200.848C118.987 200.528 119.168 199.92 119.168 199.024V188.976C119.168 188.016 119.008 187.312 118.688 186.864C118.368 186.395 117.76 186.16 116.864 186.16V185.488C117.547 185.552 118.208 185.584 118.848 185.584C119.573 185.584 120.245 185.552 120.864 185.488C121.504 185.403 122.091 185.285 122.624 185.136V188.816C122.88 188.197 123.221 187.6 123.648 187.024C124.075 186.448 124.587 185.979 125.184 185.616C125.781 185.232 126.443 185.04 127.168 185.04ZM138.706 185.04C140.584 185.04 142.056 185.605 143.122 186.736C144.189 187.867 144.722 189.659 144.722 192.112H133.682L133.618 191.504H141.33C141.352 190.459 141.266 189.499 141.074 188.624C140.882 187.728 140.584 187.013 140.178 186.48C139.773 185.947 139.24 185.68 138.578 185.68C137.661 185.68 136.861 186.171 136.178 187.152C135.517 188.112 135.112 189.659 134.962 191.792L135.058 191.952C135.037 192.251 135.016 192.581 134.994 192.944C134.973 193.285 134.962 193.627 134.962 193.968C134.962 195.44 135.186 196.677 135.634 197.68C136.082 198.683 136.669 199.44 137.394 199.952C138.12 200.443 138.856 200.688 139.602 200.688C140.178 200.688 140.733 200.603 141.266 200.432C141.821 200.24 142.344 199.931 142.834 199.504C143.325 199.056 143.762 198.448 144.146 197.68L144.786 197.936C144.53 198.661 144.136 199.376 143.602 200.08C143.069 200.784 142.386 201.36 141.554 201.808C140.722 202.235 139.752 202.448 138.642 202.448C137.149 202.448 135.848 202.117 134.738 201.456C133.629 200.773 132.776 199.803 132.178 198.544C131.581 197.285 131.282 195.792 131.282 194.064C131.282 192.165 131.592 190.544 132.21 189.2C132.829 187.856 133.693 186.832 134.802 186.128C135.933 185.403 137.234 185.04 138.706 185.04ZM152.495 176.912V199.024C152.495 199.92 152.665 200.528 153.007 200.848C153.369 201.168 153.967 201.328 154.799 201.328V202C154.436 201.979 153.871 201.957 153.103 201.936C152.335 201.893 151.567 201.872 150.799 201.872C150.031 201.872 149.252 201.893 148.463 201.936C147.695 201.957 147.119 201.979 146.735 202V201.328C147.567 201.328 148.153 201.168 148.495 200.848C148.857 200.528 149.039 199.92 149.039 199.024V180.752C149.039 179.792 148.879 179.088 148.559 178.64C148.239 178.171 147.631 177.936 146.735 177.936V177.264C147.417 177.328 148.079 177.36 148.719 177.36C149.423 177.36 150.095 177.328 150.735 177.264C151.375 177.179 151.961 177.061 152.495 176.912ZM162.285 185.04C163.138 185.04 163.874 185.179 164.493 185.456C165.133 185.712 165.591 185.947 165.869 186.16C166.573 186.715 167.01 186.352 167.181 185.072H167.885C167.842 185.669 167.81 186.395 167.789 187.248C167.767 188.08 167.757 189.189 167.757 190.576H167.053C166.925 189.787 166.701 189.019 166.381 188.272C166.082 187.525 165.634 186.907 165.037 186.416C164.461 185.925 163.703 185.68 162.765 185.68C162.061 185.68 161.474 185.883 161.005 186.288C160.535 186.672 160.301 187.248 160.301 188.016C160.301 188.656 160.493 189.211 160.877 189.68C161.261 190.149 161.751 190.587 162.349 190.992C162.967 191.397 163.629 191.835 164.333 192.304C165.122 192.837 165.826 193.371 166.445 193.904C167.085 194.416 167.586 194.992 167.949 195.632C168.333 196.272 168.525 197.019 168.525 197.872C168.525 198.853 168.258 199.685 167.725 200.368C167.213 201.051 166.53 201.573 165.677 201.936C164.823 202.277 163.885 202.448 162.861 202.448C162.349 202.448 161.869 202.395 161.421 202.288C160.973 202.203 160.557 202.085 160.173 201.936C159.938 201.808 159.703 201.68 159.469 201.552C159.255 201.403 159.042 201.264 158.829 201.136C158.615 200.987 158.423 201.008 158.253 201.2C158.082 201.392 157.954 201.733 157.869 202.224H157.165C157.207 201.541 157.239 200.709 157.261 199.728C157.282 198.747 157.293 197.445 157.293 195.824H157.997C158.146 196.997 158.37 198.032 158.669 198.928C158.967 199.824 159.405 200.528 159.981 201.04C160.578 201.531 161.389 201.776 162.413 201.776C162.818 201.776 163.223 201.691 163.629 201.52C164.034 201.328 164.365 201.029 164.621 200.624C164.898 200.219 165.037 199.675 165.037 198.992C165.037 198.053 164.706 197.285 164.045 196.688C163.405 196.069 162.573 195.419 161.549 194.736C160.823 194.224 160.13 193.723 159.469 193.232C158.829 192.72 158.306 192.155 157.901 191.536C157.495 190.896 157.293 190.139 157.293 189.264C157.293 188.304 157.517 187.515 157.965 186.896C158.434 186.277 159.053 185.819 159.821 185.52C160.589 185.2 161.41 185.04 162.285 185.04ZM178.738 185.04C180.615 185.04 182.087 185.605 183.154 186.736C184.22 187.867 184.754 189.659 184.754 192.112H173.714L173.65 191.504H181.362C181.383 190.459 181.298 189.499 181.106 188.624C180.914 187.728 180.615 187.013 180.21 186.48C179.804 185.947 179.271 185.68 178.61 185.68C177.692 185.68 176.892 186.171 176.21 187.152C175.548 188.112 175.143 189.659 174.994 191.792L175.09 191.952C175.068 192.251 175.047 192.581 175.026 192.944C175.004 193.285 174.994 193.627 174.994 193.968C174.994 195.44 175.218 196.677 175.666 197.68C176.114 198.683 176.7 199.44 177.426 199.952C178.151 200.443 178.887 200.688 179.634 200.688C180.21 200.688 180.764 200.603 181.298 200.432C181.852 200.24 182.375 199.931 182.866 199.504C183.356 199.056 183.794 198.448 184.178 197.68L184.818 197.936C184.562 198.661 184.167 199.376 183.634 200.08C183.1 200.784 182.418 201.36 181.586 201.808C180.754 202.235 179.783 202.448 178.674 202.448C177.18 202.448 175.879 202.117 174.77 201.456C173.66 200.773 172.807 199.803 172.21 198.544C171.612 197.285 171.314 195.792 171.314 194.064C171.314 192.165 171.623 190.544 172.242 189.2C172.86 187.856 173.724 186.832 174.834 186.128C175.964 185.403 177.266 185.04 178.738 185.04Z" fill="#251B11"/>
<path d="M90.9633 79.1212C94.1497 78.0296 97.2759 76.6761 100.533 75.9338C103.146 75.3334 105.91 75.4644 108.554 75.2679C108.554 69.1224 108.644 63.4791 108.524 57.8466C108.433 53.6332 105.8 52.7053 102.523 52.9346C92.4711 53.6441 82.4193 54.3318 72.3675 55.1286C66.9998 55.5543 61.6522 56.3403 56.2846 56.6896C53.1987 56.8969 51.329 58.4033 51.3089 61.6562C51.2084 77.2982 51.2587 92.9512 51.2587 109.019C57.6717 110.809 63.9943 111.977 68.8493 116.78" stroke="#251B11" stroke-width="2" stroke-linecap="round" stroke-linejoin="round"/>
<path d="M178.414 105.319C177.409 102.775 175.761 100.298 175.52 97.6669C174.916 91.0411 173.972 89.0217 168.353 87.9193C158.844 86.0636 149.304 84.0551 139.695 83.171C135.111 82.7453 130.337 84.7865 125.642 85.6597C116.767 87.3189 107.931 89.371 98.9951 90.4298C92.3508 91.2158 89.4257 95.4401 87.4254 101.476C85.5658 107.065 83.4952 112.578 81.515 118.134H72.2773C74.6496 114.914 76.0769 115.918 77.4038 117.861" stroke="#251B11" stroke-width="2" stroke-linecap="round" stroke-linejoin="round"/>
<path d="M134.187 126.604C138.207 126.964 142.228 127.619 146.249 127.641C162.502 127.761 178.746 127.696 195 127.696" stroke="#251B11" stroke-width="2" stroke-linecap="round" stroke-linejoin="round"/>
<path d="M173.891 93.8572C172.373 93.1586 170.865 92.4491 169.348 91.7505C169.418 92.0234 169.488 92.2853 169.549 92.5582C155.918 95.9093 142.288 99.2495 128.658 102.633C128.266 102.732 127.984 103.332 127.643 103.692" stroke="#251B11" stroke-width="2" stroke-linecap="round" stroke-linejoin="round"/>
<path d="M43.2174 98.2236C43.9009 103.441 44.5845 108.659 45.2378 113.571C38.5031 119.138 31.6578 117.632 25.1242 117.828C22.7821 117.904 20.43 117.501 18.0879 117.326" stroke="#251B11" stroke-width="2" stroke-linecap="round" stroke-linejoin="round"/>
<path d="M178.415 110.776C172.716 113.145 167.016 115.492 161.327 117.872C154.451 120.764 147.586 123.69 140.721 126.604" stroke="#251B11" stroke-width="2" stroke-linecap="round" stroke-linejoin="round"/>
<path d="M176.404 105.319C175.61 106.978 174.806 108.637 173.951 110.427C161.869 114.357 149.787 118.297 136.991 122.456C132.156 118.035 129.552 111.551 126.647 105.308" stroke="#251B11" stroke-width="2" stroke-linecap="round" stroke-linejoin="round"/>
<path d="M17.0827 116.78C13.9666 115.339 12.7001 112.85 13.0117 109.139C13.253 106.257 13.062 103.321 13.062 99.9155C23.1439 99.4243 33.437 100.385 43.3179 96.4225C37.3069 92.34 30.7833 92.3291 24.119 93.3224" stroke="#251B11" stroke-width="2" stroke-linecap="round" stroke-linejoin="round"/>
<path d="M117.098 105.319C119.702 112.392 117.541 118.931 114.394 124.847C113.058 127.357 109.64 128.558 107.79 129.912C98.3417 125.513 90.1293 121.692 81.917 117.872" stroke="#251B11" stroke-width="2" stroke-linecap="round" stroke-linejoin="round"/>
<path d="M93.9795 92.7656C98.8747 97.9505 105.69 97.9069 111.58 100.385C113.601 101.236 115.701 101.847 117.32 102.404C116.455 105.209 115.712 107.425 115.098 109.685C113.57 115.274 110.193 119.323 106.052 122.794C104.644 123.973 103.358 125.327 102.021 126.604" stroke="#251B11" stroke-width="2" stroke-linecap="round" stroke-linejoin="round"/>
<path d="M123.129 108.048C125.722 110.799 126.315 113.844 125.813 117.894C125.24 122.511 125.974 127.325 126.144 132.062" stroke="#251B11" stroke-width="2" stroke-linecap="round" stroke-linejoin="round"/>
<path d="M137.705 81.8503C135.523 81.4901 133.322 80.6714 131.171 80.8351C119.913 81.6647 108.675 82.7453 96.5726 83.8042C89.0941 77.5386 78.1275 75.9667 70.9003 80.7369C70.5384 80.0274 70.1765 79.3178 69.7041 78.39C70.6992 78.4555 71.5335 78.521 72.3678 78.5756" stroke="#251B11" stroke-width="2" stroke-linecap="round" stroke-linejoin="round"/>
<path d="M36.684 77.4842C41.7401 73.8602 42.896 68.1295 43.851 60.6741C43.6399 60.1065 43.0468 58.5565 42.8056 57.8906C36.2317 61.1326 30.7233 61.4928 28.15 67.1143C26.3307 71.0985 28.6024 74.9736 34.1711 77.4842" stroke="#251B11" stroke-width="2" stroke-linecap="round" stroke-linejoin="round"/>
<path d="M95.4865 84.0332C84.9221 87.4498 74.3174 89.4474 63.2906 86.3582C61.1697 85.7688 58.5964 87.0678 55.2793 87.6572V95.4837" stroke="#251B11" stroke-width="2" stroke-linecap="round" stroke-linejoin="round"/>
<path d="M108.052 129.879C116.445 136.428 125.271 135.555 131.714 127.739C133.282 125.84 135.363 124.421 137.202 122.784" stroke="#251B11" stroke-width="2" stroke-linecap="round" stroke-linejoin="round"/>
<path d="M17.0829 117.872C11.7253 118.058 6.35762 118.232 1 118.418" stroke="#251B11" stroke-width="2" stroke-linecap="round" stroke-linejoin="round"/>
<path d="M118.104 102.59C123.059 102.339 127.572 104.129 131.08 107.611C134.83 111.322 137.875 115.874 141.223 120.055" stroke="#251B11" stroke-width="2" stroke-linecap="round" stroke-linejoin="round"/>
<path d="M43.7207 96.586C53.1191 94.9378 61.9446 96.9135 70.358 101.498" stroke="#251B11" stroke-width="2" stroke-linecap="round" stroke-linejoin="round"/>
<path d="M41.71 61.1104C37.8601 65.4766 34.0002 69.8428 30.1504 74.2091" stroke="#251B11" stroke-width="2" stroke-linecap="round" stroke-linejoin="round"/>
<path d="M19.5959 72.0261C20.9026 71.7969 22.2093 71.5677 24.079 71.2293C23.2949 72.7575 22.9331 73.4779 22.5612 74.2093C20.2291 73.1614 17.8368 72.0916 14.8414 70.749C14.6403 77.222 18.0982 78.4664 21.5962 79.6671C24.8831 78.0734 26.7628 75.9339 24.1192 72.0261" stroke="#251B11" stroke-width="2" stroke-linecap="round" stroke-linejoin="round"/>
<path d="M23.1144 92.7656C19.8275 93.6498 16.5406 94.5449 13.2637 95.429C13.334 95.8875 13.4044 96.3459 13.4647 96.8044C14.3392 97.2738 15.2037 97.7541 16.0782 98.2234" stroke="#251B11" stroke-width="2" stroke-linecap="round" stroke-linejoin="round"/>
<path d="M77.3939 88.3994C72.8606 93.6171 70.9206 100.057 69.8048 106.945C69.4731 109.008 68.5182 110.962 67.8447 112.96" stroke="#251B11" stroke-width="2" stroke-linecap="round" stroke-linejoin="round"/>
<path d="M176.404 95.4946C180.033 100.156 183.662 104.806 187.28 109.467C186.979 109.914 186.687 110.373 186.386 110.82C183.893 110.482 181.4 110.143 178.917 109.805V98.7693" stroke="#251B11" stroke-width="2" stroke-linecap="round" stroke-linejoin="round"/>
<path d="M118.606 80.7586C119.742 77.9533 117.49 77.5603 116.073 77.0036C113.982 76.1849 111.741 75.8466 109.56 75.3008" stroke="#251B11" stroke-width="2" stroke-linecap="round" stroke-linejoin="round"/>
<path d="M69.3518 78.5757C66.3362 80.3986 63.3106 82.1888 60.3353 84.0881C60.1141 84.23 60.3051 85.1251 60.3051 85.6708" stroke="#251B11" stroke-width="2" stroke-linecap="round" stroke-linejoin="round"/>
<path d="M127.15 116.234C128.829 119.149 130.498 122.052 132.176 124.967" stroke="#251B11" stroke-width="2" stroke-linecap="round" stroke-linejoin="round"/>
<path d="M33.669 98.7691C34.835 95.3088 36.001 91.8486 37.4384 87.5806H22.1094C23.1849 90.8443 24.4012 94.5338 25.6275 98.2233" stroke="#251B11" stroke-width="2" stroke-linecap="round" stroke-linejoin="round"/>
<path d="M70.3579 80.7583C68.1767 82.5812 66.0055 84.3932 63.8242 86.2161" stroke="#251B11" stroke-width="2" stroke-linecap="round" stroke-linejoin="round"/>
<path d="M34.6736 81.8502C36.5131 84.9939 38.3626 83.5094 41.2173 81.5992C39.0863 80.4421 37.6891 79.6671 36.8749 79.2305C32.814 82.0467 29.2155 84.5464 25.627 87.046" stroke="#251B11" stroke-width="2" stroke-linecap="round" stroke-linejoin="round"/>
<path d="M25.627 76.938C26.3004 79.4813 26.9638 82.0356 27.6373 84.5789" stroke="#251B11" stroke-width="2" stroke-linecap="round" stroke-linejoin="round"/>
<path d="M72.8704 117.872C71.4833 117.489 70.0961 117.107 68.709 116.714C68.7995 116.169 68.8799 115.623 68.9703 115.077L73.8756 115.688" stroke="#251B11" stroke-width="2" stroke-linecap="round" stroke-linejoin="round"/>
</svg>
