<svg width="194" height="209" viewBox="0 0 194 209" fill="none" xmlns="http://www.w3.org/2000/svg">
<path d="M36.48 177.96C37.6107 177.96 38.4747 178.088 39.072 178.344C39.6693 178.6 40.192 178.877 40.64 179.176C40.896 179.325 41.0987 179.443 41.248 179.528C41.4187 179.592 41.5787 179.624 41.728 179.624C41.9413 179.624 42.0907 179.507 42.176 179.272C42.2827 179.037 42.368 178.685 42.432 178.216H43.168C43.1467 178.6 43.1147 179.059 43.072 179.592C43.0507 180.104 43.0293 180.787 43.008 181.64C43.008 182.493 43.008 183.613 43.008 185H42.272C42.208 183.955 41.9733 182.941 41.568 181.96C41.184 180.979 40.608 180.179 39.84 179.56C39.0933 178.941 38.1333 178.632 36.96 178.632C35.872 178.632 34.9653 178.963 34.24 179.624C33.536 180.264 33.184 181.117 33.184 182.184C33.184 183.123 33.4187 183.912 33.888 184.552C34.3573 185.171 34.9973 185.757 35.808 186.312C36.64 186.845 37.5787 187.443 38.624 188.104C39.6907 188.787 40.6507 189.469 41.504 190.152C42.3573 190.813 43.0293 191.549 43.52 192.36C44.0107 193.171 44.256 194.152 44.256 195.304C44.256 196.691 43.9253 197.843 43.264 198.76C42.624 199.656 41.76 200.328 40.672 200.776C39.584 201.224 38.3893 201.448 37.088 201.448C35.8933 201.448 34.944 201.32 34.24 201.064C33.536 200.808 32.9387 200.541 32.448 200.264C31.9787 199.965 31.616 199.816 31.36 199.816C31.1467 199.816 30.9867 199.933 30.88 200.168C30.7947 200.403 30.72 200.755 30.656 201.224H29.92C29.9627 200.755 29.984 200.211 29.984 199.592C30.0053 198.952 30.016 198.12 30.016 197.096C30.0373 196.072 30.048 194.781 30.048 193.224H30.784C30.8693 194.547 31.104 195.784 31.488 196.936C31.8933 198.088 32.5013 199.016 33.312 199.72C34.144 200.403 35.2427 200.744 36.608 200.744C37.3333 200.744 38.0053 200.605 38.624 200.328C39.2427 200.051 39.744 199.613 40.128 199.016C40.512 198.419 40.704 197.651 40.704 196.712C40.704 195.837 40.4907 195.069 40.064 194.408C39.6587 193.747 39.0827 193.139 38.336 192.584C37.6107 192.008 36.7573 191.421 35.776 190.824C34.7733 190.184 33.8347 189.544 32.96 188.904C32.0853 188.264 31.3813 187.517 30.848 186.664C30.336 185.811 30.08 184.797 30.08 183.624C30.08 182.323 30.3787 181.256 30.976 180.424C31.5947 179.592 32.384 178.973 33.344 178.568C34.3253 178.163 35.3707 177.96 36.48 177.96ZM52.182 184.136V203.752C52.182 204.691 52.4487 205.32 52.982 205.64C53.5153 205.96 54.2513 206.12 55.19 206.12V206.792C54.6993 206.771 54.0167 206.739 53.142 206.696C52.2673 206.675 51.3287 206.664 50.326 206.664C49.622 206.664 48.9287 206.675 48.246 206.696C47.5633 206.739 47.0407 206.771 46.678 206.792V206.12C47.4247 206.12 47.9473 205.971 48.246 205.672C48.566 205.395 48.726 204.861 48.726 204.072V187.976C48.726 187.016 48.566 186.312 48.246 185.864C47.926 185.395 47.318 185.16 46.422 185.16V184.488C47.1047 184.552 47.766 184.584 48.406 184.584C49.11 184.584 49.782 184.552 50.422 184.488C51.062 184.403 51.6487 184.285 52.182 184.136ZM57.27 184.04C58.3793 184.04 59.3713 184.349 60.246 184.968C61.142 185.565 61.846 186.451 62.358 187.624C62.87 188.797 63.126 190.259 63.126 192.008C63.126 193.288 62.9767 194.504 62.678 195.656C62.3793 196.787 61.9207 197.789 61.302 198.664C60.7047 199.517 59.9473 200.2 59.03 200.712C58.1127 201.203 57.0247 201.448 55.766 201.448C54.8273 201.448 53.9953 201.245 53.27 200.84C52.566 200.435 52.0647 199.923 51.766 199.304L52.086 198.856C52.3633 199.389 52.7473 199.827 53.238 200.168C53.75 200.509 54.3793 200.68 55.126 200.68C56.2353 200.68 57.0993 200.328 57.718 199.624C58.358 198.899 58.806 197.928 59.062 196.712C59.318 195.475 59.446 194.077 59.446 192.52C59.446 190.771 59.318 189.363 59.062 188.296C58.806 187.208 58.422 186.419 57.91 185.928C57.398 185.416 56.7793 185.16 56.054 185.16C55.094 185.16 54.2193 185.544 53.43 186.312C52.662 187.08 52.1927 188.232 52.022 189.768L51.702 189.096C51.9793 187.496 52.6193 186.259 53.622 185.384C54.646 184.488 55.862 184.04 57.27 184.04ZM69.2352 176.424C69.8966 176.424 70.4513 176.637 70.8993 177.064C71.3473 177.469 71.5713 177.981 71.5713 178.6C71.5713 179.219 71.3473 179.741 70.8993 180.168C70.4513 180.573 69.8966 180.776 69.2352 180.776C68.5739 180.776 68.0193 180.573 67.5713 180.168C67.1233 179.741 66.8993 179.219 66.8993 178.6C66.8993 177.981 67.1233 177.469 67.5713 177.064C68.0193 176.637 68.5739 176.424 69.2352 176.424ZM71.1553 184.136V198.024C71.1553 198.92 71.3259 199.528 71.6673 199.848C72.0299 200.168 72.6273 200.328 73.4593 200.328V201C73.0966 200.979 72.5313 200.957 71.7633 200.936C71.0166 200.893 70.2486 200.872 69.4593 200.872C68.7126 200.872 67.9446 200.893 67.1553 200.936C66.3659 200.957 65.7793 200.979 65.3953 201V200.328C66.2272 200.328 66.8139 200.168 67.1553 199.848C67.5179 199.528 67.6993 198.92 67.6993 198.024V187.976C67.6993 187.016 67.5393 186.312 67.2193 185.864C66.8993 185.395 66.2913 185.16 65.3953 185.16V184.488C66.0779 184.552 66.7393 184.584 67.3793 184.584C68.1046 184.584 68.7766 184.552 69.3953 184.488C70.0353 184.403 70.6219 184.285 71.1553 184.136ZM80.941 184.04C81.7943 184.04 82.5303 184.179 83.149 184.456C83.789 184.712 84.2477 184.947 84.525 185.16C85.229 185.715 85.6663 185.352 85.837 184.072H86.541C86.4983 184.669 86.4663 185.395 86.445 186.248C86.4237 187.08 86.413 188.189 86.413 189.576H85.709C85.581 188.787 85.357 188.019 85.037 187.272C84.7383 186.525 84.2903 185.907 83.693 185.416C83.117 184.925 82.3597 184.68 81.421 184.68C80.717 184.68 80.1303 184.883 79.661 185.288C79.1917 185.672 78.957 186.248 78.957 187.016C78.957 187.656 79.149 188.211 79.533 188.68C79.917 189.149 80.4077 189.587 81.005 189.992C81.6237 190.397 82.285 190.835 82.989 191.304C83.7783 191.837 84.4823 192.371 85.101 192.904C85.741 193.416 86.2423 193.992 86.605 194.632C86.989 195.272 87.181 196.019 87.181 196.872C87.181 197.853 86.9143 198.685 86.381 199.368C85.869 200.051 85.1863 200.573 84.333 200.936C83.4797 201.277 82.541 201.448 81.517 201.448C81.005 201.448 80.525 201.395 80.077 201.288C79.629 201.203 79.213 201.085 78.829 200.936C78.5943 200.808 78.3597 200.68 78.125 200.552C77.9117 200.403 77.6983 200.264 77.485 200.136C77.2717 199.987 77.0797 200.008 76.909 200.2C76.7383 200.392 76.6103 200.733 76.525 201.224H75.821C75.8637 200.541 75.8957 199.709 75.917 198.728C75.9383 197.747 75.949 196.445 75.949 194.824H76.653C76.8023 195.997 77.0263 197.032 77.325 197.928C77.6237 198.824 78.061 199.528 78.637 200.04C79.2343 200.531 80.045 200.776 81.069 200.776C81.4743 200.776 81.8797 200.691 82.285 200.52C82.6903 200.328 83.021 200.029 83.277 199.624C83.5543 199.219 83.693 198.675 83.693 197.992C83.693 197.053 83.3623 196.285 82.701 195.688C82.061 195.069 81.229 194.419 80.205 193.736C79.4797 193.224 78.7863 192.723 78.125 192.232C77.485 191.72 76.9623 191.155 76.557 190.536C76.1517 189.896 75.949 189.139 75.949 188.264C75.949 187.304 76.173 186.515 76.621 185.896C77.0903 185.277 77.709 184.819 78.477 184.52C79.245 184.2 80.0663 184.04 80.941 184.04ZM97.3938 184.04C99.2711 184.04 100.743 184.605 101.81 185.736C102.876 186.867 103.41 188.659 103.41 191.112H92.3698L92.3058 190.504H100.018C100.039 189.459 99.9538 188.499 99.7618 187.624C99.5698 186.728 99.2711 186.013 98.8658 185.48C98.4604 184.947 97.9271 184.68 97.2658 184.68C96.3484 184.68 95.5484 185.171 94.8658 186.152C94.2044 187.112 93.7991 188.659 93.6498 190.792L93.7458 190.952C93.7244 191.251 93.7031 191.581 93.6818 191.944C93.6604 192.285 93.6498 192.627 93.6498 192.968C93.6498 194.44 93.8738 195.677 94.3218 196.68C94.7698 197.683 95.3564 198.44 96.0818 198.952C96.8071 199.443 97.5431 199.688 98.2898 199.688C98.8658 199.688 99.4204 199.603 99.9538 199.432C100.508 199.24 101.031 198.931 101.522 198.504C102.012 198.056 102.45 197.448 102.834 196.68L103.474 196.936C103.218 197.661 102.823 198.376 102.29 199.08C101.756 199.784 101.074 200.36 100.242 200.808C99.4098 201.235 98.4391 201.448 97.3298 201.448C95.8364 201.448 94.5351 201.117 93.4258 200.456C92.3164 199.773 91.4631 198.803 90.8658 197.544C90.2684 196.285 89.9698 194.792 89.9698 193.064C89.9698 191.165 90.2791 189.544 90.8978 188.2C91.5164 186.856 92.3804 185.832 93.4898 185.128C94.6204 184.403 95.9218 184.04 97.3938 184.04ZM111.566 184.04C112.419 184.04 113.155 184.179 113.774 184.456C114.414 184.712 114.873 184.947 115.15 185.16C115.854 185.715 116.291 185.352 116.462 184.072H117.166C117.123 184.669 117.091 185.395 117.07 186.248C117.049 187.08 117.038 188.189 117.038 189.576H116.334C116.206 188.787 115.982 188.019 115.662 187.272C115.363 186.525 114.915 185.907 114.318 185.416C113.742 184.925 112.985 184.68 112.046 184.68C111.342 184.68 110.755 184.883 110.286 185.288C109.817 185.672 109.582 186.248 109.582 187.016C109.582 187.656 109.774 188.211 110.158 188.68C110.542 189.149 111.033 189.587 111.63 189.992C112.249 190.397 112.91 190.835 113.614 191.304C114.403 191.837 115.107 192.371 115.726 192.904C116.366 193.416 116.867 193.992 117.23 194.632C117.614 195.272 117.806 196.019 117.806 196.872C117.806 197.853 117.539 198.685 117.006 199.368C116.494 200.051 115.811 200.573 114.958 200.936C114.105 201.277 113.166 201.448 112.142 201.448C111.63 201.448 111.15 201.395 110.702 201.288C110.254 201.203 109.838 201.085 109.454 200.936C109.219 200.808 108.985 200.68 108.75 200.552C108.537 200.403 108.323 200.264 108.11 200.136C107.897 199.987 107.705 200.008 107.534 200.2C107.363 200.392 107.235 200.733 107.15 201.224H106.446C106.489 200.541 106.521 199.709 106.542 198.728C106.563 197.747 106.574 196.445 106.574 194.824H107.278C107.427 195.997 107.651 197.032 107.95 197.928C108.249 198.824 108.686 199.528 109.262 200.04C109.859 200.531 110.67 200.776 111.694 200.776C112.099 200.776 112.505 200.691 112.91 200.52C113.315 200.328 113.646 200.029 113.902 199.624C114.179 199.219 114.318 198.675 114.318 197.992C114.318 197.053 113.987 196.285 113.326 195.688C112.686 195.069 111.854 194.419 110.83 193.736C110.105 193.224 109.411 192.723 108.75 192.232C108.11 191.72 107.587 191.155 107.182 190.536C106.777 189.896 106.574 189.139 106.574 188.264C106.574 187.304 106.798 186.515 107.246 185.896C107.715 185.277 108.334 184.819 109.102 184.52C109.87 184.2 110.691 184.04 111.566 184.04ZM125.683 179.208V184.52H130.099V185.16H125.683V197.736C125.683 198.611 125.843 199.229 126.163 199.592C126.483 199.955 126.941 200.136 127.539 200.136C128.093 200.136 128.584 199.912 129.011 199.464C129.459 199.016 129.843 198.259 130.163 197.192L130.771 197.416C130.515 198.547 130.056 199.507 129.395 200.296C128.755 201.064 127.805 201.448 126.547 201.448C125.821 201.448 125.213 201.352 124.723 201.16C124.232 200.989 123.805 200.733 123.443 200.392C122.973 199.901 122.653 199.315 122.483 198.632C122.312 197.949 122.227 197.043 122.227 195.912V185.16H119.283V184.52H122.227V179.848C122.888 179.827 123.507 179.773 124.083 179.688C124.659 179.581 125.192 179.421 125.683 179.208ZM146.372 184.136V197.544C146.372 198.504 146.532 199.219 146.852 199.688C147.193 200.136 147.801 200.36 148.676 200.36V201.032C148.015 200.968 147.353 200.936 146.692 200.936C145.988 200.936 145.316 200.968 144.676 201.032C144.036 201.096 143.449 201.213 142.916 201.384V197.896C142.383 199.176 141.636 200.093 140.676 200.648C139.737 201.181 138.745 201.448 137.7 201.448C136.911 201.448 136.239 201.331 135.684 201.096C135.129 200.883 134.671 200.595 134.308 200.232C133.924 199.805 133.657 199.261 133.508 198.6C133.359 197.917 133.284 197.064 133.284 196.04V187.976C133.284 187.016 133.124 186.312 132.804 185.864C132.484 185.395 131.876 185.16 130.98 185.16V184.488C131.663 184.552 132.324 184.584 132.964 184.584C133.668 184.584 134.34 184.552 134.98 184.488C135.62 184.403 136.207 184.285 136.74 184.136V196.936C136.74 197.555 136.783 198.12 136.868 198.632C136.953 199.144 137.156 199.549 137.476 199.848C137.796 200.147 138.308 200.296 139.012 200.296C139.759 200.296 140.42 200.072 140.996 199.624C141.593 199.176 142.063 198.568 142.404 197.8C142.745 197.032 142.916 196.168 142.916 195.208V187.976C142.916 187.016 142.756 186.312 142.436 185.864C142.116 185.395 141.508 185.16 140.612 185.16V184.488C141.295 184.552 141.956 184.584 142.596 184.584C143.3 184.584 143.972 184.552 144.612 184.488C145.252 184.403 145.839 184.285 146.372 184.136ZM158.144 184.04C160.021 184.04 161.493 184.605 162.56 185.736C163.626 186.867 164.16 188.659 164.16 191.112H153.12L153.056 190.504H160.768C160.789 189.459 160.704 188.499 160.512 187.624C160.32 186.728 160.021 186.013 159.616 185.48C159.21 184.947 158.677 184.68 158.016 184.68C157.098 184.68 156.298 185.171 155.616 186.152C154.954 187.112 154.549 188.659 154.4 190.792L154.496 190.952C154.474 191.251 154.453 191.581 154.432 191.944C154.41 192.285 154.4 192.627 154.4 192.968C154.4 194.44 154.624 195.677 155.072 196.68C155.52 197.683 156.106 198.44 156.832 198.952C157.557 199.443 158.293 199.688 159.04 199.688C159.616 199.688 160.17 199.603 160.704 199.432C161.258 199.24 161.781 198.931 162.272 198.504C162.762 198.056 163.2 197.448 163.584 196.68L164.224 196.936C163.968 197.661 163.573 198.376 163.04 199.08C162.506 199.784 161.824 200.36 160.992 200.808C160.16 201.235 159.189 201.448 158.08 201.448C156.586 201.448 155.285 201.117 154.176 200.456C153.066 199.773 152.213 198.803 151.616 197.544C151.018 196.285 150.72 194.792 150.72 193.064C150.72 191.165 151.029 189.544 151.648 188.2C152.266 186.856 153.13 185.832 154.24 185.128C155.37 184.403 156.672 184.04 158.144 184.04Z" fill="#251B11"/>
<g clip-path="url(#clip0_329_1139)">
<path d="M46.1135 82.8542C47.2971 79.9274 49.4525 79.5192 51.6864 79.4894C55.386 79.4495 59.1796 78.8522 62.7537 79.6885C67.3704 80.7736 67.9425 78.1056 67.5977 73.5162C67.4487 71.6048 67.5036 69.6735 67.4722 67.7522C67.3416 58.8191 70.8452 54.691 77.9831 55.3679C82.004 55.7462 86.7461 54.462 89.9048 56.7517C98.7305 63.123 108.222 58.5237 117.15 61.1021C120.215 61.9881 121.931 60.7338 122.3 56.5426C122.629 52.7397 123.373 48.9966 123.718 45.1937C124.016 41.9184 125.411 40.9428 127.794 41.0026C143.368 41.4406 141.777 39.4197 140.938 58.5635C140.766 62.6053 139.731 66.7865 140.264 70.6392C140.86 74.9498 139.63 76.9807 136.863 78.3047C137.403 80.017 138.383 79.4495 139.104 79.5391C146.294 80.4019 150.271 76.2705 151.034 67.1449C151.05 66.9359 151.05 66.7168 151.065 66.5078C152.116 51.9533 154.428 49.4346 165.738 50.1116C167.964 50.241 168.834 51.3361 168.317 54.0737C164.766 73.0683 167.165 92.3515 166.538 111.485C166.365 116.652 168.003 118.126 171.852 118.016C180.889 117.757 189.926 117.936 198.964 117.936C198.979 118.504 198.995 119.071 199.011 119.649C195.186 119.649 191.361 119.649 187.536 119.649C182.323 119.649 177.111 119.798 171.907 119.589C169.014 119.469 166.624 119.858 166.091 126.199C163.81 117.18 159.162 120.146 155.431 119.728C151.857 119.33 152.892 123.929 151.081 127.035C149.529 117.19 143.933 119.469 139.324 119.768C134.989 120.047 129.111 116.334 127.41 128.22C125.819 117.439 121.061 119.38 116.648 120.306C114.007 120.863 111.35 122.197 108.748 122.038C104.178 121.769 101.137 122.924 101.874 129.883C99.7572 129.315 99.7964 127.404 99.6945 125.811C99.5143 123.033 98.315 122.167 96.3163 122.347C94.302 122.526 93.9492 124.288 93.8552 126.358C93.6514 130.928 93.9649 135.597 92.4365 140.186C90.3516 138.056 90.5475 135.348 90.6102 132.889C90.7827 126.12 88.2275 119.927 89.2542 112.68C90.3045 105.273 84.2927 108.927 81.4867 107.623C78.4847 106.229 78.038 108.877 77.599 112.063C76.8466 117.558 77.5677 123.412 75.3652 130.002C73.1157 122.386 73.7976 115.756 72.9511 109.245C70.6075 119.012 72.9511 129.853 68.5853 141.013C66.3514 129.056 69.5258 118.683 68.0758 108.409C67.0333 113.247 68.9458 118.633 66.3906 123.77C64.3841 120.186 64.6662 116.493 64.1803 113.018C63.1143 114.024 63.8354 116.572 61.3115 117.02C61.3115 112.799 61.2331 108.668 61.335 104.537C61.4213 100.843 60.3161 99.3002 57.2514 99.0414C45.1808 98.016 45.2043 97.8965 42.9783 112.74C42.4845 116.045 42.4845 119.539 40.862 122.546C38.7144 121.132 39.7177 118.882 39.8196 116.911C39.9293 114.8 40.0547 112.69 39.796 110.032C39.1612 120.126 33.8705 119.947 28.2192 119.698C20.4987 119.36 12.7625 119.499 5.02637 119.43V118.145C13.562 118.076 22.1134 117.648 30.6333 118.076C35.1637 118.305 36.8724 115.856 37.7817 110.798C39.8352 99.4296 39.5844 88.011 38.6674 76.5526C38.009 68.3196 37.1389 60.1165 36.3786 51.8935C36.2219 50.1713 36.1043 48.021 37.6641 47.573C39.1141 47.1549 40.0625 49.1061 40.5093 50.5894C41.0344 52.3216 41.1834 54.3027 41.2069 56.1842C41.2931 63.8697 42.4296 71.3759 43.4721 78.902C43.7464 80.903 43.958 82.7049 45.7922 83.2425C44.7419 89.2056 46.7876 90.9976 51.365 91.1469C57.4395 91.346 63.6473 89.4645 69.5964 92.5008C68.6401 95.1091 67.6447 98.673 70.2626 99.6487C77.0896 102.217 84.1046 101.67 91.057 99.788C88.2353 96.9807 85.0295 98.1454 81.9962 97.9065C78.712 97.6477 75.2554 98.4441 72.5827 95.0394C77.9204 95.3679 83.2033 96.692 88.588 96.2141C90.9316 96.005 91.8486 94.5317 91.7859 91.7044C91.7311 89.136 90.7983 87.7621 88.7291 87.6925C84.1987 87.5431 79.6761 87.3241 75.279 89.136C72.9432 90.1016 71.2188 91.4456 72.6219 95.0792C71.0072 95.2982 70.2626 93.8647 69.518 92.451C71.1248 89.1559 73.5703 87.6725 76.4468 86.6969C79.9348 85.5123 83.4462 86.02 86.9498 85.8109C88.4234 85.7213 90.4848 86.4182 91.104 84.4869C92.5306 80.0469 92.1935 75.1688 91.3627 70.6691C90.6886 67.0454 87.7258 68.7178 85.7114 68.4391C83.3835 68.1106 80.9302 68.4988 78.7277 67.6825C76.3685 66.8064 71.9086 68.4988 72.1202 64.5267C72.2848 61.3908 76.7839 61.7094 79.5585 61.5501C83.2816 61.341 87.0674 61.7392 90.524 59.1111C85.5939 58.2051 80.6637 58.0658 75.7649 57.4386C68.7263 56.5426 67.9896 57.0703 68.9928 66.0498C69.6983 72.3814 69.0477 78.8423 70.4586 85.0842C70.7877 86.5277 70.5448 88.4391 69.2201 88.8273C67.8955 89.2156 67.8093 87.3838 67.6996 86.2091C67.292 81.7592 64.3997 81.6297 62.0405 81.4505C56.7106 81.0324 51.3102 80.4948 46.1057 82.8443L46.1135 82.8542ZM106.913 73.2972C106.404 77.5182 106.6 81.7293 107.25 85.8906C107.525 87.6526 107.47 90.46 109.359 90.2609C111.42 90.0419 110.488 87.2644 110.699 85.5322C111.052 82.6253 108.316 78.5536 112.651 77.12C112.823 77.0603 112.91 76.6123 113.043 76.3435C110.699 76.2937 110.064 70.7885 106.937 73.2674C107.713 69.803 106.929 68.449 103.864 68.2798C93.6357 67.7223 93.5338 67.7721 93.7925 80.8035C93.863 84.3376 94.2784 86.9757 97.5077 87.792C98.8872 88.1404 100.447 88.9369 100.847 91.1867C99.2791 90.5496 97.7429 89.7631 96.1439 89.3251C94.6703 88.9169 94.0198 90.1613 93.9884 91.8836C93.9571 93.5461 93.816 95.796 95.6815 95.6168C97.8918 95.4077 100.494 95.2584 100.878 91.2465C105.385 91.9135 106.388 90.5994 105.557 84.5167C105.017 80.5247 103.849 76.5426 106.913 73.2972ZM164.907 111.475C164.155 92.4112 163.575 73.7054 166.483 55.129C166.875 52.6302 166.083 52.4013 164.327 52.451C154.208 52.7298 153.432 53.576 152.515 66.4082C152.421 67.6825 152.343 68.9568 152.17 70.2111C150.822 80.0568 150.838 79.9573 158.268 82.4958C160.228 83.1628 163.238 83.5212 162.846 87.125C162.524 90.1016 159.82 89.9324 157.837 90.1514C156.332 90.3206 154.82 90.2709 153.315 90.3704C152.116 90.45 150.571 90.6193 150.336 92.1922C149.317 98.912 145.657 97.2793 142.24 96.6223C138.603 95.9155 134.934 95.4077 131.329 94.5018C128.46 93.7751 127.23 94.9 127.292 98.6631C127.379 104.109 127.316 109.564 127.316 115.019C127.959 110.798 128.327 106.577 128.766 102.366C128.907 100.973 128.703 98.8423 130.263 98.8323C135.781 98.8124 141.291 99.3699 146.511 101.839C147.891 102.496 147.201 104.805 147.695 106.289C148.345 105.184 147.546 103.103 149.662 102.645C151.073 106.568 150.038 111.017 150.916 115.069C151.104 111.864 151.269 108.658 151.065 105.492C150.713 100.097 152.625 98.026 156.756 97.2793C161.286 96.453 164.218 96.8811 164.014 103.969C163.943 106.448 164.586 108.967 164.899 111.465L164.907 111.475ZM110.715 108.748C110.715 104.756 110.746 100.754 110.699 96.7616C110.684 95.0493 110.652 92.9488 108.74 93.1678C106.874 93.3868 107.031 95.5372 107.219 97.1798C107.65 100.953 109.343 104.397 108.998 108.379C108.708 111.774 109.696 114.163 112.337 115.318C116.452 117.13 120.559 119.33 124.972 117.07C125.96 116.563 125.889 114.89 125.889 113.616C125.889 108.29 125.866 102.954 125.842 97.6277C125.827 93.0484 123.264 92.5307 120.622 92.7696C118.114 92.9886 114.689 90.8582 114.023 96.7915C113.568 100.833 113.733 105.174 110.707 108.738L110.715 108.748ZM129.299 67.6427C132.418 66.7865 135.922 71.6347 138.281 68.449C140.335 65.6815 138.814 60.6641 139.183 56.6621C139.339 54.9697 139.567 53.2773 139.622 51.575C139.7 48.9767 141.095 45.3231 138.274 44.3176C134.315 42.914 129.315 40.465 126.203 44.0588C123.264 47.4535 123.961 54.1235 123.789 59.3102C123.671 62.9538 127.402 60.9727 129.158 62.3067C130.2 63.1031 132.223 62.4361 132.089 64.895C131.995 66.6472 130.428 66.7168 129.299 67.6427ZM148.706 117.916C146.942 115.169 145.876 112.949 146.151 110.291C146.833 103.681 144.089 101.899 139.465 101.59C130.365 100.983 130.451 100.803 129.542 112.431C129.244 116.214 130.004 118.056 133.218 117.956C138.062 117.807 142.921 117.916 148.714 117.916H148.706ZM152.507 109.056C152.476 117.429 152.507 117.518 156.278 117.906C163.489 118.653 163.951 118.016 162.956 108.718C162.822 107.454 162.423 106.169 162.509 104.935C163.01 98.1056 159.734 98.6034 156.152 99.4396C151.41 100.535 152.758 105.263 152.507 109.056ZM103.073 62.1374C101.286 62.1374 98.7618 62.0678 96.2458 62.1673C95.1955 62.2071 94.2549 62.8443 94.2471 64.457C94.2471 65.7213 94.976 66.5675 95.8382 66.468C103.3 65.6715 110.589 69.4346 118.075 67.8418C119.258 67.5929 120.583 67.3739 120.505 65.3629C120.418 63.3221 119.008 63.3122 117.863 63.2226C113.176 62.8741 108.544 61.4406 103.073 62.1374ZM65.4892 112.7C66.3436 107.842 66.5003 102.994 67.2528 98.1952C67.7309 95.1489 67.2136 92.68 64.0627 92.69C58.3801 92.7198 52.6975 92.6004 47.0149 92.6004C46.0743 92.6004 44.7967 92.3714 44.8673 94.3027C44.9221 95.9354 46.0508 96.2141 47.0462 96.3435C50.0326 96.7417 53.0502 97.5182 56.013 97.2793C60.708 96.8911 63.6394 98.2649 62.5343 105.841C64.0235 103.481 62.6832 100.395 65.4892 98.9617V112.71V112.7ZM137.247 72.3515C129.652 68.3395 122.684 69.6636 115.833 69.8726C114.391 69.9125 112.141 70.1315 112.071 72.0528C111.969 75.0195 114.438 74.0936 115.912 74.5018C117.377 74.91 118.866 75.348 120.356 75.4177C125.733 75.6367 131.227 76.7417 137.247 72.3614V72.3515ZM111.914 117.916C108.92 115.308 106.506 113.347 107.094 109.365C107.893 103.939 105.487 99.3102 105.393 94.1235C103.449 94.4919 103.324 95.8557 103.222 97.4386C102.947 101.64 102.548 105.831 102.211 110.032C101.631 117.269 102.14 117.946 108.011 117.916C108.967 117.916 109.923 117.916 111.906 117.916H111.914ZM128.17 84.8254C134.942 87.354 140.507 88.4889 146.213 88.3893C147.428 88.3694 148.604 88.0907 148.871 86.1892C149.059 84.8254 148.839 83.1728 147.758 83.0533C141.605 82.3863 135.326 79.6885 128.17 84.8353V84.8254ZM91.5116 115.029C91.1981 111.097 93.9728 105.034 89.121 103.75C83.1562 102.177 76.1255 100.624 70.9759 104.308C67.6368 106.697 70.1999 115.01 69.855 120.644C69.8393 120.933 70.051 121.241 70.6153 122.804C70.6153 117.299 70.5448 113.058 70.6467 108.837C70.6937 107.085 71.2032 105.383 72.9746 105.413C74.5735 105.433 74.6676 107.045 74.9106 108.539C75.0517 109.445 74.8008 110.779 76.3449 110.868C76.1803 106.667 77.5285 104.835 81.1262 105.293C90.6573 106.498 90.6729 106.329 91.5194 115.039L91.5116 115.029ZM143.674 95.0494C145.32 94.462 147.656 96.6123 147.891 93.0882C148.102 89.9025 145.845 90.3007 144.277 90.231C139.771 90.012 135.342 89.2753 130.945 88.011C129.801 87.6825 128.108 86.4381 127.543 88.8074C126.948 91.3161 128.452 91.9732 130.122 92.2918C134.723 93.1678 139.308 94.1534 143.674 95.0494ZM98.6051 102.277C94.4352 104.417 92.2719 111.784 94.2236 116.174C94.8036 117.478 95.6658 117.787 96.7161 117.648C98.1896 117.439 98.5815 116.115 98.5972 114.512C98.6207 110.56 98.6051 106.597 98.6051 102.277ZM119.784 91.0274C120.622 91.0274 121.461 91.0772 122.292 91.0175C123.789 90.9179 125.537 91.0872 125.654 88.3694C125.795 85.2733 123.946 85.1638 122.229 85.1041C120.559 85.0444 118.882 85.0344 117.213 85.1141C115.637 85.1837 114.72 86.4082 114.587 88.3196C114.414 90.7686 115.888 90.9179 117.275 91.0075C118.106 91.0573 118.945 91.0075 119.784 91.0274ZM41.6615 94.6312C42.1475 94.5715 42.6334 94.5118 43.1194 94.452C42.704 80.8831 40.1409 67.5929 38.3068 54.2032C39.4276 67.6825 40.5407 81.1618 41.6615 94.6312ZM112.588 88.5187C112.572 82.685 115.112 82.3863 118.678 82.894C121.986 83.3619 125.654 84.5864 128.476 80.7039C125.113 79.9075 121.821 79.9274 118.522 79.8975C114.169 79.8577 112.188 82.7314 112.58 88.5187H112.588ZM74.4481 64.7656C80.1778 66.0598 84.6298 67.0653 89.1915 66.5675C90.0851 66.468 91.0021 66.1295 91.01 64.8851C91.0178 63.6407 90.0929 63.123 89.215 63.1628C84.7317 63.3819 80.1856 62.6551 74.4403 64.7756L74.4481 64.7656ZM161.545 86.7168C158.598 84.1783 155.933 83.5212 153.087 83.7801C151.794 83.8995 150.799 84.7258 150.908 86.5476C151.01 88.1504 152.131 88.459 153.134 88.3993C155.705 88.2499 158.41 89.3251 161.537 86.7268L161.545 86.7168Z" fill="#251B11"/>
</g>
<defs>
<clipPath id="clip0_329_1139">
<rect width="194" height="100" fill="white" transform="translate(0 41)"/>
</clipPath>
</defs>
</svg>
