<svg width="193" height="209" viewBox="0 0 193 209" fill="none" xmlns="http://www.w3.org/2000/svg">
<path d="M71.48 177.96C72.6107 177.96 73.4747 178.088 74.072 178.344C74.6693 178.6 75.192 178.877 75.64 179.176C75.896 179.325 76.0987 179.443 76.248 179.528C76.4187 179.592 76.5787 179.624 76.728 179.624C76.9413 179.624 77.0907 179.507 77.176 179.272C77.2827 179.037 77.368 178.685 77.432 178.216H78.168C78.1467 178.6 78.1147 179.059 78.072 179.592C78.0507 180.104 78.0293 180.787 78.008 181.64C78.008 182.493 78.008 183.613 78.008 185H77.272C77.208 183.955 76.9733 182.941 76.568 181.96C76.184 180.979 75.608 180.179 74.84 179.56C74.0933 178.941 73.1333 178.632 71.96 178.632C70.872 178.632 69.9653 178.963 69.24 179.624C68.536 180.264 68.184 181.117 68.184 182.184C68.184 183.123 68.4187 183.912 68.888 184.552C69.3573 185.171 69.9973 185.757 70.808 186.312C71.64 186.845 72.5787 187.443 73.624 188.104C74.6907 188.787 75.6507 189.469 76.504 190.152C77.3573 190.813 78.0293 191.549 78.52 192.36C79.0107 193.171 79.256 194.152 79.256 195.304C79.256 196.691 78.9253 197.843 78.264 198.76C77.624 199.656 76.76 200.328 75.672 200.776C74.584 201.224 73.3893 201.448 72.088 201.448C70.8933 201.448 69.944 201.32 69.24 201.064C68.536 200.808 67.9387 200.541 67.448 200.264C66.9787 199.965 66.616 199.816 66.36 199.816C66.1467 199.816 65.9867 199.933 65.88 200.168C65.7947 200.403 65.72 200.755 65.656 201.224H64.92C64.9627 200.755 64.984 200.211 64.984 199.592C65.0053 198.952 65.016 198.12 65.016 197.096C65.0373 196.072 65.048 194.781 65.048 193.224H65.784C65.8693 194.547 66.104 195.784 66.488 196.936C66.8933 198.088 67.5013 199.016 68.312 199.72C69.144 200.403 70.2427 200.744 71.608 200.744C72.3333 200.744 73.0053 200.605 73.624 200.328C74.2427 200.051 74.744 199.613 75.128 199.016C75.512 198.419 75.704 197.651 75.704 196.712C75.704 195.837 75.4907 195.069 75.064 194.408C74.6587 193.747 74.0827 193.139 73.336 192.584C72.6107 192.008 71.7573 191.421 70.776 190.824C69.7733 190.184 68.8347 189.544 67.96 188.904C67.0853 188.264 66.3813 187.517 65.848 186.664C65.336 185.811 65.08 184.797 65.08 183.624C65.08 182.323 65.3787 181.256 65.976 180.424C66.5947 179.592 67.384 178.973 68.344 178.568C69.3253 178.163 70.3707 177.96 71.48 177.96ZM87.214 179.208V184.52H91.63V185.16H87.214V197.736C87.214 198.611 87.374 199.229 87.694 199.592C88.014 199.955 88.4727 200.136 89.07 200.136C89.6247 200.136 90.1153 199.912 90.542 199.464C90.99 199.016 91.374 198.259 91.694 197.192L92.302 197.416C92.046 198.547 91.5873 199.507 90.926 200.296C90.286 201.064 89.3367 201.448 88.078 201.448C87.3527 201.448 86.7447 201.352 86.254 201.16C85.7633 200.989 85.3367 200.733 84.974 200.392C84.5047 199.901 84.1847 199.315 84.014 198.632C83.8433 197.949 83.758 197.043 83.758 195.912V185.16H80.814V184.52H83.758V179.848C84.4193 179.827 85.038 179.773 85.614 179.688C86.19 179.581 86.7233 179.421 87.214 179.208ZM107.903 184.136V197.544C107.903 198.504 108.063 199.219 108.383 199.688C108.725 200.136 109.333 200.36 110.207 200.36V201.032C109.546 200.968 108.885 200.936 108.223 200.936C107.519 200.936 106.847 200.968 106.207 201.032C105.567 201.096 104.981 201.213 104.447 201.384V197.896C103.914 199.176 103.167 200.093 102.207 200.648C101.269 201.181 100.277 201.448 99.2313 201.448C98.4419 201.448 97.7699 201.331 97.2153 201.096C96.6606 200.883 96.2019 200.595 95.8393 200.232C95.4553 199.805 95.1886 199.261 95.0393 198.6C94.8899 197.917 94.8153 197.064 94.8153 196.04V187.976C94.8153 187.016 94.6553 186.312 94.3353 185.864C94.0153 185.395 93.4073 185.16 92.5113 185.16V184.488C93.1939 184.552 93.8553 184.584 94.4953 184.584C95.1993 184.584 95.8713 184.552 96.5113 184.488C97.1513 184.403 97.7379 184.285 98.2713 184.136V196.936C98.2713 197.555 98.3139 198.12 98.3993 198.632C98.4846 199.144 98.6873 199.549 99.0073 199.848C99.3273 200.147 99.8393 200.296 100.543 200.296C101.29 200.296 101.951 200.072 102.527 199.624C103.125 199.176 103.594 198.568 103.935 197.8C104.277 197.032 104.447 196.168 104.447 195.208V187.976C104.447 187.016 104.287 186.312 103.967 185.864C103.647 185.395 103.039 185.16 102.143 185.16V184.488C102.826 184.552 103.487 184.584 104.127 184.584C104.831 184.584 105.503 184.552 106.143 184.488C106.783 184.403 107.37 184.285 107.903 184.136ZM119.675 184.04C121.552 184.04 123.024 184.605 124.091 185.736C125.158 186.867 125.691 188.659 125.691 191.112H114.651L114.587 190.504H122.299C122.32 189.459 122.235 188.499 122.043 187.624C121.851 186.728 121.552 186.013 121.147 185.48C120.742 184.947 120.208 184.68 119.547 184.68C118.63 184.68 117.83 185.171 117.147 186.152C116.486 187.112 116.08 188.659 115.931 190.792L116.027 190.952C116.006 191.251 115.984 191.581 115.963 191.944C115.942 192.285 115.931 192.627 115.931 192.968C115.931 194.44 116.155 195.677 116.603 196.68C117.051 197.683 117.638 198.44 118.363 198.952C119.088 199.443 119.824 199.688 120.571 199.688C121.147 199.688 121.702 199.603 122.235 199.432C122.79 199.24 123.312 198.931 123.803 198.504C124.294 198.056 124.731 197.448 125.115 196.68L125.755 196.936C125.499 197.661 125.104 198.376 124.571 199.08C124.038 199.784 123.355 200.36 122.523 200.808C121.691 201.235 120.72 201.448 119.611 201.448C118.118 201.448 116.816 201.117 115.707 200.456C114.598 199.773 113.744 198.803 113.147 197.544C112.55 196.285 112.251 194.792 112.251 193.064C112.251 191.165 112.56 189.544 113.179 188.2C113.798 186.856 114.662 185.832 115.771 185.128C116.902 184.403 118.203 184.04 119.675 184.04Z" fill="#251B11"/>
<g clip-path="url(#clip0_329_1138)">
<path d="M55.7803 89.4443C57.598 93.9255 59.6668 98.3271 61.1805 102.914C62.9982 108.423 63.9302 109.404 69.6873 109.358C79.1261 109.278 88.5716 109.139 98.6515 109.02C98.0831 103.385 99.3456 98.8508 97.4948 94.4293" stroke="#251B11" stroke-width="2" stroke-linecap="round" stroke-linejoin="round"/>
<path d="M163.54 56.5781C163.705 70.5254 163.904 84.466 164.009 98.4132C164.029 101.403 163.705 104.393 163.54 107.376" stroke="#251B11" stroke-width="2" stroke-linecap="round" stroke-linejoin="round"/>
<path d="M164.532 56.0808C168.048 55.4909 171.564 54.9009 175.497 54.2446C173.395 47.3771 171.518 41.2453 169.502 34.6694H156.844C155.132 41.2321 153.533 47.3903 151.695 54.4236C155.503 55.007 159.019 55.5439 162.542 56.0875" stroke="#251B11" stroke-width="2" stroke-linecap="round" stroke-linejoin="round"/>
<path d="M70.1827 94.9262C67.8957 96.7624 65.6087 98.592 62.6475 100.965C69.3432 101.495 74.9814 102.357 80.6063 102.317C96.8268 102.205 113.054 101.807 129.268 101.27C130.788 101.217 133.082 99.7123 133.584 98.3467C135.025 94.4489 135.732 90.2727 136.803 85.9175C143.862 88.5889 141.582 93.8589 141.522 97.9026C141.476 101.403 140.015 104.876 139.202 108.363C138.072 113.222 135.23 116.682 130.808 117.995C131.244 121.601 131.588 124.405 131.925 127.209C131.542 127.282 131.158 127.348 130.768 127.421C128.204 124.199 126.855 120.646 128.633 115.807C126.987 115.628 125.646 115.357 124.297 115.357C111.719 115.323 99.1403 115.323 86.5552 115.357C85.3984 115.357 84.2351 115.668 83.0784 115.834" stroke="#251B11" stroke-width="2" stroke-linecap="round" stroke-linejoin="round"/>
<path d="M38.8989 118.333C39.1303 120.149 39.3616 121.972 39.5797 123.669C29.4998 131.584 23.617 131.293 18.7654 122.317H0.661133" stroke="#251B11" stroke-width="2" stroke-linecap="round" stroke-linejoin="round"/>
<path d="M130.266 117.829C116.194 117.664 102.128 117.511 88.0558 117.312C86.3967 117.286 84.7443 117.001 83.0918 116.835" stroke="#251B11" stroke-width="2" stroke-linecap="round" stroke-linejoin="round"/>
<path d="M133.743 84.9632C133.743 84.6317 133.835 84.2671 133.73 83.9688C131.443 77.6581 126.646 74.5027 119.34 74.5027C115.533 74.5027 111.725 74.5425 107.918 74.4961C103.047 74.4364 99.332 76.1798 97.3623 80.7737C97.8052 80.9195 98.2414 81.072 98.6843 81.2178C98.2877 83.7965 97.8845 86.3751 97.4879 88.9471" stroke="#251B11" stroke-width="2" stroke-linecap="round" stroke-linejoin="round"/>
<path d="M132.256 101.396C132.461 103.55 132.673 105.711 132.93 108.37C121.833 108.37 111.402 108.396 100.972 108.303C100.304 108.303 99.65 107.369 98.9824 106.871" stroke="#251B11" stroke-width="2" stroke-linecap="round" stroke-linejoin="round"/>
<path d="M163.045 108.37C161.372 115.164 154.895 115.701 150.05 117.027C144.617 118.519 138.549 117.663 132.752 117.829" stroke="#251B11" stroke-width="2" stroke-linecap="round" stroke-linejoin="round"/>
<path d="M97.9907 78.984C94.8577 74.6885 90.5349 74.0852 85.5709 74.4034C81.1291 74.6885 76.6146 73.8068 72.1728 74.0786C64.75 74.5426 61.9871 74.9934 62.2382 84.4529" stroke="#251B11" stroke-width="2" stroke-linecap="round" stroke-linejoin="round"/>
<path d="M24.0002 109.364C22.123 112.486 20.2458 115.609 18.3818 118.704C24.2117 123.239 35.1443 121.707 39.8902 115.841" stroke="#251B11" stroke-width="2" stroke-linecap="round" stroke-linejoin="round"/>
<path d="M70.1833 93.9253C68.5309 90.6042 66.885 87.2831 64.9616 83.4185C60.5727 85.785 57.0364 87.3958 53.8769 89.5635C52.8458 90.2728 52.1385 92.5664 52.4162 93.8988C53.639 99.7654 55.0402 105.619 56.8381 111.333C58.6558 117.087 59.7002 117.378 68.5772 116.218C67.6518 120.481 66.7859 124.458 65.92 128.435C65.3317 128.382 64.7501 128.329 64.1618 128.276L64.717 117.325" stroke="#251B11" stroke-width="2" stroke-linecap="round" stroke-linejoin="round"/>
<path d="M123.815 94.4224H71.1748" stroke="#251B11" stroke-width="2" stroke-linecap="round" stroke-linejoin="round"/>
<path d="M24.4961 78.4868C25.1571 81.4765 25.8908 84.4462 26.4658 87.4557C27.3846 92.2551 28.1976 97.0677 29.0635 101.947C29.9624 102.311 30.9605 102.716 31.2315 102.828C30.9274 104.976 30.6961 106.673 30.4581 108.37" stroke="#251B11" stroke-width="2" stroke-linecap="round" stroke-linejoin="round"/>
<path d="M24.9922 80.979C29.6124 87.3693 31.4962 94.5882 31.45 102.397" stroke="#251B11" stroke-width="2" stroke-linecap="round" stroke-linejoin="round"/>
<path d="M35.918 106.375C36.2485 106.706 36.7376 106.978 36.8896 107.382C40.2342 116.338 40.2276 116.378 49.825 116.318C52.806 116.298 55.7871 116.006 58.7615 115.841" stroke="#251B11" stroke-width="2" stroke-linecap="round" stroke-linejoin="round"/>
<path d="M165.027 108.867C169.211 115.39 174.625 119.44 182.914 118.393C186.007 118.002 189.193 118.327 192.339 118.327" stroke="#251B11" stroke-width="2" stroke-linecap="round" stroke-linejoin="round"/>
<path d="M173.97 117.829C168.18 117.995 162.383 118.161 156.593 118.326" stroke="#251B11" stroke-width="2" stroke-linecap="round" stroke-linejoin="round"/>
<path d="M136.724 86.9516C134.748 86.1031 132.765 85.2546 129.757 83.9619C128.105 87.283 126.452 90.6041 124.807 93.9252" stroke="#251B11" stroke-width="2" stroke-linecap="round" stroke-linejoin="round"/>
<path d="M39.3947 92.4341C38.238 96.4181 37.0747 100.402 35.918 104.386" stroke="#251B11" stroke-width="2" stroke-linecap="round" stroke-linejoin="round"/>
<path d="M29.4597 80.4819C29.4465 83.107 29.5919 85.5 32.3614 87.091C33.181 87.5616 33.1017 89.6166 33.4322 90.9424L34.9194 96.9216" stroke="#251B11" stroke-width="2" stroke-linecap="round" stroke-linejoin="round"/>
<path d="M82.1005 116.338H73.1641" stroke="#251B11" stroke-width="2" stroke-linecap="round" stroke-linejoin="round"/>
<path d="M21.5146 103.392C22.4863 105.135 23.4645 106.878 24.4362 108.622C27.9196 112.679 32.1631 113.719 36.9089 110.365" stroke="#251B11" stroke-width="2" stroke-linecap="round" stroke-linejoin="round"/>
<path d="M30.9541 79.4878C33.4923 83.8032 31.6614 88.1186 30.9541 92.4341" stroke="#251B11" stroke-width="2" stroke-linecap="round" stroke-linejoin="round"/>
<path d="M131.264 99.9046C129.11 98.2474 126.961 96.5835 124.807 94.9263" stroke="#251B11" stroke-width="2" stroke-linecap="round" stroke-linejoin="round"/>
<path d="M96.5029 82.9678V87.9461" stroke="#251B11" stroke-width="2" stroke-linecap="round" stroke-linejoin="round"/>
<path d="M24.9922 95.4233C25.1574 96.9148 25.3227 98.413 25.4879 99.9045" stroke="#251B11" stroke-width="2" stroke-linecap="round" stroke-linejoin="round"/>
<path d="M23.0085 88.4497C23.0085 90.7765 22.9953 93.0966 23.0283 95.4233C23.0283 95.5891 23.339 95.7548 23.5042 95.9205C23.6695 95.7548 23.8347 95.5891 23.9999 95.4233" stroke="#251B11" stroke-width="2" stroke-linecap="round" stroke-linejoin="round"/>
<path d="M37.9071 92.9312C36.5851 95.7551 35.2565 98.5724 33.9346 101.396" stroke="#251B11" stroke-width="2" stroke-linecap="round" stroke-linejoin="round"/>
<path d="M25.9902 104.386C26.1555 106.381 26.3207 108.37 26.486 110.365" stroke="#251B11" stroke-width="2" stroke-linecap="round" stroke-linejoin="round"/>
<path d="M23.5049 90.9355C23.6701 92.4271 23.8354 93.9252 24.0006 95.4167" stroke="#251B11" stroke-width="2" stroke-linecap="round" stroke-linejoin="round"/>
<path d="M27.9727 76.498C28.6336 77.4924 29.2946 78.4934 29.9622 79.4877" stroke="#251B11" stroke-width="2" stroke-linecap="round" stroke-linejoin="round"/>
<path d="M27.9727 72.0166C30.7025 73.0242 29.4401 74.529 28.1445 77.101C27.6488 73.9058 27.3117 71.7183 26.9746 69.5308" stroke="#251B11" stroke-width="2" stroke-linecap="round" stroke-linejoin="round"/>
<path d="M29.9619 75.5034V79.4874" stroke="#251B11" stroke-width="2" stroke-linecap="round" stroke-linejoin="round"/>
<path d="M23.5049 96.418V99.9048" stroke="#251B11" stroke-width="2" stroke-linecap="round" stroke-linejoin="round"/>
<path d="M35.4219 111.856H36.9091" stroke="#251B11" stroke-width="2" stroke-linecap="round" stroke-linejoin="round"/>
<path d="M22.5134 101.396C22.2094 101.913 21.9119 102.43 21.3105 103.458C19.8232 100.488 18.5277 97.8893 17.2256 95.2974C17.642 95.0786 18.0584 94.8599 18.4682 94.6411C19.6514 96.5635 20.8279 98.4859 22.0177 100.402C22.1367 100.594 22.3416 100.74 22.5068 100.905C22.6721 100.74 22.8373 100.574 23.0026 100.408" stroke="#251B11" stroke-width="2" stroke-linecap="round" stroke-linejoin="round"/>
<path d="M24.4961 101.396C24.7076 102.251 24.9257 103.113 25.1372 103.968C25.5735 103.796 26.0031 103.624 26.4394 103.458C25.9569 102.437 25.4743 101.423 24.9918 100.402" stroke="#251B11" stroke-width="2" stroke-linecap="round" stroke-linejoin="round"/>
</g>
<defs>
<clipPath id="clip0_329_1138">
<rect width="193" height="96" fill="white" transform="translate(0 34)"/>
</clipPath>
</defs>
</svg>
