<svg width="240" height="130" viewBox="0 0 240 130" fill="none" xmlns="http://www.w3.org/2000/svg">
<path d="M64.682 18.016V18.976C63.626 19.04 62.826 19.232 62.282 19.552C61.738 19.872 61.37 20.4 61.178 21.136C60.986 21.84 60.89 22.848 60.89 24.16V38.032C60.89 40.208 60.746 42.144 60.458 43.84C60.17 45.536 59.658 46.992 58.922 48.208C58.122 49.552 56.938 50.64 55.37 51.472C53.834 52.272 51.994 52.672 49.85 52.672C48.314 52.672 46.826 52.496 45.386 52.144C43.946 51.792 42.682 51.12 41.594 50.128C40.634 49.264 39.882 48.32 39.338 47.296C38.794 46.272 38.426 45.04 38.234 43.6C38.042 42.128 37.946 40.32 37.946 38.176V23.104C37.946 21.92 37.85 21.056 37.658 20.512C37.498 19.936 37.146 19.552 36.602 19.36C36.058 19.136 35.242 19.008 34.154 18.976V18.016C34.89 18.048 35.834 18.08 36.986 18.112C38.17 18.144 39.434 18.16 40.778 18.16C41.994 18.16 43.194 18.144 44.378 18.112C45.594 18.08 46.586 18.048 47.354 18.016V18.976C46.266 19.008 45.434 19.136 44.858 19.36C44.314 19.552 43.946 19.936 43.754 20.512C43.562 21.056 43.466 21.92 43.466 23.104V39.712C43.466 41.344 43.546 42.848 43.706 44.224C43.898 45.6 44.234 46.8 44.714 47.824C45.226 48.816 45.962 49.6 46.922 50.176C47.914 50.72 49.194 50.992 50.762 50.992C53.13 50.992 54.954 50.464 56.234 49.408C57.546 48.32 58.458 46.848 58.97 44.992C59.514 43.104 59.786 40.96 59.786 38.56V24.352C59.786 22.976 59.658 21.92 59.402 21.184C59.146 20.448 58.698 19.92 58.058 19.6C57.418 19.248 56.506 19.04 55.322 18.976V18.016C55.93 18.048 56.714 18.08 57.674 18.112C58.634 18.144 59.514 18.16 60.314 18.16C61.146 18.16 61.946 18.144 62.714 18.112C63.514 18.08 64.17 18.048 64.682 18.016ZM88.4495 14.368V46.768C88.4495 48.208 88.6895 49.28 89.1695 49.984C89.6815 50.656 90.5935 50.992 91.9055 50.992V52C90.9135 51.904 89.9215 51.856 88.9295 51.856C87.8415 51.856 86.8175 51.904 85.8575 52C84.9295 52.096 84.0655 52.272 83.2655 52.528V20.128C83.2655 18.688 83.0095 17.632 82.4975 16.96C82.0175 16.256 81.1215 15.904 79.8095 15.904V14.896C80.8335 14.992 81.8255 15.04 82.7855 15.04C83.8415 15.04 84.8495 14.992 85.8095 14.896C86.7695 14.768 87.6495 14.592 88.4495 14.368ZM77.6495 26.56C79.0575 26.56 80.3375 26.864 81.4895 27.472C82.6735 28.08 83.5055 29.104 83.9855 30.544L83.4095 31.072C82.9615 29.92 82.3055 29.088 81.4415 28.576C80.5775 28.032 79.6015 27.76 78.5135 27.76C76.6895 27.76 75.2015 28.736 74.0495 30.688C72.8975 32.608 72.3375 35.584 72.3695 39.616C72.3695 42.272 72.5935 44.448 73.0415 46.144C73.4895 47.808 74.1455 49.04 75.0095 49.84C75.9055 50.64 76.9775 51.04 78.2255 51.04C79.4735 51.04 80.5935 50.512 81.5855 49.456C82.6095 48.4 83.2175 46.88 83.4095 44.896L83.8415 45.904C83.5215 48.08 82.7535 49.76 81.5375 50.944C80.3215 52.096 78.6895 52.672 76.6415 52.672C74.6895 52.672 72.9615 52.208 71.4575 51.28C69.9855 50.32 68.8495 48.88 68.0495 46.96C67.2495 45.008 66.8495 42.56 66.8495 39.616C66.8495 36.704 67.3295 34.288 68.2895 32.368C69.2815 30.416 70.5935 28.96 72.2255 28C73.8575 27.04 75.6655 26.56 77.6495 26.56ZM106.301 14.464C107.261 14.464 108.109 14.592 108.845 14.848C109.581 15.104 110.237 15.44 110.813 15.856C111.261 16.24 111.629 16.704 111.917 17.248C112.205 17.792 112.349 18.384 112.349 19.024C112.349 19.824 112.077 20.496 111.533 21.04C111.021 21.584 110.349 21.856 109.517 21.856C108.685 21.856 107.981 21.6 107.405 21.088C106.829 20.576 106.541 19.872 106.541 18.976C106.541 18.24 106.733 17.632 107.117 17.152C107.533 16.672 108.093 16.336 108.797 16.144C108.701 15.888 108.477 15.68 108.125 15.52C107.773 15.328 107.293 15.232 106.685 15.232C105.981 15.232 105.373 15.376 104.861 15.664C104.381 15.952 103.997 16.336 103.709 16.816C103.357 17.424 103.117 18.336 102.989 19.552C102.893 20.736 102.845 22.56 102.845 25.024V27.28H107.981V28.24H102.845V47.056C102.845 48.624 103.277 49.68 104.141 50.224C105.037 50.736 106.237 50.992 107.741 50.992V52C106.973 51.968 105.885 51.936 104.477 51.904C103.101 51.84 101.629 51.808 100.061 51.808C98.9413 51.808 97.8213 51.84 96.7013 51.904C95.6133 51.936 94.7813 51.968 94.2053 52V50.992C95.4533 50.992 96.3333 50.752 96.8453 50.272C97.3893 49.792 97.6613 48.88 97.6613 47.536V28.24H94.0133V27.28H97.6613C97.6613 25.392 97.7413 23.824 97.9013 22.576C98.0933 21.296 98.3813 20.208 98.7653 19.312C99.1493 18.384 99.6613 17.568 100.301 16.864C100.973 16.16 101.821 15.584 102.845 15.136C103.901 14.688 105.053 14.464 106.301 14.464ZM121.626 26.56C123.77 26.56 125.674 27.008 127.338 27.904C129.002 28.8 130.33 30.208 131.322 32.128C132.314 34.048 132.81 36.56 132.81 39.664C132.81 42.768 132.314 45.28 131.322 47.2C130.33 49.088 129.002 50.48 127.338 51.376C125.674 52.24 123.77 52.672 121.626 52.672C119.514 52.672 117.61 52.24 115.914 51.376C114.218 50.48 112.874 49.088 111.882 47.2C110.922 45.28 110.442 42.768 110.442 39.664C110.442 36.56 110.922 34.048 111.882 32.128C112.874 30.208 114.218 28.8 115.914 27.904C117.61 27.008 119.514 26.56 121.626 26.56ZM121.626 27.52C119.962 27.52 118.602 28.48 117.546 30.4C116.49 32.288 115.962 35.376 115.962 39.664C115.962 43.952 116.49 47.04 117.546 48.928C118.602 50.784 119.962 51.712 121.626 51.712C123.258 51.712 124.602 50.784 125.658 48.928C126.746 47.04 127.29 43.952 127.29 39.664C127.29 35.376 126.746 32.288 125.658 30.4C124.602 28.48 123.258 27.52 121.626 27.52ZM151.66 26.56C152.588 26.56 153.372 26.752 154.012 27.136C154.684 27.52 155.18 28.016 155.5 28.624C155.852 29.2 156.028 29.856 156.028 30.592C156.028 31.52 155.74 32.32 155.164 32.992C154.62 33.632 153.884 33.952 152.956 33.952C152.156 33.952 151.468 33.712 150.892 33.232C150.348 32.752 150.076 32.096 150.076 31.264C150.076 30.56 150.252 29.968 150.604 29.488C150.988 28.976 151.42 28.576 151.9 28.288C151.58 28.032 151.196 27.92 150.748 27.952C149.884 27.984 149.084 28.272 148.348 28.816C147.612 29.328 146.988 30 146.476 30.832C145.964 31.632 145.564 32.496 145.276 33.424C144.988 34.352 144.844 35.216 144.844 36.016V47.056C144.844 48.624 145.276 49.68 146.14 50.224C147.004 50.736 148.204 50.992 149.74 50.992V52C149.004 51.968 147.948 51.936 146.572 51.904C145.228 51.84 143.804 51.808 142.3 51.808C141.148 51.808 139.996 51.84 138.844 51.904C137.692 51.936 136.812 51.968 136.204 52V50.992C137.452 50.992 138.332 50.752 138.844 50.272C139.388 49.792 139.66 48.88 139.66 47.536V32.464C139.66 31.024 139.42 29.968 138.94 29.296C138.46 28.592 137.548 28.24 136.204 28.24V27.232C137.228 27.328 138.22 27.376 139.18 27.376C140.268 27.376 141.276 27.328 142.204 27.232C143.164 27.104 144.044 26.928 144.844 26.704V32.224C145.228 31.296 145.74 30.4 146.38 29.536C147.02 28.672 147.788 27.968 148.684 27.424C149.58 26.848 150.572 26.56 151.66 26.56ZM166.835 26.56C168.115 26.56 169.219 26.768 170.147 27.184C171.107 27.568 171.795 27.92 172.211 28.24C173.267 29.072 173.923 28.528 174.179 26.608H175.235C175.171 27.504 175.123 28.592 175.091 29.872C175.059 31.12 175.043 32.784 175.043 34.864H173.987C173.795 33.68 173.459 32.528 172.979 31.408C172.531 30.288 171.859 29.36 170.963 28.624C170.099 27.888 168.963 27.52 167.555 27.52C166.499 27.52 165.619 27.824 164.915 28.432C164.211 29.008 163.859 29.872 163.859 31.024C163.859 31.984 164.147 32.816 164.723 33.52C165.299 34.224 166.035 34.88 166.931 35.488C167.859 36.096 168.851 36.752 169.907 37.456C171.091 38.256 172.147 39.056 173.075 39.856C174.035 40.624 174.787 41.488 175.331 42.448C175.907 43.408 176.195 44.528 176.195 45.808C176.195 47.28 175.795 48.528 174.995 49.552C174.227 50.576 173.203 51.36 171.923 51.904C170.643 52.416 169.235 52.672 167.699 52.672C166.931 52.672 166.211 52.592 165.539 52.432C164.867 52.304 164.243 52.128 163.667 51.904C163.315 51.712 162.963 51.52 162.611 51.328C162.291 51.104 161.971 50.896 161.651 50.704C161.331 50.48 161.043 50.512 160.787 50.8C160.531 51.088 160.339 51.6 160.211 52.336H159.155C159.219 51.312 159.267 50.064 159.299 48.592C159.331 47.12 159.347 45.168 159.347 42.736H160.403C160.627 44.496 160.963 46.048 161.411 47.392C161.859 48.736 162.515 49.792 163.379 50.56C164.275 51.296 165.491 51.664 167.027 51.664C167.635 51.664 168.243 51.536 168.851 51.28C169.459 50.992 169.955 50.544 170.339 49.936C170.755 49.328 170.963 48.512 170.963 47.488C170.963 46.08 170.467 44.928 169.475 44.032C168.515 43.104 167.267 42.128 165.731 41.104C164.643 40.336 163.603 39.584 162.611 38.848C161.651 38.08 160.867 37.232 160.259 36.304C159.651 35.344 159.347 34.208 159.347 32.896C159.347 31.456 159.683 30.272 160.355 29.344C161.059 28.416 161.987 27.728 163.139 27.28C164.291 26.8 165.523 26.56 166.835 26.56ZM187.914 14.368V47.536C187.914 48.88 188.138 49.792 188.586 50.272C189.066 50.752 189.866 50.992 190.986 50.992V52C190.442 51.968 189.626 51.936 188.538 51.904C187.482 51.84 186.41 51.808 185.322 51.808C184.202 51.808 183.05 51.84 181.866 51.904C180.714 51.936 179.85 51.968 179.274 52V50.992C180.522 50.992 181.402 50.752 181.914 50.272C182.458 49.792 182.73 48.88 182.73 47.536V20.128C182.73 18.688 182.474 17.632 181.962 16.96C181.482 16.256 180.586 15.904 179.274 15.904V14.896C180.298 14.992 181.29 15.04 182.25 15.04C183.306 15.04 184.314 14.992 185.274 14.896C186.234 14.768 187.114 14.592 187.914 14.368ZM203.274 27.232V28.192C202.41 28.32 201.578 28.608 200.778 29.056C199.978 29.504 199.194 30.128 198.426 30.928L192.666 36.976L193.29 35.776L201.978 48.496C202.458 49.168 202.922 49.728 203.37 50.176C203.818 50.592 204.378 50.864 205.05 50.992V52C204.634 51.968 204.01 51.936 203.178 51.904C202.378 51.84 201.578 51.808 200.778 51.808C199.722 51.808 198.65 51.84 197.562 51.904C196.474 51.936 195.674 51.968 195.162 52V50.992C195.802 50.992 196.234 50.832 196.458 50.512C196.714 50.192 196.682 49.808 196.362 49.36L191.082 41.104C190.538 40.336 190.042 39.84 189.594 39.616C189.146 39.392 188.506 39.264 187.674 39.232V38.272C188.602 38.176 189.354 38 189.93 37.744C190.538 37.488 191.098 37.072 191.61 36.496L195.21 32.848C196.234 31.824 196.746 30.976 196.746 30.304C196.746 29.6 196.41 29.088 195.738 28.768C195.098 28.416 194.234 28.224 193.146 28.192V27.232C194.01 27.264 194.954 27.312 195.978 27.376C197.034 27.408 197.914 27.424 198.618 27.424C199.194 27.424 199.77 27.424 200.346 27.424C200.954 27.392 201.514 27.36 202.026 27.328C202.538 27.296 202.954 27.264 203.274 27.232Z" fill="#251B11"/>
<path d="M25.6875 91.3125L26.9062 99.7188C27.6354 104.406 28.2083 107.073 28.625 107.719C28.8958 108.198 29.4583 108.552 30.3125 108.781C31.0417 108.969 31.4062 109.156 31.4062 109.344C31.4062 109.594 30.9271 109.802 29.9688 109.969C29.1979 110.115 28.5833 110.188 28.125 110.188C26.75 110.188 25.75 109.479 25.125 108.062C24.6458 106.979 23.5625 101.156 21.875 90.5938C15.5625 97.3646 10.3021 103.208 6.09375 108.125C5.03125 109.375 4.28125 110 3.84375 110C3.11458 110 2.54167 109.531 2.125 108.594C2.16667 107.51 7.72917 100.896 18.8125 88.75C29.8958 76.6042 35.4375 70.5208 35.4375 70.5L35.375 70.4062C34.6875 70.4271 32.375 71.8229 28.4375 74.5938L22.6562 78.75C22.3229 78.75 22.1562 78.5521 22.1562 78.1562C22.1562 77.6146 24.6667 75.6771 29.6875 72.3438C34.7917 68.9688 37.875 67.2812 38.9375 67.2812C39.3333 67.2812 39.8021 67.5208 40.3438 68C40.9062 68.4583 41.1875 68.875 41.1875 69.25C41.1875 69.4792 40.3854 70.4479 38.7812 72.1562L35.9062 75.1562L23.9062 88.4375L24.375 88.4062C24.9167 88.3646 25.2292 88.7292 25.3125 89.5L55.2188 73.8438C61.7604 70.4479 65.4479 68.75 66.2812 68.75C66.6354 68.75 66.8125 69.0729 66.8125 69.7188C66.8125 70.7396 65.9583 71.6458 64.25 72.4375L58.7812 74.9375L25.6875 91.3125ZM45.625 103.438C40.0625 107.812 36.2292 110 34.125 110C33.875 110 33.75 109.865 33.75 109.594C33.75 109.219 34 108.99 34.5 108.906C36.4583 108.594 39.1667 107.083 42.625 104.375L46.6562 101.219L53.125 96.0625C56.0833 94.0208 58.6146 93 60.7188 93C62.2812 93 63.1562 93.7812 63.3438 95.3438C64.1562 94.5729 64.7188 94.1875 65.0312 94.1875C65.7188 94.1875 66.0625 94.4688 66.0625 95.0312C66.0625 95.7604 64.4583 97.9896 61.25 101.719C58.0625 105.448 56.4688 107.625 56.4688 108.25C56.4688 108.688 56.8125 108.917 57.5 108.938C58.1875 108.958 58.5312 109.135 58.5312 109.469C58.5312 109.885 57.8229 110.094 56.4062 110.094C55.0104 110.094 54.3125 109.479 54.3125 108.25C54.3125 107.271 54.875 105.875 56 104.062L52.125 107.344C50.2292 108.76 48.7188 109.469 47.5938 109.469C45.8021 109.469 44.9062 108.562 44.9062 106.75C44.9062 105.75 45.1458 104.646 45.625 103.438ZM61.1562 94.2812C59.9271 94.2812 57.3854 96.1146 53.5312 99.7812C49.6771 103.448 47.75 105.896 47.75 107.125C47.75 107.688 48.0208 107.969 48.5625 107.969C49.75 107.969 52.2917 106.177 56.1875 102.594C60.1042 98.9896 62.0625 96.5625 62.0625 95.3125C62.0625 94.625 61.7604 94.2812 61.1562 94.2812ZM83.0625 89.5938L71.8125 90.0312C71.1875 90.0312 70.875 89.8646 70.875 89.5312C70.875 89.2604 71.3854 89.0521 72.4062 88.9062C73.8438 88.6771 75.8646 88.4792 78.4688 88.3125C81.3646 88.1458 83.3958 87.9896 84.5625 87.8438L89.0312 82.5C91.4271 79.6667 92.875 78.25 93.375 78.25C94 78.25 94.3125 78.6458 94.3125 79.4375C94.3125 80.2917 92.4167 83.0938 88.625 87.8438C90.8125 87.6979 92.625 87.625 94.0625 87.625C95.0208 87.625 95.5 87.8125 95.5 88.1875C95.5 88.6042 94.3438 88.8854 92.0312 89.0312L87.2812 89.1875L80.3125 97.9062C75.9167 103.635 73.7188 107.052 73.7188 108.156C73.7188 108.677 74.0729 108.948 74.7812 108.969C75.4896 108.969 75.8438 109.135 75.8438 109.469C75.8438 109.865 75.3854 110.062 74.4688 110.062C72.6146 110.062 71.6875 109.312 71.6875 107.812C71.6875 106.625 72.2917 104.927 73.5 102.719L76.2188 98.1562L66.9688 105.438C63.1146 108.479 60.1458 110 58.0625 110C57.8125 110 57.6875 109.865 57.6875 109.594C57.6875 109.24 57.8958 109.01 58.3125 108.906C59.0208 108.76 60.0938 108.396 61.5312 107.812C62.9271 107.083 66.0312 104.833 70.8438 101.062C74.4062 98.2917 76.6458 96.4896 77.5625 95.6562C79.2083 94.1562 81.0417 92.1354 83.0625 89.5938ZM87.0312 104.938C85.9896 105.188 84.0312 106.146 81.1562 107.812C78.6146 109.271 76.6875 110 75.375 110C75.125 110 75 109.865 75 109.594C75 109.219 75.2708 108.99 75.8125 108.906C77.0833 108.698 78.875 107.917 81.1875 106.562C83.7292 105.104 85.8021 104.188 87.4062 103.812C88.3646 101.5 90.3438 99.0729 93.3438 96.5312C96.5312 93.8021 99.25 92.4375 101.5 92.4375C103.167 92.4375 104 93.1458 104 94.5625C104 96.4167 102.24 98.4375 98.7188 100.625C96.1354 102.25 93.4896 103.521 90.7812 104.438C90.4896 105.104 90.3438 105.802 90.3438 106.531C90.3438 107.615 90.7188 108.323 91.4688 108.656C91.8438 108.802 92.5521 108.896 93.5938 108.938C94.3438 108.958 94.7188 109.135 94.7188 109.469C94.7188 109.99 93.4375 110.25 90.875 110.25C88.1667 110.25 86.8125 109.073 86.8125 106.719C86.8125 106.177 86.8854 105.583 87.0312 104.938ZM91.1562 103.188C93.0729 102.25 95.0938 100.979 97.2188 99.375C100.052 97.2708 101.469 95.6042 101.469 94.375C101.469 93.875 101.24 93.625 100.781 93.625C99.4271 93.625 97.5833 94.875 95.25 97.375C93.1667 99.6458 91.8021 101.583 91.1562 103.188ZM111.906 96.1875C111.802 95.5 111.75 95.0833 111.75 94.9375C111.75 94.375 112.417 93.5 113.75 92.3125C115.104 91.1042 116.031 90.5 116.531 90.5C117.01 90.5 117.25 90.7188 117.25 91.1562C117.25 91.5312 116.99 92.1562 116.469 93.0312C118.823 93.0312 120 93.9688 120 95.8438C120 97.3229 118.479 99.6875 115.438 102.938C112.396 106.167 110.875 107.979 110.875 108.375C110.875 108.75 111.073 108.958 111.469 109L112.5 108.969C112.792 108.969 112.938 109.135 112.938 109.469C112.938 109.885 112.333 110.094 111.125 110.094C109.583 110.094 108.812 109.406 108.812 108.031C108.812 106.677 109.583 104.99 111.125 102.969C112.083 101.698 113.51 100.125 115.406 98.25C116.948 96.7292 117.719 95.8958 117.719 95.75C117.719 95.4375 117.542 95.2812 117.188 95.2812C116.875 95.2812 116.281 95.4062 115.406 95.6562C114.531 95.8854 114.01 96.0729 113.844 96.2188C104.156 105.406 97.625 110 94.25 110C94 110 93.875 109.865 93.875 109.594C93.875 109.24 94.1562 109.01 94.7188 108.906C95.4062 108.781 96.3125 108.458 97.4375 107.938C99.125 107.188 101.646 105.406 105 102.594C107.979 100.115 110.281 97.9792 111.906 96.1875ZM124.531 102.969C121.594 105.26 119.708 106.677 118.875 107.219C116.125 109.073 113.99 110 112.469 110C112.198 110 112.062 109.875 112.062 109.625C112.062 109.271 112.312 109.031 112.812 108.906C115.021 108.385 117.76 106.854 121.031 104.312L129.781 97.3438C133.99 94.2604 137.167 92.7188 139.312 92.7188C141.083 92.7188 141.948 93.7083 141.906 95.6875C142.885 94.5625 143.583 94 144 94C144.604 94 144.906 94.3438 144.906 95.0312C144.906 95.6771 141.406 100.344 134.406 109.031C134.531 109.031 134.771 109.021 135.125 109C135.417 108.979 135.646 108.969 135.812 108.969C136.083 108.969 136.219 109.135 136.219 109.469C136.219 109.823 135.812 110.042 135 110.125L133.375 110.219C123.229 122.802 115.771 129.094 111 129.094C109.042 129.094 108.062 128.271 108.062 126.625C108.062 124 110.01 120.906 113.906 117.344C117.802 113.802 123.229 111.208 130.188 109.562C131.979 107.562 133.427 105.74 134.531 104.094C132.406 105.948 131.062 107.083 130.5 107.5C128.625 108.875 127.042 109.562 125.75 109.562C124.229 109.562 123.469 108.646 123.469 106.812C123.469 105.646 123.823 104.365 124.531 102.969ZM140.75 95.1875C140.75 94.4375 140.406 94.0625 139.719 94.0625C138.385 94.0625 135.812 95.8958 132 99.5625C128.208 103.208 126.312 105.76 126.312 107.219C126.312 107.74 126.51 108 126.906 108C128.073 108 130.646 106.24 134.625 102.719C138.708 99.0938 140.75 96.5833 140.75 95.1875ZM129.062 111.094C124.417 112.219 119.938 114.552 115.625 118.094C111.312 121.656 109.156 124.469 109.156 126.531C109.156 127.406 109.542 127.844 110.312 127.844C112.062 127.844 115.323 125.51 120.094 120.844C123.656 117.365 126.646 114.115 129.062 111.094ZM149.562 101.656L143.125 106.562C139.833 108.854 137.375 110 135.75 110C135.5 110 135.375 109.875 135.375 109.625C135.375 109.229 135.583 108.99 136 108.906C137.271 108.677 138.354 108.312 139.25 107.812C140.812 106.958 143.354 105.135 146.875 102.344L155.125 95.5625C156.708 94.1667 157.677 93.4688 158.031 93.4688C158.552 93.4688 159.125 93.7604 159.75 94.3438C160.958 93.4271 162.031 92.9688 162.969 92.9688C164.385 92.9688 165.094 93.7292 165.094 95.25C165.094 97.5208 163.281 100.615 159.656 104.531C155.969 108.49 152.99 110.469 150.719 110.469C148.594 110.469 147.531 109.354 147.531 107.125C147.531 105.958 148.208 104.135 149.562 101.656ZM160.156 101.719C160.927 100.99 161.698 100 162.469 98.75C163.323 97.3125 163.75 96.1667 163.75 95.3125C163.75 94.5208 163.406 94.125 162.719 94.125C161.698 94.125 160.667 94.7708 159.625 96.0625C158.604 97.3333 158.094 98.4896 158.094 99.5312C158.094 100.698 158.781 101.427 160.156 101.719ZM157.094 97.8125C152.844 101.521 150.719 104.542 150.719 106.875C150.719 107.875 151.198 108.375 152.156 108.375C153.719 108.375 156.156 106.49 159.469 102.719C157.719 102.302 156.844 101.177 156.844 99.3438C156.844 98.8646 156.927 98.3542 157.094 97.8125ZM175.906 96.1875C175.802 95.5 175.75 95.0833 175.75 94.9375C175.75 94.375 176.417 93.5 177.75 92.3125C179.104 91.1042 180.031 90.5 180.531 90.5C181.01 90.5 181.25 90.7188 181.25 91.1562C181.25 91.5312 180.99 92.1562 180.469 93.0312C182.823 93.0312 184 93.9688 184 95.8438C184 97.3229 182.479 99.6875 179.438 102.938C176.396 106.167 174.875 107.979 174.875 108.375C174.875 108.75 175.073 108.958 175.469 109L176.5 108.969C176.792 108.969 176.938 109.135 176.938 109.469C176.938 109.885 176.333 110.094 175.125 110.094C173.583 110.094 172.812 109.406 172.812 108.031C172.812 106.677 173.583 104.99 175.125 102.969C176.083 101.698 177.51 100.125 179.406 98.25C180.948 96.7292 181.719 95.8958 181.719 95.75C181.719 95.4375 181.542 95.2812 181.188 95.2812C180.875 95.2812 180.281 95.4062 179.406 95.6562C178.531 95.8854 178.01 96.0729 177.844 96.2188C168.156 105.406 161.625 110 158.25 110C158 110 157.875 109.865 157.875 109.594C157.875 109.24 158.156 109.01 158.719 108.906C159.406 108.781 160.312 108.458 161.438 107.938C163.125 107.188 165.646 105.406 169 102.594C171.979 100.115 174.281 97.9792 175.906 96.1875ZM204.969 86.4688C203.969 86.4688 203.469 85.9583 203.469 84.9375C203.469 84.0833 203.979 83.3125 205 82.625C205.917 82 206.833 81.6875 207.75 81.6875C208.833 81.6875 209.375 82.2812 209.375 83.4688C209.375 84.3229 208.833 85.0521 207.75 85.6562C206.812 86.1979 205.885 86.4688 204.969 86.4688ZM191.156 108.125C191.156 108.688 191.76 108.969 192.969 108.969C193.24 108.969 193.375 109.135 193.375 109.469C193.375 109.865 192.688 110.062 191.312 110.062C189.75 110.062 188.969 109.312 188.969 107.812C188.969 106.062 191.292 102.406 195.938 96.8438L187.406 103.812C182.365 107.938 178.708 110 176.438 110C176.188 110 176.062 109.865 176.062 109.594C176.062 109.219 176.271 108.99 176.688 108.906C178 108.656 179.198 108.229 180.281 107.625C181.635 106.875 184.51 104.76 188.906 101.281L198.469 93.25C198.885 93.1042 199.448 93.0312 200.156 93.0312C200.865 93.0312 201.219 93.4375 201.219 94.25C201.219 95.125 199.542 97.4896 196.188 101.344C192.833 105.177 191.156 107.438 191.156 108.125ZM204.594 104.938C203.552 105.188 201.594 106.146 198.719 107.812C196.177 109.271 194.25 110 192.938 110C192.688 110 192.562 109.865 192.562 109.594C192.562 109.219 192.833 108.99 193.375 108.906C194.646 108.698 196.438 107.917 198.75 106.562C201.292 105.104 203.365 104.188 204.969 103.812C205.927 101.5 207.906 99.0729 210.906 96.5312C214.094 93.8021 216.812 92.4375 219.062 92.4375C220.729 92.4375 221.562 93.1458 221.562 94.5625C221.562 96.4167 219.802 98.4375 216.281 100.625C213.698 102.25 211.052 103.521 208.344 104.438C208.052 105.104 207.906 105.802 207.906 106.531C207.906 107.615 208.281 108.323 209.031 108.656C209.406 108.802 210.115 108.896 211.156 108.938C211.906 108.958 212.281 109.135 212.281 109.469C212.281 109.99 211 110.25 208.438 110.25C205.729 110.25 204.375 109.073 204.375 106.719C204.375 106.177 204.448 105.583 204.594 104.938ZM208.719 103.188C210.635 102.25 212.656 100.979 214.781 99.375C217.615 97.2708 219.031 95.6042 219.031 94.375C219.031 93.875 218.802 93.625 218.344 93.625C216.99 93.625 215.146 94.875 212.812 97.375C210.729 99.6458 209.365 101.583 208.719 103.188ZM229.469 96.1875C229.365 95.5 229.312 95.0833 229.312 94.9375C229.312 94.375 229.979 93.5 231.312 92.3125C232.667 91.1042 233.594 90.5 234.094 90.5C234.573 90.5 234.812 90.7188 234.812 91.1562C234.812 91.5312 234.552 92.1562 234.031 93.0312C236.385 93.0312 237.562 93.9688 237.562 95.8438C237.562 97.3229 236.042 99.6875 233 102.938C229.958 106.167 228.438 107.979 228.438 108.375C228.438 108.75 228.635 108.958 229.031 109L230.062 108.969C230.354 108.969 230.5 109.135 230.5 109.469C230.5 109.885 229.896 110.094 228.688 110.094C227.146 110.094 226.375 109.406 226.375 108.031C226.375 106.677 227.146 104.99 228.688 102.969C229.646 101.698 231.073 100.125 232.969 98.25C234.51 96.7292 235.281 95.8958 235.281 95.75C235.281 95.4375 235.104 95.2812 234.75 95.2812C234.438 95.2812 233.844 95.4062 232.969 95.6562C232.094 95.8854 231.573 96.0729 231.406 96.2188C221.719 105.406 215.188 110 211.812 110C211.562 110 211.438 109.865 211.438 109.594C211.438 109.24 211.719 109.01 212.281 108.906C212.969 108.781 213.875 108.458 215 107.938C216.688 107.188 219.208 105.406 222.562 102.594C225.542 100.115 227.844 97.9792 229.469 96.1875Z" fill="#251B11"/>
</svg>
